# Blender v2.80 (sub 75) OBJ File: 'mushroom.blend'
# www.blender.org
mtllib mushroom.mtl
o Icosphere
v 0.011548 -0.001987 -0.103414
v 0.273759 0.517008 0.092030
v -0.098001 0.517008 0.212825
v -0.327764 0.517013 -0.103414
v -0.098001 0.517008 -0.419653
v 0.273759 0.517008 -0.298859
v 0.118851 1.603304 0.247761
v -0.293979 1.603303 0.113622
v -0.293979 1.603303 -0.320451
v 0.118851 1.603304 -0.454590
v 0.373998 1.603297 -0.103414
v 0.004749 2.398191 -0.103414
v -0.057470 -0.001987 0.109005
v 0.192243 -0.001987 0.027867
v 0.102474 0.415333 0.197345
v 0.320988 0.415335 -0.103414
v 0.192243 -0.001987 -0.234695
v -0.211804 -0.001987 -0.103414
v -0.251093 0.415335 0.082466
v -0.057470 -0.001987 -0.315834
v -0.251093 0.415335 -0.289294
v 0.102474 0.415333 -0.404174
v 0.397377 0.960209 0.024156
v 0.397377 0.960209 -0.230985
v 0.004749 0.960209 0.309418
v 0.247406 0.960209 0.230574
v -0.387878 0.960209 0.024156
v -0.237908 0.960209 0.230574
v -0.237908 0.960209 -0.437403
v -0.387878 0.960209 -0.230985
v 0.247406 0.960209 -0.437403
v 0.004749 0.960209 -0.516247
v 0.288856 1.716209 0.103001
v -0.103771 1.716211 0.230572
v -0.346426 1.716208 -0.103414
v -0.103771 1.716211 -0.437401
v 0.288856 1.716209 -0.309829
v 0.071816 2.183435 0.103000
v 0.221788 2.183431 -0.103414
v -0.170838 2.183435 0.024156
v -0.170838 2.183435 -0.230984
v 0.071816 2.183435 -0.309829
v -0.001333 1.534832 -0.140798
v 0.847558 1.827670 0.567505
v -0.325575 1.827670 1.005270
v -1.050619 1.827672 -0.140798
v -0.325575 1.827670 -1.286866
v 0.847558 1.827670 -0.849100
v 0.322908 2.301504 1.005270
v -0.850225 2.301504 0.567505
v -0.850225 2.301504 -0.849100
v 0.322908 2.301504 -1.286866
v 1.047952 2.301502 -0.140798
v -0.001333 2.594342 -0.140798
v -0.191916 1.613948 0.532839
v 0.497629 1.613949 0.275529
v 0.307048 1.786075 0.949173
v 0.996594 1.786076 -0.140798
v 0.497629 1.613949 -0.557125
v -0.618087 1.613950 -0.140798
v -0.808675 1.786076 0.532841
v -0.191916 1.613948 -0.814434
v -0.808675 1.786076 -0.814437
v 0.307048 1.786075 -1.230768
v 1.114389 2.064587 0.275531
v 1.114389 2.064587 -0.557126
v -0.001333 2.064587 1.206488
v 0.688220 2.064587 0.949179
v -1.117056 2.064587 0.275531
v -0.690887 2.064587 0.949179
v -0.690887 2.064587 -1.230775
v -1.117056 2.064587 -0.557126
v 0.688220 2.064587 -1.230775
v -0.001333 2.064587 -1.488084
v 0.806008 2.343098 0.532841
v -0.309715 2.343099 0.949173
v -0.999261 2.343098 -0.140798
v -0.309715 2.343099 -1.230768
v 0.806008 2.343098 -0.814437
v 0.189249 2.515225 0.532839
v 0.615420 2.515224 -0.140798
v -0.500296 2.515225 0.275529
v -0.500296 2.515225 -0.557125
v 0.189249 2.515225 -0.814434
vt 0.443878 0.737389
vt 0.445111 0.739246
vt 0.443407 0.740394
vt 0.447045 0.740154
vt 0.447097 0.737389
vt 0.442353 0.737389
vt 0.443407 0.734385
vt 0.445111 0.735533
vt 0.449065 0.739194
vt 0.459283 0.749238
vt 0.460716 0.750728
vt 0.458282 0.751198
vt 0.459283 0.743709
vt 0.459232 0.746473
vt 0.457264 0.744669
vt 0.458591 0.737337
vt 0.460383 0.739051
vt 0.458024 0.739915
vt 0.447045 0.734625
vt 0.445606 0.733135
vt 0.448041 0.732665
vt 0.448041 0.742114
vt 0.457264 0.748278
vt 0.458282 0.741749
vt 0.456455 0.736867
vt 0.449065 0.735585
vt 0.453838 0.747543
vt 0.452489 0.744833
vt 0.455222 0.745039
vt 0.451210 0.734320
vt 0.453173 0.732665
vt 0.453496 0.735585
vt 0.451210 0.740459
vt 0.450957 0.737389
vt 0.453496 0.739194
vt 0.447125 0.744683
vt 0.448658 0.743866
vt 0.448548 0.747164
vt 0.444621 0.749993
vt 0.446030 0.747450
vt 0.447076 0.750285
vt 0.448906 0.749506
vt 0.455711 0.740309
vt 0.455529 0.737389
vt 0.453173 0.742114
vt 0.455711 0.734470
vt 0.455711 0.748452
vt 0.453589 0.742114
vt 0.455711 0.742916
vt 0.451062 0.742567
vt 0.443111 0.747450
vt 0.444583 0.744329
vt 0.446207 0.742114
vt 0.455711 0.739581
vt 0.450434 0.742114
vt 0.449065 0.739194
vt 0.449065 0.735585
vt 0.450434 0.732665
vt 0.455989 0.749393
vt 0.453281 0.750357
vt 0.451289 0.748120
vt 0.449657 0.745195
vt 0.455994 0.733768
vt 0.458097 0.734609
vt 0.460102 0.741749
vt 0.457591 0.741749
vt 0.460716 0.742219
vt 0.455711 0.746473
vt 0.450956 0.749959
vt 0.445606 0.741644
vt 0.442353 0.750285
vt 0.459879 0.732665
vt 0.460354 0.735854
vt 0.462492 0.737741
vt 0.461301 0.744673
vt 0.461301 0.748387
vt 0.351397 0.159902
vt 0.350520 0.157579
vt 0.352618 0.158050
vt 0.349454 0.155624
vt 0.348180 0.157579
vt 0.352717 0.160855
vt 0.350679 0.162119
vt 0.349322 0.160094
vt 0.347689 0.155535
vt 0.343303 0.161020
vt 0.342677 0.162356
vt 0.341570 0.159998
vt 0.346793 0.158540
vt 0.345150 0.159998
vt 0.345150 0.157082
vt 0.355252 0.139827
vt 0.357331 0.139727
vt 0.356061 0.142188
vt 0.336252 0.160950
vt 0.334519 0.159928
vt 0.336047 0.158470
vt 0.354972 0.152958
vt 0.353642 0.151060
vt 0.355981 0.150957
vt 0.343099 0.158540
vt 0.346940 0.156181
vt 0.353978 0.141625
vt 0.338098 0.159928
vt 0.356790 0.148597
vt 0.354711 0.148497
vt 0.356009 0.146413
vt 0.358018 0.159902
vt 0.357094 0.162119
vt 0.356112 0.160094
vt 0.355980 0.155624
vt 0.357254 0.157579
vt 0.354913 0.157579
vt 0.336252 0.155990
vt 0.335625 0.154654
vt 0.337837 0.154654
vt 0.339741 0.158470
vt 0.338098 0.157012
vt 0.339888 0.156111
vt 0.352717 0.160855
vt 0.352815 0.158050
vt 0.354036 0.159902
vt 0.353957 0.155535
vt 0.354754 0.162119
vt 0.358081 0.147586
vt 0.353670 0.146516
vt 0.352811 0.148772
vt 0.334519 0.157012
vt 0.355046 0.144188
vt 0.357070 0.144188
vt 0.357744 0.155535
vt 0.344889 0.154723
vt 0.343303 0.156060
vt 0.341570 0.157082
vt 0.358064 0.150395
vt 0.353961 0.138817
vt 0.358400 0.142290
vt 0.359231 0.140002
vt 0.356996 0.152958
vt 0.339888 0.160829
vt 0.337837 0.162287
vt 0.348339 0.162119
vt 0.347415 0.159902
vt 0.356033 0.137644
vt 0.358372 0.137747
vt 0.346940 0.160899
vt 0.344889 0.162356
vt 0.351476 0.155535
vn 0.0000 -1.0000 0.0000
vn 0.9287 -0.1856 0.3210
vn 0.9212 -0.2064 0.3300
vn -0.0292 -0.2064 0.9780
vn -0.9392 -0.2064 0.2745
vn -0.5513 -0.2064 -0.8084
vn 0.5985 -0.2064 -0.7741
vn 0.8017 -0.1344 0.5824
vn -0.3062 -0.1344 0.9424
vn -0.9909 -0.1344 0.0000
vn -0.3062 -0.1344 -0.9424
vn 0.8017 -0.1344 -0.5824
vn 0.5287 0.2456 0.8125
vn -0.6093 0.2456 0.7539
vn -0.9053 0.2456 -0.3465
vn 0.0498 0.2456 -0.9681
vn 0.9361 0.2456 -0.2518
vn 0.6263 0.6330 -0.4550
vn 0.7573 0.3518 -0.5502
vn 0.5287 0.2456 -0.8125
vn -0.2392 0.6330 -0.7363
vn -0.2893 0.3518 -0.8903
vn -0.6093 0.2456 -0.7539
vn -0.7742 0.6330 0.0000
vn -0.9361 0.3518 0.0000
vn -0.9053 0.2456 0.3465
vn -0.2392 0.6330 0.7363
vn -0.2893 0.3518 0.8903
vn 0.0498 0.2456 0.9681
vn 0.6263 0.6330 0.4550
vn 0.7573 0.3518 0.5502
vn 0.9361 0.2456 0.2518
vn 0.9379 0.1000 -0.3322
vn 0.8078 0.0547 -0.5869
vn 0.6057 0.1000 -0.7894
vn -0.0261 0.1000 -0.9946
vn -0.3086 0.0547 -0.9496
vn -0.5635 0.1000 -0.8200
vn -0.9540 0.1000 -0.2826
vn -0.9985 0.0547 0.0000
vn -0.9540 0.1000 0.2826
vn -0.5635 0.1000 0.8200
vn -0.3086 0.0547 0.9496
vn -0.0261 0.1000 0.9946
vn 0.6057 0.1000 0.7894
vn 0.8078 0.0547 0.5869
vn 0.9379 0.1000 0.3322
vn 0.3088 0.0363 -0.9504
vn 0.3060 -0.1388 -0.9418
vn -0.0292 -0.2064 -0.9780
vn -0.8085 0.0363 -0.5874
vn -0.8012 -0.1388 -0.5821
vn -0.9392 -0.2064 -0.2745
vn -0.8085 0.0363 0.5874
vn -0.8012 -0.1388 0.5821
vn -0.5513 -0.2064 0.8084
vn 0.3088 0.0363 0.9504
vn 0.3060 -0.1388 0.9418
vn 0.5985 -0.2064 0.7741
vn 0.9993 0.0363 0.0000
vn 0.9903 -0.1388 0.0000
vn 0.9212 -0.2064 -0.3300
vn 0.5936 -0.1899 -0.7820
vn 0.2943 -0.3046 -0.9059
vn -0.0247 -0.1980 -0.9799
vn -0.5522 -0.2048 -0.8082
vn -0.7664 -0.3202 -0.5568
vn -0.9390 -0.2098 -0.2725
vn -0.9390 -0.2098 0.2725
vn -0.7664 -0.3202 0.5568
vn -0.5522 -0.2048 0.8082
vn 0.9287 -0.1856 -0.3210
vn 0.9556 -0.2948 0.0000
vn -0.0247 -0.1980 0.9799
vn 0.2943 -0.3046 0.9059
vn 0.5936 -0.1899 0.7820
vn 0.0485 -0.9903 0.1300
vn 0.4268 -0.8931 0.1422
vn -0.1268 -0.9887 0.0802
vn -0.1268 -0.9887 -0.0802
vn 0.0485 -0.9903 -0.1300
vn 0.7625 -0.6164 0.1966
vn 0.0225 -0.6649 0.7466
vn -0.7514 -0.6179 0.2317
vn -0.5058 -0.6440 -0.5739
vn 0.4725 -0.6467 -0.5987
vn 0.8110 -0.2811 0.5131
vn -0.3332 -0.3024 0.8930
vn -0.9629 -0.2700 0.0000
vn -0.3332 -0.3024 -0.8930
vn 0.8110 -0.2811 -0.5131
vn 0.2529 0.9063 0.3385
vn -0.2908 0.9041 0.3133
vn -0.4268 0.8931 -0.1422
vn 0.0240 0.9134 -0.4064
vn 0.4406 0.8917 -0.1032
vn 0.1268 0.9887 -0.0802
vn 0.2650 0.9496 -0.1677
vn 0.2529 0.9063 -0.3385
vn -0.0485 0.9903 -0.1300
vn -0.1020 0.9565 -0.2733
vn -0.2908 0.9041 -0.3133
vn -0.1566 0.9877 0.0000
vn -0.3261 0.9453 0.0000
vn -0.4268 0.8931 0.1422
vn -0.0485 0.9903 0.1300
vn -0.1020 0.9565 0.2733
vn 0.0240 0.9134 0.4064
vn 0.1268 0.9887 0.0802
vn 0.2650 0.9496 0.1677
vn 0.4406 0.8917 0.1032
vn 0.7514 0.6179 -0.2317
vn 0.7730 0.4041 -0.4890
vn 0.5058 0.6440 -0.5739
vn -0.0225 0.6649 -0.7466
vn -0.3154 0.4316 -0.8451
vn -0.4725 0.6467 -0.5987
vn -0.7625 0.6164 -0.1966
vn -0.9210 0.3895 0.0000
vn -0.7625 0.6164 0.1966
vn -0.4725 0.6467 0.5987
vn -0.3154 0.4316 0.8451
vn -0.0225 0.6649 0.7466
vn 0.5058 0.6440 0.5739
vn 0.7730 0.4041 0.4890
vn 0.7514 0.6179 0.2317
vn 0.3332 0.3024 -0.8930
vn 0.3154 -0.4316 -0.8451
vn 0.0225 -0.6649 -0.7466
vn -0.8110 0.2811 -0.5131
vn -0.7730 -0.4041 -0.4890
vn -0.7514 -0.6179 -0.2317
vn -0.8110 0.2811 0.5131
vn -0.7730 -0.4041 0.4890
vn -0.5058 -0.6440 0.5739
vn 0.3332 0.3024 0.8930
vn 0.3154 -0.4316 0.8451
vn 0.4725 -0.6467 0.5987
vn 0.9629 0.2700 0.0000
vn 0.9210 -0.3895 0.0000
vn 0.7625 -0.6164 -0.1966
vn 0.2908 -0.9041 -0.3133
vn 0.1020 -0.9565 -0.2733
vn -0.0240 -0.9134 -0.4064
vn -0.2529 -0.9063 -0.3385
vn -0.2650 -0.9496 -0.1677
vn -0.4406 -0.8917 -0.1032
vn -0.4406 -0.8917 0.1032
vn -0.2650 -0.9496 0.1677
vn -0.2529 -0.9063 0.3385
vn 0.4268 -0.8931 -0.1422
vn 0.3261 -0.9453 0.0000
vn 0.1566 -0.9877 0.0000
vn -0.0240 -0.9134 0.4064
vn 0.1020 -0.9565 0.2733
vn 0.2908 -0.9041 0.3133
usemtl Material.001
s off
f 1/1/1 14/2/1 13/3/1
f 2/4/2 14/2/2 16/5/2
f 1/1/1 13/3/1 18/6/1
f 1/1/1 18/6/1 20/7/1
f 1/1/1 20/7/1 17/8/1
f 2/4/3 16/5/3 23/9/3
f 3/10/4 15/11/4 25/12/4
f 4/13/5 19/14/5 27/15/5
f 5/16/6 21/17/6 29/18/6
f 6/19/7 22/20/7 31/21/7
f 2/4/8 23/9/8 26/22/8
f 3/10/9 25/12/9 28/23/9
f 4/13/10 27/15/10 30/24/10
f 5/16/11 29/18/11 32/25/11
f 6/19/12 31/21/12 24/26/12
f 7/27/13 33/28/13 38/29/13
f 8/30/14 34/31/14 40/32/14
f 9/33/15 35/34/15 41/35/15
f 10/36/16 36/37/16 42/38/16
f 11/39/17 37/40/17 39/41/17
f 39/41/18 42/38/18 12/42/18
f 39/41/19 37/40/19 42/38/19
f 37/40/20 10/36/20 42/38/20
f 42/43/21 41/35/21 12/44/21
f 42/43/22 36/45/22 41/35/22
f 36/45/23 9/33/23 41/35/23
f 41/35/24 40/32/24 12/44/24
f 41/35/25 35/34/25 40/32/25
f 35/34/26 8/30/26 40/32/26
f 40/32/27 38/46/27 12/44/27
f 40/32/28 34/31/28 38/46/28
f 34/47/29 7/27/29 38/29/29
f 38/29/30 39/48/30 12/49/30
f 38/29/31 33/28/31 39/48/31
f 33/28/32 11/50/32 39/48/32
f 24/51/33 37/40/33 11/39/33
f 24/51/34 31/52/34 37/40/34
f 31/52/35 10/36/35 37/40/35
f 32/53/36 36/37/36 10/36/36
f 32/25/37 29/18/37 36/54/37
f 29/55/38 9/33/38 36/45/38
f 30/56/39 35/34/39 9/33/39
f 30/56/40 27/57/40 35/34/40
f 27/57/41 8/30/41 35/34/41
f 28/58/42 34/31/42 8/30/42
f 28/23/43 25/12/43 34/59/43
f 25/60/44 7/27/44 34/47/44
f 26/61/45 33/28/45 7/27/45
f 26/61/46 23/62/46 33/28/46
f 23/62/47 11/50/47 33/28/47
f 31/52/48 32/53/48 10/36/48
f 31/63/49 22/64/49 32/25/49
f 22/64/50 5/16/50 32/25/50
f 29/18/51 30/65/51 9/66/51
f 29/18/52 21/17/52 30/65/52
f 21/67/53 4/13/53 30/24/53
f 27/15/54 28/23/54 8/68/54
f 27/15/55 19/14/55 28/23/55
f 19/14/56 3/10/56 28/23/56
f 25/60/57 26/61/57 7/27/57
f 25/60/58 15/69/58 26/61/58
f 15/70/59 2/4/59 26/22/59
f 23/71/60 24/51/60 11/39/60
f 23/9/61 16/5/61 24/26/61
f 16/5/62 6/19/62 24/26/62
f 17/8/63 22/20/63 6/19/63
f 17/72/64 20/73/64 22/64/64
f 20/73/65 5/16/65 22/64/65
f 20/73/66 21/17/66 5/16/66
f 20/73/67 18/74/67 21/17/67
f 18/75/68 4/13/68 21/67/68
f 18/75/69 19/14/69 4/13/69
f 18/75/70 13/76/70 19/14/70
f 13/76/71 3/10/71 19/14/71
f 16/5/72 17/8/72 6/19/72
f 16/5/73 14/2/73 17/8/73
f 14/2/1 1/1/1 17/8/1
f 13/76/74 15/11/74 3/10/74
f 13/3/75 14/2/75 15/70/75
f 14/2/76 2/4/76 15/70/76
f 43/77/77 56/78/77 55/79/77
f 44/80/78 56/78/78 58/81/78
f 43/77/79 55/79/79 60/82/79
f 43/77/80 60/82/80 62/83/80
f 43/77/81 62/83/81 59/84/81
f 44/80/82 58/81/82 65/85/82
f 45/86/83 57/87/83 67/88/83
f 46/89/84 61/90/84 69/91/84
f 47/92/85 63/93/85 71/94/85
f 48/95/86 64/96/86 73/97/86
f 44/98/87 65/99/87 68/100/87
f 45/86/88 67/88/88 70/101/88
f 46/89/89 69/91/89 72/102/89
f 47/92/90 71/94/90 74/103/90
f 48/95/91 73/97/91 66/104/91
f 49/105/92 75/106/92 80/107/92
f 50/108/93 76/109/93 82/110/93
f 51/111/94 77/112/94 83/113/94
f 52/114/95 78/115/95 84/116/95
f 53/117/96 79/118/96 81/119/96
f 81/120/97 84/121/97 54/122/97
f 81/119/98 79/118/98 84/116/98
f 79/118/99 52/114/99 84/116/99
f 84/121/100 83/113/100 54/122/100
f 84/121/101 78/123/101 83/113/101
f 78/123/102 51/111/102 83/113/102
f 83/113/103 82/110/103 54/122/103
f 83/113/104 77/112/104 82/110/104
f 77/112/105 50/108/105 82/110/105
f 82/110/106 80/124/106 54/122/106
f 82/110/107 76/109/107 80/124/107
f 76/125/108 49/105/108 80/107/108
f 80/124/109 81/120/109 54/122/109
f 80/107/110 75/106/110 81/126/110
f 75/106/111 53/127/111 81/126/111
f 66/104/112 79/118/112 53/117/112
f 66/104/113 73/97/113 79/118/113
f 73/97/114 52/114/114 79/118/114
f 74/128/115 78/115/115 52/114/115
f 74/103/116 71/94/116 78/129/116
f 71/94/117 51/130/117 78/129/117
f 72/131/118 77/112/118 51/111/118
f 72/102/119 69/91/119 77/132/119
f 69/91/120 50/133/120 77/132/120
f 70/101/121 76/134/121 50/133/121
f 70/101/122 67/88/122 76/134/122
f 67/135/123 49/105/123 76/125/123
f 68/100/124 75/106/124 49/105/124
f 68/100/125 65/99/125 75/106/125
f 65/99/126 53/127/126 75/106/126
f 73/97/127 74/128/127 52/114/127
f 73/97/128 64/96/128 74/128/128
f 64/136/129 47/92/129 74/103/129
f 71/94/130 72/137/130 51/130/130
f 71/94/131 63/93/131 72/137/131
f 63/93/132 46/138/132 72/137/132
f 69/91/133 70/101/133 50/133/133
f 69/91/134 61/90/134 70/101/134
f 61/90/135 45/86/135 70/101/135
f 67/135/136 68/100/136 49/105/136
f 67/135/137 57/139/137 68/100/137
f 57/139/138 44/98/138 68/100/138
f 65/140/139 66/104/139 53/117/139
f 65/140/140 58/141/140 66/104/140
f 58/141/141 48/95/141 66/104/141
f 59/84/142 64/142/142 48/143/142
f 59/84/143 62/83/143 64/142/143
f 62/144/144 47/92/144 64/136/144
f 62/144/145 63/93/145 47/92/145
f 62/144/146 60/145/146 63/93/146
f 60/145/147 46/138/147 63/93/147
f 60/146/148 61/90/148 46/89/148
f 60/146/149 55/147/149 61/90/149
f 55/147/150 45/86/150 61/90/150
f 58/81/151 59/84/151 48/143/151
f 58/81/152 56/78/152 59/84/152
f 56/78/153 43/77/153 59/84/153
f 55/147/154 57/87/154 45/86/154
f 55/79/155 56/78/155 57/148/155
f 56/78/156 44/80/156 57/148/156
