# Blender v2.80 (sub 75) OBJ File: 'rock 2.blend'
# www.blender.org
mtllib rock 2.mtl
o Icosphere
v -0.464518 0.580133 -0.098614
v -0.070082 0.580130 -0.594509
v 0.421205 0.580130 -0.268808
v 0.001690 1.167966 0.532108
v -0.395855 1.167964 0.166483
v -0.246344 1.167965 -0.429214
v 0.129097 1.108029 -0.507276
v 0.041323 1.536235 0.162377
v -0.075881 0.072639 0.298167
v 0.198662 0.072639 0.184276
v 0.122782 0.346450 0.482445
v 0.397325 0.346451 0.000000
v 0.198662 0.072639 -0.184276
v -0.245560 0.072639 0.000000
v -0.321443 0.346451 0.298168
v -0.075881 0.072639 -0.298167
v -0.321443 0.346451 -0.298168
v 0.122782 0.346450 -0.482445
v 0.421205 0.580130 0.268808
v -0.070082 0.580130 0.594509
v 0.274546 0.757969 0.482448
v -0.444225 0.757969 0.184276
v -0.274546 0.757969 0.482448
v -0.274546 0.757969 -0.482448
v 0.274546 0.757969 -0.482448
v 0.321443 1.169487 0.298168
v 0.396900 1.167965 -0.162377
v 0.245560 1.423814 0.000000
v -0.198662 1.423816 0.184276
v -0.198662 1.423816 -0.184276
v 0.075881 1.423816 -0.298167
vt 0.669430 0.463483
vt 0.668637 0.465632
vt 0.667354 0.464811
vt 0.669140 0.468847
vt 0.667219 0.469568
vt 0.668114 0.467878
vt 0.667844 0.463483
vt 0.667576 0.461028
vt 0.666560 0.463049
vt 0.666560 0.461110
vt 0.669986 0.461827
vt 0.668637 0.461720
vt 0.669430 0.460289
vt 0.675327 0.470523
vt 0.674639 0.468358
vt 0.676012 0.469352
vt 0.673663 0.463966
vt 0.674813 0.462157
vt 0.675424 0.464489
vt 0.672503 0.460780
vt 0.670506 0.462410
vt 0.671219 0.460424
vt 0.672370 0.467808
vt 0.671872 0.470536
vt 0.671278 0.468742
vt 0.671366 0.465693
vt 0.670513 0.467026
vt 0.676187 0.463151
vt 0.677211 0.464146
vt 0.676639 0.461813
vt 0.670185 0.465632
vt 0.670001 0.468611
vt 0.670620 0.470123
vt 0.674988 0.465754
vt 0.677211 0.469967
vt 0.677112 0.468358
vt 0.675418 0.467028
vt 0.677211 0.466749
vt 0.672721 0.465632
vt 0.673486 0.467347
vt 0.673552 0.469261
vt 0.672894 0.470642
vt 0.672412 0.462739
vt 0.671699 0.464139
vt 0.673615 0.461542
vt 0.674988 0.460548
vt 0.673484 0.461855
vt 0.673552 0.463818
vt 0.669996 0.464681
vt 0.671396 0.465565
vt 0.668204 0.470961
vt 0.669633 0.470160
vt 0.668232 0.466496
vt 0.670001 0.467136
vt 0.673552 0.469352
vt 0.673552 0.467363
vt 0.672959 0.465632
vt 0.666539 0.467810
vt 0.669920 0.464811
vt 0.666629 0.470893
vn 0.0000 -1.0000 0.0000
vn 0.8567 -0.4245 0.2929
vn -0.9513 -0.2257 0.2101
vn -0.6271 -0.2577 -0.7351
vn 0.6863 -0.2531 -0.6818
vn 0.4708 0.5993 0.6474
vn -0.6125 0.4258 0.6660
vn -0.8962 0.3824 -0.2249
vn -0.0879 0.5396 -0.8373
vn 0.3474 0.9166 -0.1977
vn 0.6694 0.6378 -0.3810
vn 0.6423 0.4955 -0.5848
vn -0.1008 0.9648 -0.2431
vn -0.2770 0.6909 -0.6678
vn -0.4242 0.9056 0.0000
vn -0.7920 0.6105 0.0000
vn -0.2658 0.6971 0.6659
vn 0.6602 0.6461 0.3831
vn 0.8891 0.4344 0.1442
vn 0.8633 0.1243 -0.4892
vn 0.7393 0.2632 -0.6198
vn -0.1646 0.2210 -0.9613
vn -0.3758 0.1447 -0.9153
vn -0.9466 0.2177 -0.2376
vn -0.9931 0.1171 -0.0023
vn -0.6355 0.3445 0.6910
vn -0.3770 0.1432 0.9151
vn 0.5655 0.2825 0.7748
vn 0.8626 0.1216 0.4910
vn 0.9747 0.1571 0.1592
vn 0.2851 0.0506 -0.9572
vn 0.3692 -0.1362 -0.9193
vn -0.9104 0.1143 -0.3977
vn -0.8672 -0.1178 -0.4838
vn -0.8625 0.1231 0.4908
vn -0.8627 -0.1215 0.4909
vn -0.6271 -0.2577 0.7351
vn 0.2766 0.0680 0.9586
vn 0.3692 -0.1362 0.9193
vn 0.6863 -0.2531 0.6818
vn 0.9991 0.0413 0.0000
vn 0.9948 -0.1017 0.0000
vn 0.7209 -0.4093 -0.5593
vn 0.2849 -0.6688 -0.6867
vn -0.1072 -0.5004 -0.8591
vn -0.4866 -0.4364 -0.7568
vn -0.6855 -0.6148 -0.3901
vn -0.8959 -0.4166 -0.1545
vn -0.9202 -0.3755 0.1107
vn -0.6855 -0.6148 0.3901
vn -0.4866 -0.4364 0.7568
vn 0.8567 -0.4245 -0.2929
vn 0.8094 -0.5873 0.0000
vn -0.1072 -0.5004 0.8591
vn 0.2849 -0.6688 0.6867
vn 0.7209 -0.4093 0.5593
usemtl Material.001
s off
f 16/1/1 10/2/1 9/3/1
f 19/4/2 10/5/2 12/6/2
f 16/1/1 9/3/1 14/7/1
f 1/8/3 15/9/3 22/10/3
f 2/11/4 17/12/4 24/13/4
f 3/14/5 18/15/5 25/16/5
f 4/17/6 26/18/6 8/19/6
f 5/20/7 4/21/7 29/22/7
f 6/23/8 5/24/8 30/25/8
f 7/26/9 6/23/9 31/27/9
f 28/28/10 31/29/10 8/19/10
f 28/28/11 27/30/11 31/29/11
f 27/31/12 7/26/12 31/27/12
f 31/27/13 30/25/13 8/32/13
f 31/27/14 6/23/14 30/25/14
f 30/25/15 29/33/15 8/32/15
f 30/25/16 5/24/16 29/33/16
f 29/34/17 4/17/17 8/19/17
f 8/19/18 26/18/18 28/28/18
f 26/18/19 27/30/19 28/28/19
f 3/14/20 25/16/20 27/35/20
f 25/16/21 7/36/21 27/35/21
f 2/37/22 6/38/22 7/36/22
f 2/39/23 24/40/23 6/23/23
f 1/41/24 5/24/24 6/23/24
f 1/41/25 22/42/25 5/24/25
f 23/43/26 4/21/26 5/20/26
f 23/43/27 20/44/27 4/21/27
f 21/45/28 26/18/28 4/17/28
f 21/45/29 19/46/29 26/18/29
f 19/46/30 27/30/30 26/18/30
f 25/16/31 2/37/31 7/36/31
f 25/16/32 18/15/32 2/37/32
f 24/40/33 1/41/33 6/23/33
f 24/13/34 17/12/34 1/8/34
f 22/47/35 23/43/35 5/20/35
f 22/47/36 15/48/36 23/43/36
f 15/48/37 20/44/37 23/43/37
f 20/44/38 21/49/38 4/21/38
f 20/44/39 11/50/39 21/49/39
f 11/51/40 19/4/40 21/52/40
f 19/4/41 3/53/41 27/54/41
f 19/4/42 12/6/42 3/53/42
f 13/55/43 18/15/43 3/14/43
f 13/55/44 16/56/44 18/15/44
f 16/56/45 2/37/45 18/15/45
f 16/1/46 17/12/46 2/11/46
f 16/1/47 14/7/47 17/12/47
f 14/7/48 1/8/48 17/12/48
f 14/7/49 15/9/49 1/8/49
f 14/7/50 9/3/50 15/9/50
f 9/57/51 20/44/51 15/48/51
f 12/6/52 13/58/52 3/53/52
f 12/6/53 10/5/53 13/58/53
f 10/2/1 16/1/1 13/59/1
f 9/57/54 11/50/54 20/44/54
f 9/60/55 10/5/55 11/51/55
f 10/5/56 19/4/56 11/51/56
