# Blender v2.81 (sub 16) OBJ File: 'tire.blend'
# www.blender.org
mtllib tire.mtl
o Torus
v 0.000000 -1.250000 0.000000
v 0.353350 -1.176777 -0.000000
v 0.499712 -1.000000 -0.000000
v 0.353350 -0.823223 -0.000000
v 0.000000 -0.750000 -0.000000
v -0.353350 -0.823223 0.000000
v -0.499712 -1.000000 0.000000
v -0.353350 -1.176777 0.000000
v 0.000000 -1.188821 -0.386271
v 0.353350 -1.119181 -0.363644
v 0.499712 -0.951056 -0.309017
v 0.353350 -0.782932 -0.254390
v 0.000000 -0.713292 -0.231763
v -0.353350 -0.782932 -0.254390
v -0.499712 -0.951057 -0.309017
v -0.353350 -1.119181 -0.363644
v 0.000000 -1.011271 -0.734732
v 0.353350 -0.952032 -0.691692
v 0.499712 -0.809017 -0.587785
v 0.353350 -0.666002 -0.483879
v 0.000000 -0.606763 -0.440839
v -0.353350 -0.666002 -0.483878
v -0.499712 -0.809017 -0.587785
v -0.353350 -0.952032 -0.691692
v 0.000000 -0.734731 -1.011271
v 0.353350 -0.691692 -0.952032
v 0.499712 -0.587785 -0.809017
v 0.353350 -0.483878 -0.666002
v 0.000000 -0.440839 -0.606763
v -0.353350 -0.483878 -0.666002
v -0.499712 -0.587785 -0.809017
v -0.353350 -0.691692 -0.952032
v -0.000000 -0.386271 -1.188821
v 0.353350 -0.363644 -1.119181
v 0.499712 -0.309017 -0.951057
v 0.353350 -0.254390 -0.782932
v -0.000000 -0.231763 -0.713292
v -0.353350 -0.254390 -0.782932
v -0.499712 -0.309017 -0.951056
v -0.353350 -0.363644 -1.119181
v -0.000000 -0.000000 -1.250000
v 0.353350 -0.000000 -1.176777
v 0.499712 0.000000 -1.000000
v 0.353350 0.000000 -0.823223
v -0.000000 -0.000000 -0.750000
v -0.353350 -0.000000 -0.823223
v -0.499712 -0.000000 -1.000000
v -0.353350 -0.000000 -1.176777
v -0.000000 0.386271 -1.188821
v 0.353350 0.363644 -1.119181
v 0.499712 0.309017 -0.951057
v 0.353350 0.254390 -0.782932
v -0.000000 0.231763 -0.713292
v -0.353350 0.254390 -0.782932
v -0.499712 0.309017 -0.951056
v -0.353350 0.363644 -1.119181
v -0.000000 0.734732 -1.011271
v 0.353350 0.691692 -0.952032
v 0.499712 0.587786 -0.809017
v 0.353350 0.483879 -0.666002
v -0.000000 0.440839 -0.606763
v -0.353350 0.483879 -0.666001
v -0.499712 0.587785 -0.809017
v -0.353350 0.691692 -0.952032
v -0.000000 1.011271 -0.734731
v 0.353350 0.952033 -0.691692
v 0.499712 0.809017 -0.587785
v 0.353350 0.666002 -0.483878
v -0.000000 0.606763 -0.440839
v -0.353350 0.666002 -0.483878
v -0.499712 0.809017 -0.587785
v -0.353350 0.952032 -0.691692
v -0.000000 1.188821 -0.386271
v 0.353350 1.119181 -0.363644
v 0.499712 0.951057 -0.309017
v 0.353350 0.782932 -0.254390
v -0.000000 0.713292 -0.231763
v -0.353350 0.782932 -0.254390
v -0.499712 0.951056 -0.309017
v -0.353350 1.119181 -0.363644
v -0.000000 1.250000 -0.000000
v 0.353350 1.176777 -0.000000
v 0.499712 1.000000 -0.000000
v 0.353350 0.823223 -0.000000
v -0.000000 0.750000 -0.000000
v -0.353350 0.823223 -0.000000
v -0.499712 1.000000 -0.000000
v -0.353350 1.176777 -0.000000
v -0.000000 1.188821 0.386271
v 0.353350 1.119181 0.363643
v 0.499712 0.951057 0.309017
v 0.353350 0.782932 0.254390
v -0.000000 0.713292 0.231762
v -0.353350 0.782932 0.254390
v -0.499712 0.951057 0.309017
v -0.353350 1.119181 0.363644
v -0.000000 1.011271 0.734731
v 0.353350 0.952033 0.691692
v 0.499712 0.809017 0.587785
v 0.353350 0.666002 0.483878
v -0.000000 0.606763 0.440839
v -0.353350 0.666002 0.483878
v -0.499712 0.809017 0.587785
v -0.353350 0.952032 0.691692
v -0.000000 0.734732 1.011271
v 0.353350 0.691692 0.952032
v 0.499712 0.587786 0.809017
v 0.353350 0.483879 0.666001
v -0.000000 0.440839 0.606763
v -0.353350 0.483879 0.666002
v -0.499712 0.587785 0.809017
v -0.353350 0.691692 0.952032
v 0.000000 0.386271 1.188821
v 0.353350 0.363644 1.119181
v 0.499712 0.309017 0.951056
v 0.353350 0.254390 0.782932
v 0.000000 0.231763 0.713292
v -0.353350 0.254390 0.782932
v -0.499712 0.309017 0.951057
v -0.353350 0.363644 1.119181
v 0.000000 -0.000000 1.250000
v 0.353350 -0.000000 1.176777
v 0.499712 0.000000 1.000000
v 0.353350 0.000000 0.823223
v 0.000000 -0.000000 0.750000
v -0.353350 -0.000000 0.823223
v -0.499712 -0.000000 1.000000
v -0.353350 -0.000000 1.176777
v 0.000000 -0.386271 1.188821
v 0.353350 -0.363644 1.119181
v 0.499712 -0.309017 0.951056
v 0.353350 -0.254390 0.782932
v 0.000000 -0.231763 0.713292
v -0.353350 -0.254390 0.782932
v -0.499712 -0.309017 0.951057
v -0.353350 -0.363644 1.119181
v 0.000000 -0.734731 1.011272
v 0.353350 -0.691691 0.952033
v 0.499712 -0.587785 0.809017
v 0.353350 -0.483878 0.666002
v 0.000000 -0.440839 0.606763
v -0.353350 -0.483878 0.666002
v -0.499712 -0.587785 0.809017
v -0.353350 -0.691691 0.952033
v 0.000000 -1.011271 0.734732
v 0.353350 -0.952032 0.691692
v 0.499712 -0.809017 0.587786
v 0.353350 -0.666001 0.483879
v 0.000000 -0.606763 0.440839
v -0.353350 -0.666001 0.483879
v -0.499712 -0.809017 0.587786
v -0.353350 -0.952032 0.691692
v 0.000000 -1.188820 0.386272
v 0.353350 -1.119181 0.363644
v 0.499712 -0.951056 0.309017
v 0.353350 -0.782932 0.254390
v 0.000000 -0.713292 0.231763
v -0.353350 -0.782932 0.254390
v -0.499712 -0.951057 0.309017
v -0.353350 -1.119181 0.363644
vt 0.653899 0.446680
vt 0.653625 0.446040
vt 0.653939 0.446040
vt 0.651118 0.450542
vt 0.651049 0.449895
vt 0.651299 0.449943
vt 0.650895 0.450405
vt 0.650743 0.449848
vt 0.649757 0.446000
vt 0.650029 0.446439
vt 0.649808 0.446419
vt 0.649983 0.446057
vt 0.650342 0.446419
vt 0.654320 0.448987
vt 0.654697 0.449359
vt 0.654447 0.449407
vt 0.654543 0.448850
vt 0.655004 0.449312
vt 0.654158 0.446006
vt 0.653785 0.447231
vt 0.653588 0.446643
vt 0.650773 0.451052
vt 0.650602 0.450838
vt 0.650616 0.450267
vt 0.651410 0.445615
vt 0.650981 0.445492
vt 0.651263 0.445364
vt 0.649894 0.445731
vt 0.650291 0.446000
vt 0.654079 0.448630
vt 0.654250 0.448416
vt 0.654822 0.448712
vt 0.654326 0.447162
vt 0.654452 0.447637
vt 0.654158 0.447544
vt 0.653606 0.447637
vt 0.653480 0.447162
vt 0.650298 0.451423
vt 0.650042 0.450884
vt 0.650375 0.450624
vt 0.651525 0.445966
vt 0.651115 0.445721
vt 0.649773 0.445495
vt 0.650194 0.445643
vt 0.653747 0.448371
vt 0.654003 0.447832
vt 0.654478 0.448202
vt 0.654434 0.446643
vt 0.654631 0.447231
vt 0.654785 0.446040
vt 0.654967 0.446609
vt 0.654745 0.446680
vt 0.649740 0.451618
vt 0.650198 0.451153
vt 0.649652 0.451020
vt 0.651598 0.446382
vt 0.651220 0.446040
vt 0.651286 0.446419
vt 0.650992 0.445997
vt 0.653357 0.448235
vt 0.653847 0.448101
vt 0.653373 0.447936
vt 0.654471 0.446040
vt 0.654745 0.445371
vt 0.655004 0.446006
vt 0.649153 0.451618
vt 0.649724 0.451319
vt 0.649226 0.451319
vt 0.651621 0.446822
vt 0.651088 0.446853
vt 0.651065 0.446413
vt 0.652874 0.447936
vt 0.652858 0.447637
vt 0.653445 0.447637
vt 0.654631 0.444740
vt 0.654967 0.445376
vt 0.648595 0.451423
vt 0.648751 0.451153
vt 0.649242 0.451020
vt 0.651592 0.447244
vt 0.651307 0.446821
vt 0.651281 0.447205
vt 0.652556 0.448371
vt 0.652946 0.448235
vt 0.652300 0.447832
vt 0.654434 0.445411
vt 0.654452 0.444209
vt 0.654859 0.444783
vt 0.648348 0.450838
vt 0.648851 0.450884
vt 0.651514 0.447606
vt 0.651210 0.447535
vt 0.651059 0.447275
vt 0.652224 0.448630
vt 0.652400 0.448101
vt 0.651996 0.448416
vt 0.654326 0.444817
vt 0.647604 0.450599
vt 0.648121 0.451052
vt 0.647970 0.451141
vt 0.647776 0.450542
vt 0.648055 0.450405
vt 0.648519 0.450624
vt 0.649224 0.447280
vt 0.649620 0.447548
vt 0.649320 0.447637
vt 0.652154 0.449044
vt 0.652374 0.448719
vt 0.651982 0.448987
vt 0.651703 0.448850
vt 0.651825 0.448202
vt 0.651789 0.447029
vt 0.651915 0.447637
vt 0.651621 0.447529
vt 0.652208 0.446474
vt 0.652322 0.447063
vt 0.652093 0.447105
vt 0.647595 0.449943
vt 0.647901 0.449895
vt 0.648278 0.450267
vt 0.649173 0.446860
vt 0.649532 0.447223
vt 0.649706 0.446860
vt 0.649757 0.447280
vt 0.651856 0.449407
vt 0.651299 0.449312
vt 0.651480 0.448712
vt 0.651897 0.446435
vt 0.652247 0.445806
vt 0.652429 0.446469
vt 0.647595 0.449312
vt 0.648151 0.449407
vt 0.648151 0.449848
vt 0.649173 0.446419
vt 0.649486 0.446841
vt 0.649486 0.446439
vt 0.651856 0.449848
vt 0.651549 0.449359
vt 0.651549 0.449895
vt 0.651934 0.445805
vt 0.652208 0.445165
vt 0.652466 0.445840
vt 0.648055 0.448850
vt 0.647901 0.449359
vt 0.649224 0.446000
vt 0.649757 0.446000
vt 0.649706 0.446419
vt 0.651703 0.450405
vt 0.651299 0.449943
vt 0.651897 0.445202
vt 0.652939 0.444615
vt 0.652466 0.444302
vt 0.652761 0.444209
vt 0.648121 0.448202
vt 0.647776 0.448712
vt 0.648348 0.448416
vt 0.648278 0.448987
vt 0.649320 0.445643
vt 0.649532 0.446057
vt 0.650475 0.447280
vt 0.650624 0.447637
vt 0.650342 0.447509
vt 0.652224 0.450624
vt 0.651982 0.450267
vt 0.651996 0.450838
vt 0.651480 0.450542
vt 0.651789 0.444684
vt 0.653054 0.445165
vt 0.652635 0.444684
vt 0.648595 0.447832
vt 0.648751 0.448101
vt 0.648519 0.448630
vt 0.649453 0.445383
vt 0.649620 0.445731
vt 0.650580 0.446960
vt 0.650770 0.447385
vt 0.652556 0.450884
vt 0.652400 0.451153
vt 0.651825 0.451052
vt 0.651915 0.444209
vt 0.652093 0.444615
vt 0.652779 0.445805
vt 0.652742 0.445202
vt 0.649153 0.447637
vt 0.649242 0.448235
vt 0.648851 0.448371
vt 0.650425 0.446588
vt 0.650352 0.447004
vt 0.650647 0.446581
vt 0.650885 0.447035
vt 0.652946 0.451020
vt 0.652874 0.451319
vt 0.652300 0.451423
vt 0.653312 0.445840
vt 0.653275 0.445236
vt 0.653054 0.446474
vt 0.653093 0.445806
vt 0.649724 0.447936
vt 0.649226 0.447936
vt 0.650448 0.446148
vt 0.650981 0.446178
vt 0.650958 0.446619
vt 0.653357 0.451020
vt 0.653373 0.451319
vt 0.652858 0.451618
vt 0.653275 0.446469
vt 0.652939 0.447105
vt 0.652742 0.446435
vt 0.650298 0.447832
vt 0.649740 0.447637
vt 0.650198 0.448101
vt 0.649652 0.448235
vt 0.650420 0.445726
vt 0.650668 0.446180
vt 0.650642 0.445796
vt 0.653747 0.450884
vt 0.653847 0.451153
vt 0.653445 0.451618
vt 0.652761 0.447637
vt 0.652635 0.447029
vt 0.650773 0.448202
vt 0.650375 0.448630
vt 0.650042 0.448371
vt 0.650342 0.445364
vt 0.650875 0.445394
vt 0.650953 0.445756
vt 0.654079 0.450624
vt 0.654250 0.450838
vt 0.654003 0.451423
vt 0.653167 0.447063
vt 0.653785 0.444740
vt 0.653312 0.444317
vt 0.653606 0.444209
vt 0.651118 0.448712
vt 0.650602 0.448416
vt 0.650616 0.448987
vt 0.650224 0.448719
vt 0.649983 0.447223
vt 0.650194 0.447637
vt 0.649894 0.447548
vt 0.654320 0.450267
vt 0.654543 0.450405
vt 0.654478 0.451052
vt 0.654822 0.450542
vt 0.654628 0.451141
vt 0.653899 0.445371
vt 0.653480 0.444817
vt 0.651049 0.449359
vt 0.650895 0.448850
vt 0.650743 0.449407
vt 0.649808 0.446860
vt 0.649757 0.447280
vt 0.650029 0.446841
vt 0.650291 0.447280
vt 0.654447 0.449848
vt 0.654697 0.449895
vt 0.654121 0.445376
vt 0.654013 0.444783
vt 0.653588 0.445411
vt 0.651299 0.449312
vt 0.650342 0.446860
vt 0.655004 0.449943
vt 0.654121 0.446609
vt 0.653312 0.447544
vt 0.650061 0.445383
vt 0.654691 0.444282
vt 0.650981 0.447637
vt 0.654158 0.444317
vt 0.652429 0.445236
vt 0.649741 0.445495
vt 0.651621 0.444302
vt 0.652466 0.447529
vt 0.650571 0.445466
vt 0.652999 0.447563
vt 0.650444 0.449044
vt 0.654994 0.450599
vn 0.2005 -0.9676 -0.1533
vn 0.7664 -0.6345 -0.1005
vn 0.7664 0.6345 0.1005
vn 0.2005 0.9676 0.1533
vn -0.2005 0.9676 0.1533
vn -0.7664 0.6345 0.1005
vn -0.7664 -0.6345 -0.1005
vn -0.2005 -0.9676 -0.1533
vn 0.2005 -0.8729 -0.4448
vn 0.7664 -0.5724 -0.2917
vn 0.7664 0.5724 0.2917
vn 0.2005 0.8729 0.4448
vn -0.2005 0.8729 0.4448
vn -0.7664 0.5724 0.2917
vn -0.7664 -0.5724 -0.2917
vn -0.2005 -0.8729 -0.4448
vn 0.2005 -0.6927 -0.6927
vn 0.7664 -0.4543 -0.4543
vn 0.7664 0.4543 0.4543
vn 0.2005 0.6927 0.6927
vn -0.2005 0.6927 0.6927
vn -0.7664 0.4543 0.4543
vn -0.7664 -0.4543 -0.4543
vn -0.2005 -0.6927 -0.6927
vn 0.2005 -0.4448 -0.8729
vn 0.7664 -0.2917 -0.5724
vn 0.7664 0.2917 0.5724
vn 0.2005 0.4448 0.8729
vn -0.2005 0.4448 0.8729
vn -0.7664 0.2916 0.5724
vn -0.7664 -0.2917 -0.5724
vn -0.2005 -0.4448 -0.8729
vn 0.2005 -0.1533 -0.9676
vn 0.7664 -0.1005 -0.6345
vn 0.7664 0.1005 0.6345
vn 0.2005 0.1533 0.9676
vn -0.2005 0.1533 0.9676
vn -0.7664 0.1005 0.6345
vn -0.7664 -0.1005 -0.6345
vn -0.2005 -0.1533 -0.9676
vn 0.2005 0.1533 -0.9676
vn 0.7664 0.1005 -0.6345
vn 0.7664 -0.1005 0.6345
vn 0.2005 -0.1533 0.9676
vn -0.2005 -0.1533 0.9676
vn -0.7664 -0.1005 0.6345
vn -0.7664 0.1005 -0.6345
vn -0.2005 0.1533 -0.9676
vn 0.2005 0.4448 -0.8729
vn 0.7664 0.2917 -0.5724
vn 0.7664 -0.2917 0.5724
vn 0.2005 -0.4448 0.8729
vn -0.2005 -0.4448 0.8729
vn -0.7664 -0.2917 0.5724
vn -0.7664 0.2916 -0.5724
vn -0.2005 0.4448 -0.8729
vn 0.2005 0.6927 -0.6927
vn 0.7664 0.4543 -0.4543
vn 0.7664 -0.4543 0.4543
vn 0.2005 -0.6927 0.6927
vn -0.2005 -0.6927 0.6927
vn -0.7664 -0.4543 0.4543
vn -0.7664 0.4543 -0.4543
vn -0.2005 0.6927 -0.6927
vn 0.2005 0.8729 -0.4448
vn 0.7664 0.5724 -0.2917
vn 0.7664 -0.5724 0.2916
vn 0.2005 -0.8729 0.4448
vn -0.2005 -0.8729 0.4448
vn -0.7664 -0.5724 0.2917
vn -0.7664 0.5724 -0.2916
vn -0.2005 0.8729 -0.4448
vn 0.2005 0.9676 -0.1533
vn 0.7664 0.6345 -0.1005
vn 0.7664 -0.6345 0.1005
vn 0.2005 -0.9676 0.1533
vn -0.2005 -0.9676 0.1533
vn -0.7664 -0.6345 0.1005
vn -0.7664 0.6345 -0.1005
vn -0.2005 0.9676 -0.1533
vn 0.7664 -0.5724 -0.2916
vn -0.7664 0.5724 0.2916
vn -0.7664 0.2917 0.5724
vn 0.7664 -0.2916 0.5724
vn 0.7664 -0.5724 0.2917
vn -0.7664 0.5724 -0.2917
vn 0.7664 0.5724 0.2916
vn -0.7664 -0.5724 -0.2916
vn -0.7664 0.2917 -0.5724
vn 0.7664 0.5724 -0.2916
usemtl Material.001
s off
f 9/1/1 2/2/1 1/3/1
f 10/4/2 3/5/2 2/6/2
f 11/7/3 4/8/3 3/5/3
f 12/9/4 5/10/4 4/11/4
f 13/12/5 6/13/5 5/10/5
f 14/14/6 7/15/6 6/16/6
f 15/17/7 8/18/7 7/15/7
f 8/19/8 9/1/8 1/3/8
f 17/20/9 10/21/9 9/1/9
f 18/22/10 11/7/10 10/4/10
f 19/23/11 12/24/11 11/7/11
f 20/25/12 13/26/12 12/27/12
f 21/28/13 14/29/13 13/12/13
f 22/30/14 15/17/14 14/14/14
f 23/31/15 16/32/15 15/17/15
f 24/33/16 9/34/16 16/35/16
f 25/36/17 18/37/17 17/20/17
f 26/38/18 19/23/18 18/22/18
f 19/23/19 28/39/19 20/40/19
f 28/41/20 21/42/20 20/25/20
f 29/43/21 22/44/21 21/28/21
f 30/45/22 23/31/22 22/30/22
f 23/31/23 32/46/23 24/47/23
f 32/48/24 17/49/24 24/33/24
f 33/50/25 26/51/25 25/52/25
f 34/53/26 27/54/26 26/38/26
f 27/54/27 36/55/27 28/39/27
f 36/56/28 29/57/28 28/41/28
f 37/58/29 30/59/29 29/57/29
f 38/60/30 31/61/30 30/45/30
f 39/62/31 32/46/31 31/61/31
f 40/63/32 25/52/32 32/48/32
f 41/64/33 34/65/33 33/50/33
f 42/66/34 35/67/34 34/53/34
f 43/68/35 36/55/35 35/67/35
f 44/69/36 37/58/36 36/56/36
f 37/58/37 46/70/37 38/71/37
f 38/60/38 47/72/38 39/62/38
f 39/62/39 48/73/39 40/74/39
f 40/63/40 41/64/40 33/50/40
f 49/75/41 42/76/41 41/64/41
f 50/77/42 43/68/42 42/66/42
f 51/78/43 44/79/43 43/68/43
f 52/80/44 45/81/44 44/69/44
f 53/82/45 46/70/45 45/81/45
f 54/83/46 47/72/46 46/84/46
f 47/72/47 56/85/47 48/73/47
f 48/86/48 49/75/48 41/64/48
f 57/87/49 50/88/49 49/75/49
f 50/77/50 59/89/50 51/78/50
f 59/89/51 52/90/51 51/78/51
f 60/91/52 53/82/52 52/80/52
f 61/92/53 54/93/53 53/82/53
f 62/94/54 55/95/54 54/83/54
f 63/96/55 56/85/55 55/95/55
f 56/97/56 57/87/56 49/75/56
f 65/98/57 58/99/57 57/100/57
f 66/101/58 59/89/58 58/99/58
f 67/102/59 60/103/59 59/89/59
f 68/104/60 61/105/60 60/106/60
f 69/107/61 62/94/61 61/108/61
f 70/109/62 63/96/62 62/94/62
f 71/110/63 64/111/63 63/96/63
f 72/112/64 57/113/64 64/114/64
f 73/115/65 66/116/65 65/117/65
f 74/118/66 67/102/66 66/101/66
f 75/119/67 68/120/67 67/102/67
f 76/121/68 69/122/68 68/104/68
f 69/122/69 78/123/69 70/124/69
f 78/125/70 71/110/70 70/109/70
f 71/110/71 80/126/71 72/127/71
f 80/128/72 65/117/72 72/112/72
f 81/129/73 74/130/73 73/115/73
f 82/131/74 75/119/74 74/118/74
f 75/119/75 84/132/75 76/133/75
f 84/134/76 77/135/76 76/121/76
f 85/136/77 78/123/77 77/135/77
f 86/137/78 79/138/78 78/125/78
f 87/139/79 80/126/79 79/138/79
f 88/140/80 73/115/80 80/128/80
f 89/141/4 82/142/4 81/129/4
f 82/131/3 91/143/3 83/144/3
f 91/143/2 84/132/2 83/144/2
f 92/145/1 85/136/1 84/134/1
f 85/136/8 94/146/8 86/147/8
f 86/137/7 95/148/7 87/139/7
f 95/148/6 88/149/6 87/139/6
f 96/150/5 81/129/5 88/140/5
f 97/151/12 90/152/12 89/153/12
f 98/154/11 91/143/11 90/155/11
f 99/156/81 92/157/81 91/143/81
f 100/158/9 93/159/9 92/145/9
f 101/160/16 94/161/16 93/162/16
f 102/163/15 95/148/15 94/164/15
f 103/165/82 96/166/82 95/148/82
f 104/167/13 89/141/13 96/150/13
f 105/168/20 98/169/20 97/151/20
f 106/170/19 99/156/19 98/154/19
f 107/171/18 100/172/18 99/156/18
f 108/173/17 101/174/17 100/158/17
f 109/175/24 102/176/24 101/160/24
f 110/177/23 103/165/23 102/163/23
f 111/178/22 104/179/22 103/165/22
f 104/167/21 105/180/21 97/181/21
f 105/168/28 114/182/28 106/183/28
f 114/184/27 107/171/27 106/170/27
f 107/171/26 116/185/26 108/186/26
f 116/187/25 109/175/25 108/188/25
f 117/189/32 110/190/32 109/175/32
f 118/191/31 111/178/31 110/177/31
f 119/192/83 112/193/83 111/178/83
f 120/194/29 105/168/29 112/195/29
f 121/196/36 114/182/36 113/197/36
f 114/184/35 123/198/35 115/199/35
f 123/198/34 116/185/34 115/199/34
f 124/200/33 117/189/33 116/187/33
f 117/189/40 126/201/40 118/202/40
f 126/203/39 119/192/39 118/191/39
f 127/204/38 120/205/38 119/192/38
f 128/206/37 113/197/37 120/194/37
f 129/207/44 122/208/44 121/196/44
f 130/209/43 123/198/43 122/210/43
f 131/211/42 124/212/42 123/198/42
f 132/213/41 125/214/41 124/200/41
f 133/215/48 126/201/48 125/214/48
f 134/216/47 127/204/47 126/203/47
f 135/217/46 128/218/46 127/204/46
f 128/206/45 129/207/45 121/196/45
f 137/219/52 130/220/52 129/207/52
f 138/221/84 131/211/84 130/209/84
f 131/211/50 140/222/50 132/223/50
f 140/224/49 133/215/49 132/213/49
f 133/215/56 142/225/56 134/226/56
f 142/227/55 135/217/55 134/216/55
f 143/228/54 136/229/54 135/217/54
f 136/230/53 137/219/53 129/207/53
f 145/231/60 138/232/60 137/233/60
f 146/234/59 139/235/59 138/221/59
f 139/235/58 148/236/58 140/222/58
f 148/236/57 141/237/57 140/222/57
f 149/238/64 142/239/64 141/240/64
f 150/241/63 143/228/63 142/227/63
f 151/242/62 144/243/62 143/228/62
f 152/244/61 137/245/61 144/243/61
f 153/246/68 146/247/68 145/231/68
f 146/234/85 155/248/85 147/249/85
f 147/249/66 156/250/66 148/236/66
f 156/251/65 149/238/65 148/252/65
f 157/253/72 150/254/72 149/238/72
f 158/255/86 151/242/86 150/241/86
f 159/256/70 152/244/70 151/242/70
f 160/257/69 145/231/69 152/258/69
f 1/3/76 154/259/76 153/246/76
f 2/6/75 155/248/75 154/260/75
f 3/5/74 156/250/74 155/248/74
f 4/11/73 157/253/73 156/251/73
f 157/253/80 6/13/80 158/261/80
f 6/16/79 159/256/79 158/255/79
f 7/15/78 160/262/78 159/256/78
f 8/19/77 153/246/77 160/257/77
f 9/1/1 10/21/1 2/2/1
f 10/4/2 11/7/2 3/5/2
f 11/7/3 12/24/3 4/8/3
f 12/9/4 13/12/4 5/10/4
f 13/12/5 14/29/5 6/13/5
f 14/14/6 15/17/6 7/15/6
f 15/17/7 16/32/7 8/18/7
f 8/19/8 16/263/8 9/1/8
f 17/20/9 18/37/9 10/21/9
f 18/22/81 19/23/81 11/7/81
f 19/23/87 20/40/87 12/24/87
f 20/25/12 21/42/12 13/26/12
f 21/28/13 22/44/13 14/29/13
f 22/30/14 23/31/14 15/17/14
f 23/31/88 24/47/88 16/32/88
f 24/33/16 17/49/16 9/34/16
f 25/36/17 26/264/17 18/37/17
f 26/38/18 27/54/18 19/23/18
f 19/23/19 27/54/19 28/39/19
f 28/41/20 29/57/20 21/42/20
f 29/43/21 30/265/21 22/44/21
f 30/45/22 31/61/22 23/31/22
f 23/31/23 31/61/23 32/46/23
f 32/48/24 25/52/24 17/49/24
f 33/50/25 34/65/25 26/51/25
f 34/53/26 35/67/26 27/54/26
f 27/54/27 35/67/27 36/55/27
f 36/56/28 37/58/28 29/57/28
f 37/58/29 38/71/29 30/59/29
f 38/60/83 39/62/83 31/61/83
f 39/62/31 40/74/31 32/46/31
f 40/63/32 33/50/32 25/52/32
f 41/64/33 42/76/33 34/65/33
f 42/66/34 43/68/34 35/67/34
f 43/68/35 44/79/35 36/55/35
f 44/69/36 45/81/36 37/58/36
f 37/58/37 45/81/37 46/70/37
f 38/60/38 46/84/38 47/72/38
f 39/62/39 47/72/39 48/73/39
f 40/63/40 48/86/40 41/64/40
f 49/75/41 50/88/41 42/76/41
f 50/77/42 51/78/42 43/68/42
f 51/78/43 52/90/43 44/79/43
f 52/80/44 53/82/44 45/81/44
f 53/82/45 54/93/45 46/70/45
f 54/83/46 55/95/46 47/72/46
f 47/72/47 55/95/47 56/85/47
f 48/86/48 56/97/48 49/75/48
f 57/87/49 58/266/49 50/88/49
f 50/77/50 58/99/50 59/89/50
f 59/89/51 60/103/51 52/90/51
f 60/91/52 61/92/52 53/82/52
f 61/92/53 62/267/53 54/93/53
f 62/94/54 63/96/54 55/95/54
f 63/96/89 64/111/89 56/85/89
f 56/97/56 64/268/56 57/87/56
f 65/98/57 66/101/57 58/99/57
f 66/101/58 67/102/58 59/89/58
f 67/102/59 68/120/59 60/103/59
f 68/104/60 69/122/60 61/105/60
f 69/107/61 70/109/61 62/94/61
f 70/109/62 71/110/62 63/96/62
f 71/110/63 72/127/63 64/111/63
f 72/112/64 65/117/64 57/113/64
f 73/115/65 74/130/65 66/116/65
f 74/118/90 75/119/90 67/102/90
f 75/119/67 76/133/67 68/120/67
f 76/121/68 77/135/68 69/122/68
f 69/122/69 77/135/69 78/123/69
f 78/125/70 79/138/70 71/110/70
f 71/110/71 79/138/71 80/126/71
f 80/128/72 73/115/72 65/117/72
f 81/129/73 82/142/73 74/130/73
f 82/131/74 83/144/74 75/119/74
f 75/119/75 83/144/75 84/132/75
f 84/134/76 85/136/76 77/135/76
f 85/136/77 86/147/77 78/123/77
f 86/137/78 87/139/78 79/138/78
f 87/139/79 88/149/79 80/126/79
f 88/140/80 81/129/80 73/115/80
f 89/141/4 90/269/4 82/142/4
f 82/131/3 90/155/3 91/143/3
f 91/143/2 92/157/2 84/132/2
f 92/145/1 93/159/1 85/136/1
f 85/136/8 93/159/8 94/146/8
f 86/137/7 94/164/7 95/148/7
f 95/148/6 96/166/6 88/149/6
f 96/150/5 89/141/5 81/129/5
f 97/151/12 98/169/12 90/152/12
f 98/154/87 99/156/87 91/143/87
f 99/156/81 100/172/81 92/157/81
f 100/158/9 101/174/9 93/159/9
f 101/160/16 102/176/16 94/161/16
f 102/163/88 103/165/88 95/148/88
f 103/165/82 104/179/82 96/166/82
f 104/167/13 97/181/13 89/141/13
f 105/168/20 106/183/20 98/169/20
f 106/170/19 107/171/19 99/156/19
f 107/171/18 108/186/18 100/172/18
f 108/173/17 109/270/17 101/174/17
f 109/175/24 110/190/24 102/176/24
f 110/177/23 111/178/23 103/165/23
f 111/178/22 112/193/22 104/179/22
f 104/167/21 112/271/21 105/180/21
f 105/168/28 113/197/28 114/182/28
f 114/184/27 115/199/27 107/171/27
f 107/171/26 115/199/26 116/185/26
f 116/187/25 117/189/25 109/175/25
f 117/189/32 118/202/32 110/190/32
f 118/191/31 119/192/31 111/178/31
f 119/192/30 120/205/30 112/193/30
f 120/194/29 113/197/29 105/168/29
f 121/196/36 122/208/36 114/182/36
f 114/184/35 122/210/35 123/198/35
f 123/198/34 124/212/34 116/185/34
f 124/200/33 125/214/33 117/189/33
f 117/189/40 125/214/40 126/201/40
f 126/203/39 127/204/39 119/192/39
f 127/204/38 128/218/38 120/205/38
f 128/206/37 121/196/37 113/197/37
f 129/207/44 130/220/44 122/208/44
f 130/209/43 131/211/43 123/198/43
f 131/211/42 132/223/42 124/212/42
f 132/213/41 133/215/41 125/214/41
f 133/215/48 134/226/48 126/201/48
f 134/216/47 135/217/47 127/204/47
f 135/217/46 136/229/46 128/218/46
f 128/206/45 136/230/45 129/207/45
f 137/219/52 138/272/52 130/220/52
f 138/221/51 139/235/51 131/211/51
f 131/211/50 139/235/50 140/222/50
f 140/224/49 141/273/49 133/215/49
f 133/215/56 141/273/56 142/225/56
f 142/227/89 143/228/89 135/217/89
f 143/228/54 144/243/54 136/229/54
f 136/230/53 144/274/53 137/219/53
f 145/231/60 146/247/60 138/232/60
f 146/234/59 147/249/59 139/235/59
f 139/235/58 147/249/58 148/236/58
f 148/236/57 149/275/57 141/237/57
f 149/238/64 150/254/64 142/239/64
f 150/241/63 151/242/63 143/228/63
f 151/242/62 152/244/62 144/243/62
f 152/244/61 145/276/61 137/245/61
f 153/246/68 154/259/68 146/247/68
f 146/234/85 154/260/85 155/248/85
f 147/249/66 155/248/66 156/250/66
f 156/251/65 157/253/65 149/238/65
f 157/253/72 158/261/72 150/254/72
f 158/255/86 159/256/86 151/242/86
f 159/256/70 160/262/70 152/244/70
f 160/257/69 153/246/69 145/231/69
f 1/3/76 2/2/76 154/259/76
f 2/6/75 3/5/75 155/248/75
f 3/5/74 4/8/74 156/250/74
f 4/11/73 5/10/73 157/253/73
f 157/253/80 5/10/80 6/13/80
f 6/16/79 7/15/79 159/256/79
f 7/15/78 8/18/78 160/262/78
f 8/19/77 1/3/77 153/246/77
