# Blender v2.80 (sub 75) OBJ File: 'tree.blend'
# www.blender.org
mtllib tree.mtl
o Cylinder
v -0.000000 0.519790 -2.533912
v 1.275970 0.798589 -1.756222
v 0.000000 9.068542 0.000000
v 2.409894 0.519790 -0.783022
v 2.064562 0.798589 0.670817
v 1.489396 0.519790 2.049978
v -0.000000 0.798589 2.170809
v -1.489397 0.519790 2.049978
v -2.064562 0.798589 0.670817
v -2.409894 0.519790 -0.783022
v -1.275969 0.798589 -1.756222
v 0.000000 2.415774 -1.752331
v -0.000000 3.573212 -1.641510
v -0.000001 5.252024 -1.016291
v -0.000000 6.450488 -0.789714
v 0.000000 8.076050 -0.373966
v 0.278102 7.852272 -0.382775
v 0.392030 6.640951 -0.539583
v 0.720297 4.997691 -0.991403
v 0.812898 3.837035 -1.118858
v 1.207929 2.153937 -1.662571
v 0.355663 8.076049 -0.115561
v 0.751062 6.450488 -0.244035
v 0.966555 5.252014 -0.314053
v 1.561168 3.573211 -0.507254
v 1.666550 2.415811 -0.541495
v 0.449980 7.852273 0.146207
v 0.634325 6.640934 0.206105
v 1.165450 4.997720 0.378678
v 1.315305 3.837016 0.427368
v 1.954470 2.153938 0.635046
v 0.219812 8.076049 0.302545
v 0.464182 6.450488 0.638892
v 0.597366 5.252005 0.822204
v 0.964855 3.573211 1.328009
v 1.029999 2.415755 1.417672
v 0.000000 7.852272 0.473136
v 0.000000 6.640934 0.666969
v -0.000000 4.997710 1.225431
v 0.000000 3.837034 1.382985
v -0.000000 2.153938 2.055051
v -0.219812 8.076049 0.302545
v -0.464182 6.450488 0.638892
v -0.597371 5.251988 0.822211
v -0.964856 3.573211 1.328009
v -1.029985 2.415810 1.417652
v -0.449979 7.852272 0.146207
v -0.634322 6.640942 0.206103
v -1.165455 4.997710 0.378679
v -1.315301 3.837026 0.427367
v -1.954470 2.153938 0.635046
v -0.355663 8.076049 -0.115562
v -0.751062 6.450488 -0.244035
v -0.966555 5.252014 -0.314053
v -1.561169 3.573211 -0.507254
v -1.666563 2.415782 -0.541498
v -0.278102 7.852272 -0.382775
v -0.392032 6.640943 -0.539586
v -0.720299 4.997681 -0.991407
v -0.812900 3.837024 -1.118863
v -1.207928 2.153938 -1.662571
v 0.617640 3.862250 -0.850109
v 1.465830 2.861781 -0.476277
v 0.999364 3.862249 0.324714
v 0.905934 2.861778 1.246910
v -0.000000 3.862251 1.050792
v -0.905933 2.861781 1.246909
v -0.999363 3.862251 0.324712
v -1.465830 2.861781 -0.476277
v -0.617641 3.862248 -0.850110
v -0.000000 2.861781 -1.541264
v -0.000000 5.033219 -0.794378
v 0.672189 4.323922 -0.925189
v 0.755496 5.033226 -0.245475
v 1.087622 4.323929 0.353389
v 0.466922 5.033224 0.642663
v 0.000000 4.323923 1.143596
v -0.466923 5.033225 0.642663
v -1.087622 4.323929 0.353390
v -0.755496 5.033225 -0.245476
v -0.672187 4.323928 -0.925187
v -0.000000 5.759836 -0.742687
v 0.311023 6.173884 -0.428086
v 0.706336 5.759840 -0.229502
v 0.503246 6.173884 0.163514
v 0.436539 5.759841 0.600845
v 0.000000 6.173884 0.529144
v -0.436541 5.759836 0.600847
v -0.503246 6.173884 0.163515
v -0.706335 5.759841 -0.229502
v -0.311023 6.173884 -0.428087
v -0.000001 7.284515 -0.271019
v 0.204762 7.159143 -0.281830
v 0.257755 7.284514 -0.083750
v 0.331311 7.159143 0.107650
v 0.159300 7.284517 0.219258
v -0.000000 7.159146 0.348360
v -0.159300 7.284516 0.219259
v -0.331311 7.159143 0.107649
v -0.257754 7.284516 -0.083749
v -0.204761 7.159143 -0.281830
v -0.000000 8.373392 -0.178640
v 0.097050 8.368220 -0.133578
v 0.169897 8.373392 -0.055202
v 0.157015 8.368259 0.051018
v 0.105002 8.373392 0.144522
v 0.000000 8.368259 0.165095
v -0.105002 8.373392 0.144522
v -0.157031 8.368220 0.051023
v -0.169896 8.373392 -0.055202
v -0.097043 8.368248 -0.133569
v 0.000000 -0.478049 -0.591440
v 0.000000 1.521951 -0.328515
v 0.347640 -0.478049 -0.478485
v 0.193096 1.521951 -0.265774
v 0.562493 -0.478049 -0.182765
v 0.312436 1.521951 -0.101517
v 0.562493 -0.478049 0.182765
v 0.312436 1.521951 0.101517
v 0.347640 -0.478049 0.478485
v 0.193096 1.521951 0.265774
v -0.000000 -0.478049 0.591440
v -0.000000 1.521951 0.328515
v -0.347640 -0.478049 0.478485
v -0.193096 1.521951 0.265774
v -0.562493 -0.478049 0.182765
v -0.312436 1.521951 0.101517
v -0.562493 -0.478049 -0.182765
v -0.312436 1.521951 -0.101517
v -0.347640 -0.478049 -0.478485
v -0.193096 1.521951 -0.265774
v 0.000000 0.208175 -0.383099
v 0.225180 0.208175 -0.309934
v 0.364349 0.208175 -0.118384
v 0.364349 0.208175 0.118384
v 0.225180 0.208175 0.309934
v -0.000000 0.208175 0.383099
v -0.225180 0.208175 0.309934
v -0.364349 0.208175 0.118384
v -0.364349 0.208175 -0.118384
v -0.225180 0.208175 -0.309934
v 0.000000 1.599215 -0.000000
vt 0.251953 0.955409
vt 0.251953 0.955409
vt 0.251953 0.955409
vt 0.251953 0.955409
vt 0.251953 0.955409
vt 0.251953 0.955409
vt 0.251953 0.955409
vt 0.251953 0.955409
vt 0.251953 0.955409
vt 0.251953 0.955409
vt 0.251953 0.955409
vt 0.251953 0.955409
vt 0.251953 0.955409
vt 0.251953 0.955409
vt 0.251953 0.955409
vt 0.251953 0.955409
vt 0.251953 0.955409
vt 0.251953 0.955409
vt 0.251953 0.955409
vt 0.251953 0.955409
vt 0.251953 0.955409
vt 0.251953 0.955409
vt 0.251953 0.955409
vt 0.251953 0.955409
vt 0.251953 0.955409
vt 0.251953 0.955409
vt 0.251953 0.955409
vt 0.251953 0.955409
vt 0.251953 0.955409
vt 0.251953 0.955409
vt 0.251953 0.955409
vt 0.251953 0.955409
vt 0.251953 0.955409
vt 0.251953 0.955409
vt 0.251953 0.955409
vt 0.251953 0.955409
vt 0.251953 0.955409
vt 0.251953 0.955409
vt 0.251953 0.955409
vt 0.251953 0.955409
vt 0.251953 0.955409
vt 0.251953 0.955409
vt 0.251953 0.955409
vt 0.251953 0.955409
vt 0.251953 0.955409
vt 0.251953 0.955409
vt 0.251953 0.955409
vt 0.251953 0.955409
vt 0.251953 0.955409
vt 0.251953 0.955409
vt 0.251953 0.955409
vt 0.251953 0.955409
vt 0.251953 0.955409
vt 0.251953 0.955409
vt 0.251953 0.955409
vt 0.251953 0.955409
vt 0.251953 0.955409
vt 0.251953 0.955409
vt 0.251953 0.955409
vt 0.251953 0.955409
vt 0.251953 0.955409
vt 0.251953 0.955409
vt 0.251953 0.955409
vt 0.251953 0.955409
vt 0.251953 0.955409
vt 0.251953 0.955409
vt 0.251953 0.955409
vt 0.251953 0.955409
vt 0.251953 0.955409
vt 0.251953 0.955409
vt 0.251953 0.955409
vt 0.251953 0.955409
vt 0.251953 0.955409
vt 0.251953 0.955409
vt 0.251953 0.955409
vt 0.251953 0.955409
vt 0.251953 0.955409
vt 0.251953 0.955409
vt 0.251953 0.955409
vt 0.251953 0.955409
vt 0.251953 0.955409
vt 0.251953 0.955409
vt 0.251953 0.955409
vt 0.251953 0.955409
vt 0.251953 0.955409
vt 0.251953 0.955409
vt 0.251953 0.955409
vt 0.251953 0.955409
vt 0.251953 0.955409
vt 0.251953 0.955409
vt 0.251953 0.955409
vt 0.251953 0.955409
vt 0.251953 0.955409
vt 0.251953 0.955409
vt 0.251953 0.955409
vt 0.251953 0.955409
vt 0.251953 0.955409
vt 0.251953 0.955409
vt 0.251953 0.955409
vt 0.251953 0.955409
vt 0.251953 0.955409
vt 0.251953 0.955409
vt 0.251953 0.955409
vt 0.251953 0.955409
vt 0.251953 0.955409
vt 0.251953 0.955409
vt 0.251953 0.955409
vt 0.251953 0.955409
vt 0.251953 0.955409
vt 0.251953 0.955409
vt 0.251953 0.955409
vt 0.251953 0.955409
vt 0.648248 0.555319
vt 0.648248 0.555319
vt 0.648248 0.555319
vt 0.648248 0.555319
vt 0.648248 0.555319
vt 0.648248 0.555319
vt 0.648248 0.555319
vt 0.648248 0.555319
vt 0.648248 0.555319
vt 0.648248 0.555319
vt 0.648248 0.555319
vt 0.648248 0.555319
vt 0.648248 0.555319
vt 0.648248 0.555319
vt 0.648248 0.555319
vt 0.648248 0.555319
vt 0.648248 0.555319
vt 0.648248 0.555319
vt 0.648248 0.555319
vt 0.648248 0.555319
vt 0.648248 0.555319
vt 0.648248 0.555319
vt 0.648248 0.555319
vt 0.648248 0.555319
vt 0.648248 0.555319
vt 0.648248 0.555319
vt 0.648248 0.555319
vt 0.648248 0.555319
vt 0.648248 0.555319
vt 0.648248 0.555319
vn 0.0000 0.3526 -0.9358
vn -0.0000 1.0000 -0.0000
vn 0.5478 0.3625 -0.7540
vn 0.8900 0.3526 -0.2892
vn 0.8864 0.3625 0.2880
vn 0.5500 0.3526 0.7571
vn -0.0000 0.3625 0.9320
vn -0.5500 0.3526 0.7571
vn -0.8864 0.3625 0.2880
vn -0.8900 0.3526 -0.2892
vn -0.5478 0.3625 -0.7540
vn -0.2304 -0.9200 -0.3171
vn 0.0000 -0.9382 -0.3460
vn -0.0000 -1.0000 0.0000
vn 0.5104 -0.4959 0.7025
vn -0.0000 -0.4705 0.8824
vn 0.5189 -0.4696 0.7142
vn 0.0000 -0.4925 0.8703
vn 0.5075 -0.5044 0.6986
vn 0.0000 -0.4860 0.8740
vn 0.5002 -0.5253 0.6884
vn 0.0000 -0.5272 0.8498
vn 0.5047 -0.5124 0.6947
vn -0.0000 -0.5493 0.8356
vn 0.8392 -0.4705 0.2727
vn 0.8277 -0.4925 0.2689
vn 0.8312 -0.4860 0.2701
vn 0.8082 -0.5272 0.2626
vn 0.7947 -0.5493 0.2582
vn 0.8259 -0.4959 -0.2683
vn 0.8396 -0.4696 -0.2728
vn 0.8397 -0.4696 -0.2728
vn 0.8212 -0.5044 -0.2668
vn 0.8093 -0.5253 -0.2630
vn 0.8167 -0.5124 -0.2654
vn 0.5187 -0.4705 -0.7139
vn 0.5115 -0.4925 -0.7041
vn 0.5137 -0.4860 -0.7071
vn 0.4995 -0.5272 -0.6875
vn 0.4911 -0.5493 -0.6760
vn 0.4912 -0.5493 -0.6760
vn -0.0000 -0.4959 -0.8684
vn -0.0000 -0.4696 -0.8829
vn -0.0000 -0.5044 -0.8635
vn 0.0000 -0.5253 -0.8509
vn 0.0000 -0.5124 -0.8587
vn -0.5187 -0.4705 -0.7139
vn -0.5115 -0.4925 -0.7041
vn -0.5116 -0.4925 -0.7041
vn -0.5137 -0.4860 -0.7071
vn -0.4995 -0.5272 -0.6875
vn -0.4912 -0.5493 -0.6760
vn -0.8259 -0.4959 -0.2683
vn -0.8397 -0.4696 -0.2728
vn -0.8212 -0.5044 -0.2668
vn -0.8093 -0.5253 -0.2630
vn -0.8167 -0.5124 -0.2654
vn -0.8392 -0.4705 0.2727
vn -0.8277 -0.4925 0.2689
vn -0.8312 -0.4860 0.2701
vn -0.8082 -0.5272 0.2626
vn -0.7947 -0.5493 0.2582
vn -0.5104 -0.4959 0.7025
vn -0.5189 -0.4696 0.7142
vn -0.5075 -0.5044 0.6986
vn -0.5002 -0.5253 0.6884
vn -0.5047 -0.5124 0.6947
vn 0.0000 0.3808 -0.9247
vn 0.5506 0.3502 -0.7578
vn 0.8794 0.3808 -0.2857
vn 0.8908 0.3502 0.2894
vn 0.5435 0.3808 0.7481
vn -0.0000 0.3502 0.9367
vn -0.5435 0.3808 0.7481
vn -0.8908 0.3502 0.2894
vn -0.8794 0.3808 -0.2857
vn -0.5506 0.3502 -0.7578
vn 0.0000 0.3497 -0.9369
vn 0.5438 0.3797 -0.7484
vn 0.8910 0.3497 -0.2895
vn 0.8798 0.3797 0.2859
vn 0.5507 0.3497 0.7579
vn -0.0000 0.3797 0.9251
vn -0.5507 0.3497 0.7579
vn -0.8798 0.3797 0.2859
vn -0.8910 0.3497 -0.2895
vn -0.5438 0.3797 -0.7484
vn -0.0000 0.3768 -0.9263
vn 0.5514 0.3462 -0.7590
vn 0.8809 0.3768 -0.2862
vn 0.8923 0.3462 0.2899
vn 0.5445 0.3768 0.7494
vn 0.0000 0.3462 0.9382
vn -0.5445 0.3768 0.7494
vn -0.8923 0.3462 0.2899
vn -0.8809 0.3768 -0.2862
vn -0.5514 0.3462 -0.7590
vn 0.0000 0.3448 -0.9387
vn 0.5448 0.3755 -0.7498
vn 0.8927 0.3448 -0.2901
vn 0.8815 0.3755 0.2864
vn 0.5517 0.3448 0.7594
vn 0.0000 0.3755 0.9268
vn -0.5517 0.3448 0.7594
vn -0.8815 0.3755 0.2864
vn -0.8927 0.3448 -0.2901
vn -0.5448 0.3755 -0.7498
vn -0.0000 0.3028 -0.9531
vn 0.5644 0.2791 -0.7769
vn 0.9064 0.3028 -0.2945
vn 0.9133 0.2791 0.2967
vn 0.5602 0.3028 0.7710
vn -0.0000 0.2791 0.9603
vn -0.5601 0.3028 0.7711
vn -0.5602 0.3028 0.7710
vn -0.9133 0.2791 0.2967
vn -0.9064 0.3028 -0.2946
vn -0.9064 0.3028 -0.2945
vn -0.5644 0.2791 -0.7769
vn 0.0000 0.1716 -0.9852
vn 0.0000 0.6592 -0.7520
vn 0.4420 0.6592 -0.6084
vn 0.5791 0.1716 -0.7970
vn 0.7152 0.6592 -0.2324
vn 0.9369 0.1716 -0.3044
vn 0.7152 0.6592 0.2324
vn 0.9369 0.1716 0.3044
vn 0.4420 0.6592 0.6084
vn 0.5791 0.1716 0.7970
vn -0.0000 0.6592 0.7520
vn -0.0000 0.1716 0.9852
vn -0.4420 0.6592 0.6084
vn -0.5791 0.1716 0.7970
vn -0.7152 0.6592 0.2324
vn -0.9369 0.1716 0.3044
vn -0.7152 0.6592 -0.2324
vn -0.9369 0.1716 -0.3044
vn -0.4420 0.6592 -0.6084
vn -0.5791 0.1716 -0.7970
vn -0.5624 0.2905 -0.7741
vn 0.0000 0.2905 -0.9569
vn -0.9100 0.2905 -0.2957
vn -0.9100 0.2905 0.2957
vn -0.5624 0.2905 0.7741
vn -0.0000 0.2905 0.9569
vn 0.5624 0.2905 0.7741
vn 0.9100 0.2905 0.2957
vn 0.9100 0.2905 -0.2957
vn 0.5624 0.2905 -0.7741
vn -0.3291 -0.9382 -0.1069
vn -0.0000 -0.9200 0.3919
vn -0.2034 -0.9382 0.2799
vn -0.3727 -0.9200 0.1211
vn 0.2034 -0.9382 0.2799
vn 0.3727 -0.9200 0.1211
vn 0.3291 -0.9382 -0.1069
vn 0.2304 -0.9200 -0.3171
usemtl Tree_1
s 1
f 16/1/1 3/2/2 17/3/3
f 17/3/3 3/2/2 22/4/4
f 22/4/4 3/2/2 27/5/5
f 27/5/5 3/2/2 32/6/6
f 32/6/6 3/2/2 37/7/7
f 37/7/7 3/2/2 42/8/8
f 42/8/8 3/2/2 47/9/9
f 47/9/9 3/2/2 52/10/10
f 52/10/10 3/2/2 57/11/11
f 57/11/11 3/2/2 16/1/1
f 6/12/12 7/13/13 142/14/14
f 70/15/15 61/16/15 12/17/16 71/18/16
f 81/19/17 60/20/17 13/21/18 72/22/18
f 91/23/19 59/24/19 14/25/20 82/26/20
f 101/27/21 58/28/21 15/29/22 92/30/22
f 111/31/23 57/11/23 16/1/24 102/32/24
f 69/33/25 56/34/25 61/16/15 70/15/15
f 80/35/26 55/36/26 60/20/17 81/19/17
f 90/37/27 54/38/27 59/24/19 91/23/19
f 100/39/28 53/40/28 58/28/21 101/27/21
f 110/41/29 52/10/29 57/11/23 111/31/23
f 68/42/30 51/43/30 56/34/25 69/33/25
f 79/44/31 50/45/32 55/36/26 80/35/26
f 89/46/33 49/47/33 54/38/27 90/37/27
f 99/48/34 48/49/34 53/40/28 100/39/28
f 109/50/35 47/9/35 52/10/29 110/41/29
f 67/51/36 46/52/36 51/43/30 68/42/30
f 78/53/37 45/54/37 50/45/32 79/44/31
f 88/55/38 44/56/38 49/47/33 89/46/33
f 98/57/39 43/58/39 48/49/34 99/48/34
f 108/59/40 42/8/41 47/9/35 109/50/35
f 66/60/42 41/61/42 46/52/36 67/51/36
f 77/62/43 40/63/43 45/54/37 78/53/37
f 87/64/44 39/65/44 44/56/38 88/55/38
f 97/66/45 38/67/45 43/58/39 98/57/39
f 107/68/46 37/7/46 42/8/41 108/59/40
f 65/69/47 36/70/47 41/61/42 66/60/42
f 76/71/48 35/72/49 40/63/43 77/62/43
f 86/73/50 34/74/50 39/65/44 87/64/44
f 96/75/51 33/76/51 38/67/45 97/66/45
f 106/77/52 32/6/52 37/7/46 107/68/46
f 64/78/53 31/79/53 36/70/47 65/69/47
f 75/80/54 30/81/54 35/72/49 76/71/48
f 85/82/55 29/83/55 34/74/50 86/73/50
f 95/84/56 28/85/56 33/76/51 96/75/51
f 105/86/57 27/5/57 32/6/52 106/77/52
f 63/87/58 26/88/58 31/79/53 64/78/53
f 74/89/59 25/90/59 30/81/54 75/80/54
f 84/91/60 24/92/60 29/83/55 85/82/55
f 94/93/61 23/94/61 28/85/56 95/84/56
f 104/95/62 22/4/62 27/5/57 105/86/57
f 62/96/63 21/97/63 26/88/58 63/87/58
f 73/98/64 20/99/64 25/90/59 74/89/59
f 83/100/65 19/101/65 24/92/60 84/91/60
f 93/102/66 18/103/66 23/94/61 94/93/61
f 103/104/67 17/3/67 22/4/62 104/95/62
f 71/18/16 12/17/16 21/97/63 62/96/63
f 72/22/18 13/21/18 20/99/64 73/98/64
f 82/26/20 14/25/20 19/101/65 83/100/65
f 92/30/22 15/29/22 18/103/66 93/102/66
f 102/32/24 16/1/24 17/3/67 103/104/67
f 1/105/68 71/18/68 62/96/69 2/106/69
f 2/106/69 62/96/69 63/87/70 4/107/70
f 4/107/70 63/87/70 64/78/71 5/108/71
f 5/108/71 64/78/71 65/69/72 6/12/72
f 6/12/72 65/69/72 66/60/73 7/13/73
f 7/13/73 66/60/73 67/51/74 8/109/74
f 8/109/74 67/51/74 68/42/75 9/110/75
f 9/110/75 68/42/75 69/33/76 10/111/76
f 10/111/76 69/33/76 70/15/77 11/112/77
f 11/112/77 70/15/77 71/18/68 1/105/68
f 12/17/78 72/22/78 73/98/79 21/97/79
f 21/97/79 73/98/79 74/89/80 26/88/80
f 26/88/80 74/89/80 75/80/81 31/79/81
f 31/79/81 75/80/81 76/71/82 36/70/82
f 36/70/82 76/71/82 77/62/83 41/61/83
f 41/61/83 77/62/83 78/53/84 46/52/84
f 46/52/84 78/53/84 79/44/85 51/43/85
f 51/43/85 79/44/85 80/35/86 56/34/86
f 56/34/86 80/35/86 81/19/87 61/16/87
f 61/16/87 81/19/87 72/22/78 12/17/78
f 13/21/88 82/26/88 83/100/89 20/99/89
f 20/99/89 83/100/89 84/91/90 25/90/90
f 25/90/90 84/91/90 85/82/91 30/81/91
f 30/81/91 85/82/91 86/73/92 35/72/92
f 35/72/92 86/73/92 87/64/93 40/63/93
f 40/63/93 87/64/93 88/55/94 45/54/94
f 45/54/94 88/55/94 89/46/95 50/45/95
f 50/45/95 89/46/95 90/37/96 55/36/96
f 55/36/96 90/37/96 91/23/97 60/20/97
f 60/20/97 91/23/97 82/26/88 13/21/88
f 14/25/98 92/30/98 93/102/99 19/101/99
f 19/101/99 93/102/99 94/93/100 24/92/100
f 24/92/100 94/93/100 95/84/101 29/83/101
f 29/83/101 95/84/101 96/75/102 34/74/102
f 34/74/102 96/75/102 97/66/103 39/65/103
f 39/65/103 97/66/103 98/57/104 44/56/104
f 44/56/104 98/57/104 99/48/105 49/47/105
f 49/47/105 99/48/105 100/39/106 54/38/106
f 54/38/106 100/39/106 101/27/107 59/24/107
f 59/24/107 101/27/107 92/30/98 14/25/98
f 15/29/108 102/32/108 103/104/109 18/103/109
f 18/103/109 103/104/109 104/95/110 23/94/110
f 23/94/110 104/95/110 105/86/111 28/85/111
f 28/85/111 105/86/111 106/77/112 33/76/112
f 33/76/112 106/77/112 107/68/113 38/67/113
f 38/67/113 107/68/113 108/59/114 43/58/115
f 43/58/115 108/59/114 109/50/116 48/49/116
f 48/49/116 109/50/116 110/41/117 53/40/118
f 53/40/118 110/41/117 111/31/119 58/28/119
f 58/28/119 111/31/119 102/32/108 15/29/108
f 132/113/120 113/114/121 115/115/122 133/116/123
f 133/116/123 115/115/122 117/117/124 134/118/125
f 134/118/125 117/117/124 119/119/126 135/120/127
f 135/120/127 119/119/126 121/121/128 136/122/129
f 136/122/129 121/121/128 123/123/130 137/124/131
f 137/124/131 123/123/130 125/125/132 138/126/133
f 138/126/133 125/125/132 127/127/134 139/128/135
f 139/128/135 127/127/134 129/129/136 140/130/137
f 115/115/122 113/114/121 131/131/138 129/129/136 127/127/134 125/125/132 123/123/130 121/121/128 119/119/126 117/117/124
f 140/130/137 129/129/136 131/131/138 141/132/139
f 141/132/139 131/131/138 113/114/121 132/113/120
f 112/133/14 114/134/14 116/135/14 118/136/14 120/137/14 122/138/14 124/139/14 126/140/14 128/141/14 130/142/14
f 130/142/140 141/132/139 132/113/120 112/133/141
f 128/141/142 140/130/137 141/132/139 130/142/140
f 126/140/143 139/128/135 140/130/137 128/141/142
f 124/139/144 138/126/133 139/128/135 126/140/143
f 122/138/145 137/124/131 138/126/133 124/139/144
f 120/137/146 136/122/129 137/124/131 122/138/145
f 118/136/147 135/120/127 136/122/129 120/137/146
f 116/135/148 134/118/125 135/120/127 118/136/147
f 114/134/149 133/116/123 134/118/125 116/135/148
f 112/133/141 132/113/120 133/116/123 114/134/149
f 5/108/150 6/12/12 142/14/14
f 1/105/151 2/106/152 142/14/14
f 4/107/153 5/108/150 142/14/14
f 2/106/152 4/107/153 142/14/14
f 11/112/154 1/105/151 142/14/14
f 10/111/155 11/112/154 142/14/14
f 9/110/156 10/111/155 142/14/14
f 8/109/157 9/110/156 142/14/14
f 7/13/13 8/109/157 142/14/14
