# Blender v2.80 (sub 75) OBJ File: 'waterfall base.blend'
# www.blender.org
mtllib waterfall base.mtl
o Circle
v 0.000000 0.000000 -1.000000
v -0.195090 0.000000 -0.980785
v -0.382683 0.000000 -0.923880
v -0.555570 0.000000 -0.831470
v -0.707107 0.000000 -0.707107
v -0.831470 0.000000 -0.555570
v -0.923880 0.000000 -0.382683
v -0.980785 0.000000 -0.195090
v -1.000000 0.000000 -0.000000
v -0.980785 0.000000 0.195090
v -0.923880 0.000000 0.382683
v -0.831470 0.000000 0.555570
v -0.707107 0.000000 0.707107
v -0.555570 0.000000 0.831470
v -0.382683 0.000000 0.923880
v -0.195090 0.000000 0.980785
v 0.000000 0.000000 1.000000
v 0.195091 0.000000 0.980785
v 0.382684 0.000000 0.923879
v 0.555571 0.000000 0.831469
v 0.707107 0.000000 0.707106
v 0.831470 0.000000 0.555570
v 0.923880 0.000000 0.382683
v 0.980785 0.000000 0.195089
v 1.000000 0.000000 -0.000001
v 0.980785 0.000000 -0.195091
v 0.923879 0.000000 -0.382684
v 0.831469 0.000000 -0.555571
v 0.707106 0.000000 -0.707108
v 0.555569 0.000000 -0.831470
v 0.382682 0.000000 -0.923880
v 0.195089 0.000000 -0.980786
v -0.000000 0.000000 -0.113962
v -0.022233 0.000000 -0.111773
v -0.043611 0.000000 -0.105287
v -0.063314 0.000000 -0.094756
v -0.080583 0.000000 -0.080584
v -0.094756 0.000000 -0.063314
v -0.105287 0.000000 -0.043612
v -0.111772 0.000000 -0.022233
v -0.113962 0.000000 -0.000000
v -0.111772 0.000000 0.022233
v -0.105287 0.000000 0.043611
v -0.094756 0.000000 0.063314
v -0.080583 0.000000 0.080583
v -0.063314 0.000000 0.094756
v -0.043611 0.000000 0.105287
v -0.022233 0.000000 0.111772
v -0.000000 0.000000 0.113962
v 0.022233 0.000000 0.111772
v 0.043611 0.000000 0.105287
v 0.063314 0.000000 0.094756
v 0.080583 0.000000 0.080583
v 0.094756 0.000000 0.063314
v 0.105287 0.000000 0.043611
v 0.111772 0.000000 0.022233
v 0.113962 0.000000 -0.000000
v 0.111772 0.000000 -0.022233
v 0.105287 0.000000 -0.043612
v 0.094756 0.000000 -0.063314
v 0.080583 0.000000 -0.080584
v 0.063314 0.000000 -0.094756
v 0.043611 0.000000 -0.105288
v 0.022233 0.000000 -0.111773
v 0.873491 0.000000 -0.000001
v 0.856707 0.000000 -0.170411
v -0.726281 0.000000 0.485285
v -0.617651 0.000000 0.617651
v 0.807000 0.000000 -0.334271
v -0.485285 0.000000 0.726281
v 0.726280 0.000000 -0.485286
v -0.334270 0.000000 0.807000
v -0.000000 0.000000 -0.873491
v -0.170410 0.000000 -0.856707
v 0.617650 0.000000 -0.617652
v -0.170409 0.000000 0.856707
v -0.334270 0.000000 -0.807000
v 0.485284 0.000000 -0.726282
v 0.000000 0.000000 0.873491
v -0.485285 0.000000 -0.726281
v 0.334269 0.000000 -0.807001
v 0.170410 0.000000 0.856707
v -0.617651 0.000000 -0.617651
v 0.170408 0.000000 -0.856707
v 0.334271 0.000000 0.807000
v -0.726281 0.000000 -0.485285
v 0.485286 0.000000 0.726281
v -0.807000 0.000000 -0.334270
v 0.617652 0.000000 0.617651
v -0.856707 0.000000 -0.170410
v 0.726281 0.000000 0.485285
v -0.873491 0.000000 -0.000000
v 0.807000 0.000000 0.334270
v -0.856707 0.000000 0.170409
v 0.856707 0.000000 0.170409
v -0.807000 0.000000 0.334270
v 0.653157 0.000000 -0.000001
v -0.543081 0.000000 0.362875
v -0.000000 0.000000 -0.653158
v 0.640607 0.000000 -0.127425
v -0.461852 0.000000 0.461852
v 0.603438 0.000000 -0.249953
v -0.362875 0.000000 0.543081
v 0.543080 0.000000 -0.362876
v -0.249952 0.000000 0.603439
v -0.127425 0.000000 -0.640607
v 0.461851 0.000000 -0.461853
v -0.127425 0.000000 0.640607
v -0.249953 0.000000 -0.603439
v 0.362874 0.000000 -0.543081
v 0.000000 0.000000 0.653157
v -0.362875 0.000000 -0.543081
v 0.249952 0.000000 -0.603439
v 0.127425 0.000000 0.640607
v -0.461852 0.000000 -0.461852
v 0.127424 0.000000 -0.640608
v 0.249953 0.000000 0.603439
v -0.543081 0.000000 -0.362875
v 0.362875 0.000000 0.543080
v -0.603439 0.000000 -0.249953
v 0.461852 0.000000 0.461852
v -0.640607 0.000000 -0.127425
v 0.543081 0.000000 0.362874
v -0.653157 0.000000 -0.000000
v 0.603439 0.000000 0.249952
v -0.640607 0.000000 0.127425
v 0.640607 0.000000 0.127424
v -0.603439 0.000000 0.249952
v 0.383560 0.000000 -0.000001
v -0.318918 0.000000 0.213094
v -0.000000 0.000000 -0.383560
v 0.376190 0.000000 -0.074829
v -0.271218 0.000000 0.271218
v 0.354363 0.000000 -0.146783
v -0.213094 0.000000 0.318918
v 0.318918 0.000000 -0.213095
v -0.146782 0.000000 0.354363
v -0.074829 0.000000 -0.376190
v 0.271217 0.000000 -0.271218
v -0.074829 0.000000 0.376190
v -0.146782 0.000000 -0.354363
v 0.213094 0.000000 -0.318919
v 0.000000 0.000000 0.383560
v -0.213094 0.000000 -0.318918
v 0.146781 0.000000 -0.354363
v 0.074829 0.000000 0.376190
v -0.271218 0.000000 -0.271218
v 0.074828 0.000000 -0.376190
v 0.146782 0.000000 0.354363
v -0.318918 0.000000 -0.213095
v 0.213094 0.000000 0.318918
v -0.354363 0.000000 -0.146782
v 0.271218 0.000000 0.271217
v -0.376190 0.000000 -0.074829
v 0.318918 0.000000 0.213094
v -0.383560 0.000000 -0.000000
v 0.354363 0.000000 0.146782
v -0.376190 0.000000 0.074829
v 0.376190 0.000000 0.074828
v -0.354363 0.000000 0.146782
v 0.175796 0.000000 -0.000000
v -0.146169 0.000000 0.097667
v -0.000000 0.000000 -0.175796
v 0.172418 0.000000 -0.034296
v -0.124306 0.000000 0.124306
v 0.162414 0.000000 -0.067275
v -0.097667 0.000000 0.146168
v 0.146169 0.000000 -0.097667
v -0.067274 0.000000 0.162414
v -0.034296 0.000000 -0.172418
v 0.124306 0.000000 -0.124307
v -0.034296 0.000000 0.172418
v -0.067274 0.000000 -0.162414
v 0.097667 0.000000 -0.146169
v -0.000000 0.000000 0.175795
v -0.097667 0.000000 -0.146169
v 0.067274 0.000000 -0.162414
v 0.034296 0.000000 0.172417
v -0.124306 0.000000 -0.124307
v 0.034296 0.000000 -0.172418
v 0.067274 0.000000 0.162414
v -0.146169 0.000000 -0.097667
v 0.097667 0.000000 0.146168
v -0.162414 0.000000 -0.067274
v 0.124306 0.000000 0.124306
v -0.172418 0.000000 -0.034296
v 0.146169 0.000000 0.097666
v -0.175796 0.000000 -0.000000
v 0.162414 0.000000 0.067274
v -0.172418 0.000000 0.034296
v 0.172418 0.000000 0.034296
v -0.162414 0.000000 0.067274
vt 0.343668 0.928470
vt 0.312348 0.998048
vt 0.343532 0.998048
vt 0.904975 0.928470
vt 0.936022 0.998048
vt 0.936158 0.928470
vt 0.374715 0.998048
vt 0.374852 0.928470
vt 0.967342 0.928470
vt 0.967206 0.998048
vt 0.405899 0.998048
vt 0.406036 0.928470
vt 0.998390 0.998048
vt 0.998526 0.928470
vt 0.593138 0.928470
vt 0.561817 0.998048
vt 0.593001 0.998048
vt 0.437083 0.998048
vt 0.437219 0.928470
vt 0.031831 0.928470
vt 0.000511 0.998048
vt 0.031695 0.998048
vt 0.624185 0.998048
vt 0.624321 0.928470
vt 0.468403 0.928470
vt 0.468267 0.998048
vt 0.063015 0.928470
vt 0.062878 0.998048
vt 0.655505 0.928470
vt 0.655369 0.998048
vt 0.499450 0.998048
vt 0.499587 0.928470
vt 0.094062 0.998048
vt 0.094198 0.928470
vt 0.686552 0.998048
vt 0.686689 0.928470
vt 0.530770 0.928470
vt 0.530634 0.998048
vt 0.125382 0.928470
vt 0.125246 0.998048
vt 0.717736 0.998048
vt 0.717872 0.928470
vt 0.561954 0.928470
vt 0.156430 0.998048
vt 0.156566 0.928470
vt 0.748920 0.998048
vt 0.749056 0.928470
vt 0.187613 0.998048
vt 0.187750 0.928470
vt 0.780240 0.928470
vt 0.780103 0.998048
vt 0.218933 0.928470
vt 0.218797 0.998048
vt 0.811287 0.998048
vt 0.811423 0.928470
vt 0.249981 0.998048
vt 0.250117 0.928470
vt 0.842471 0.998048
vt 0.842607 0.928470
vt 0.281164 0.998048
vt 0.281301 0.928470
vt 0.873654 0.998048
vt 0.873791 0.928470
vt 0.312484 0.928470
vt 0.904838 0.998048
vt 0.875608 0.001044
vt 0.906512 0.143397
vt 0.906791 0.001044
vt 0.314301 0.001044
vt 0.282839 0.143397
vt 0.314022 0.143397
vt 0.844424 0.001044
vt 0.875329 0.143397
vt 0.283118 0.001044
vt 0.251655 0.143397
vt 0.813240 0.001044
vt 0.844145 0.143397
vt 0.251934 0.001044
vt 0.220471 0.143397
vt 0.782057 0.001044
vt 0.812961 0.143397
vt 0.220750 0.001044
vt 0.189288 0.143397
vt 0.750873 0.001044
vt 0.781778 0.143397
vt 0.158383 0.001044
vt 0.189566 0.001044
vt 0.719689 0.001044
vt 0.750594 0.143397
vt 0.127199 0.001044
vt 0.158104 0.143397
vt 0.563771 0.001044
vt 0.532308 0.143397
vt 0.563492 0.143397
vt 0.688505 0.001044
vt 0.719410 0.143397
vt 0.095736 0.143397
vt 0.126920 0.143397
vt 0.532587 0.001044
vt 0.501125 0.143397
vt 0.657322 0.001044
vt 0.688227 0.143397
vt 0.064832 0.001044
vt 0.096015 0.001044
vt 0.470220 0.001044
vt 0.501403 0.001044
vt 0.626138 0.001044
vt 0.657043 0.143397
vt 0.033648 0.001044
vt 0.064553 0.143397
vt 0.438757 0.143397
vt 0.469941 0.143397
vt 0.594954 0.001044
vt 0.625859 0.143397
vt 0.002464 0.001044
vt 0.033369 0.143397
vt 0.407852 0.001044
vt 0.439036 0.001044
vt 0.594675 0.143397
vt 0.969159 0.001044
vt 1.000064 0.143397
vt 1.000343 0.001044
vt 0.376390 0.143397
vt 0.407573 0.143397
vt 0.937975 0.001044
vt 0.968880 0.143397
vt 0.376669 0.001044
vt 0.345206 0.143397
vt 0.937696 0.143397
vt 0.345485 0.001044
vt 0.906027 0.391324
vt 0.282353 0.391324
vt 0.313537 0.391324
vt 0.874843 0.391324
vt 0.843659 0.391324
vt 0.219985 0.391324
vt 0.251169 0.391324
vt 0.781292 0.391324
vt 0.812476 0.391324
vt 0.188802 0.391324
vt 0.750108 0.391324
vt 0.157618 0.391324
vt 0.563006 0.391324
vt 0.718925 0.391324
vt 0.126434 0.391324
vt 0.500639 0.391324
vt 0.531823 0.391324
vt 0.656557 0.391324
vt 0.687741 0.391324
vt 0.095251 0.391324
vt 0.469455 0.391324
vt 0.064067 0.391324
vt 0.438271 0.391324
vt 0.625373 0.391324
vt 0.002185 0.143397
vt 0.032883 0.391324
vt 0.407088 0.391324
vt 0.594190 0.391324
vt 0.999578 0.391324
vt 0.968394 0.391324
vt 0.344720 0.391324
vt 0.375904 0.391324
vt 0.937211 0.391324
vt 0.905433 0.694686
vt 0.281759 0.694686
vt 0.312942 0.694686
vt 0.874249 0.694686
vt 0.250575 0.694686
vt 0.843065 0.694686
vt 0.219391 0.694686
vt 0.780698 0.694686
vt 0.811881 0.694686
vt 0.188208 0.694686
vt 0.749514 0.694686
vt 0.125840 0.694686
vt 0.157024 0.694686
vt 0.562412 0.694686
vt 0.718330 0.694686
vt 0.500045 0.694686
vt 0.531228 0.694686
vt 0.655963 0.694686
vt 0.687147 0.694686
vt 0.094656 0.694686
vt 0.032289 0.694686
vt 0.063473 0.694686
vt 0.437677 0.694686
vt 0.468861 0.694686
vt 0.593596 0.694686
vt 0.624779 0.694686
vt 0.001105 0.694686
vt 0.406494 0.694686
vt 0.998984 0.694686
vt 0.967800 0.694686
vt 0.344126 0.694686
vt 0.375310 0.694686
vt 0.936616 0.694686
vt 0.000647 0.928470
vt 0.001699 0.391324
vn 0.0000 -1.0000 0.0000
usemtl None
s off
f 164/1/1 57/2/1 58/3/1
f 162/4/1 45/5/1 165/6/1
f 164/1/1 59/7/1 166/8/1
f 167/9/1 45/5/1 46/10/1
f 166/8/1 60/11/1 168/12/1
f 167/9/1 47/13/1 169/14/1
f 170/15/1 33/16/1 34/17/1
f 168/12/1 61/18/1 171/19/1
f 172/20/1 47/21/1 48/22/1
f 170/15/1 35/23/1 173/24/1
f 174/25/1 61/18/1 62/26/1
f 175/27/1 48/22/1 49/28/1
f 176/29/1 35/23/1 36/30/1
f 174/25/1 63/31/1 177/32/1
f 175/27/1 50/33/1 178/34/1
f 176/29/1 37/35/1 179/36/1
f 180/37/1 63/31/1 64/38/1
f 181/39/1 50/33/1 51/40/1
f 179/36/1 38/41/1 182/42/1
f 180/37/1 33/16/1 163/43/1
f 181/39/1 52/44/1 183/45/1
f 182/42/1 39/46/1 184/47/1
f 183/45/1 53/48/1 185/49/1
f 186/50/1 39/46/1 40/51/1
f 187/52/1 53/48/1 54/53/1
f 186/50/1 41/54/1 188/55/1
f 187/52/1 55/56/1 189/57/1
f 188/55/1 42/58/1 190/59/1
f 189/57/1 56/60/1 191/61/1
f 190/59/1 43/62/1 192/63/1
f 161/64/1 56/60/1 57/2/1
f 162/4/1 43/62/1 44/65/1
f 11/66/1 67/67/1 12/68/1
f 25/69/1 95/70/1 65/71/1
f 10/72/1 96/73/1 11/66/1
f 24/74/1 93/75/1 95/70/1
f 9/76/1 94/77/1 10/72/1
f 23/78/1 91/79/1 93/75/1
f 8/80/1 92/81/1 9/76/1
f 22/82/1 89/83/1 91/79/1
f 7/84/1 90/85/1 8/80/1
f 20/86/1 89/83/1 21/87/1
f 6/88/1 88/89/1 7/84/1
f 19/90/1 87/91/1 20/86/1
f 1/92/1 84/93/1 73/94/1
f 5/95/1 86/96/1 6/88/1
f 19/90/1 82/97/1 85/98/1
f 32/99/1 81/100/1 84/93/1
f 4/101/1 83/102/1 5/95/1
f 17/103/1 82/97/1 18/104/1
f 30/105/1 81/100/1 31/106/1
f 3/107/1 80/108/1 4/101/1
f 16/109/1 79/110/1 17/103/1
f 30/105/1 75/111/1 78/112/1
f 2/113/1 77/114/1 3/107/1
f 15/115/1 76/116/1 16/109/1
f 28/117/1 75/111/1 29/118/1
f 2/113/1 73/94/1 74/119/1
f 14/120/1 72/121/1 15/122/1
f 28/117/1 69/123/1 71/124/1
f 13/125/1 70/126/1 14/120/1
f 27/127/1 66/128/1 69/123/1
f 12/68/1 68/129/1 13/125/1
f 26/130/1 65/71/1 66/128/1
f 96/73/1 98/131/1 67/67/1
f 65/71/1 127/132/1 97/133/1
f 94/77/1 128/134/1 96/73/1
f 93/75/1 127/132/1 95/70/1
f 92/81/1 126/135/1 94/77/1
f 93/75/1 123/136/1 125/137/1
f 92/81/1 122/138/1 124/139/1
f 91/79/1 121/140/1 123/136/1
f 88/89/1 122/138/1 90/85/1
f 87/91/1 121/140/1 89/83/1
f 86/96/1 120/141/1 88/89/1
f 85/98/1 119/142/1 87/91/1
f 84/93/1 99/143/1 73/94/1
f 83/102/1 118/144/1 86/96/1
f 82/97/1 117/145/1 85/98/1
f 84/93/1 113/146/1 116/147/1
f 83/102/1 112/148/1 115/149/1
f 79/110/1 114/150/1 82/97/1
f 81/100/1 110/151/1 113/146/1
f 77/114/1 112/148/1 80/108/1
f 76/116/1 111/152/1 79/110/1
f 78/112/1 107/153/1 110/151/1
f 74/119/1 109/154/1 77/114/1
f 72/155/1 108/156/1 76/116/1
f 75/111/1 104/157/1 107/153/1
f 74/119/1 99/143/1 106/158/1
f 70/126/1 105/159/1 72/121/1
f 69/123/1 104/157/1 71/124/1
f 68/129/1 103/160/1 70/126/1
f 69/123/1 100/161/1 102/162/1
f 67/67/1 101/163/1 68/129/1
f 66/128/1 97/133/1 100/161/1
f 128/134/1 130/164/1 98/131/1
f 97/133/1 159/165/1 129/166/1
f 126/135/1 160/167/1 128/134/1
f 127/132/1 157/168/1 159/165/1
f 124/139/1 158/169/1 126/135/1
f 125/137/1 155/170/1 157/168/1
f 124/139/1 154/171/1 156/172/1
f 123/136/1 153/173/1 155/170/1
f 120/141/1 154/171/1 122/138/1
f 119/142/1 153/173/1 121/140/1
f 118/144/1 152/174/1 120/141/1
f 119/142/1 149/175/1 151/176/1
f 116/147/1 131/177/1 99/143/1
f 115/149/1 150/178/1 118/144/1
f 114/150/1 149/175/1 117/145/1
f 116/147/1 145/179/1 148/180/1
f 115/149/1 144/181/1 147/182/1
f 111/152/1 146/183/1 114/150/1
f 110/151/1 145/179/1 113/146/1
f 109/154/1 144/181/1 112/148/1
f 111/152/1 140/184/1 143/185/1
f 110/151/1 139/186/1 142/187/1
f 109/154/1 138/188/1 141/189/1
f 108/156/1 137/190/1 140/184/1
f 107/153/1 136/191/1 139/186/1
f 99/143/1 138/188/1 106/158/1
f 103/160/1 137/192/1 105/159/1
f 102/162/1 136/191/1 104/157/1
f 101/163/1 135/193/1 103/160/1
f 102/162/1 132/194/1 134/195/1
f 98/131/1 133/196/1 101/163/1
f 100/161/1 129/166/1 132/194/1
f 160/167/1 162/4/1 130/164/1
f 159/165/1 161/64/1 129/166/1
f 158/169/1 192/63/1 160/167/1
f 157/168/1 191/61/1 159/165/1
f 156/172/1 190/59/1 158/169/1
f 157/168/1 187/52/1 189/57/1
f 154/171/1 188/55/1 156/172/1
f 155/170/1 185/49/1 187/52/1
f 152/174/1 186/50/1 154/171/1
f 151/176/1 185/49/1 153/173/1
f 150/178/1 184/47/1 152/174/1
f 149/175/1 183/45/1 151/176/1
f 148/180/1 163/43/1 131/177/1
f 147/182/1 182/42/1 150/178/1
f 149/175/1 178/34/1 181/39/1
f 148/180/1 177/32/1 180/37/1
f 144/181/1 179/36/1 147/182/1
f 143/185/1 178/34/1 146/183/1
f 142/187/1 177/32/1 145/179/1
f 144/181/1 173/24/1 176/29/1
f 143/185/1 172/20/1 175/27/1
f 142/187/1 171/19/1 174/25/1
f 138/188/1 173/24/1 141/189/1
f 137/190/1 172/20/1 140/184/1
f 139/186/1 168/12/1 171/19/1
f 131/177/1 170/15/1 138/188/1
f 135/193/1 169/14/1 137/192/1
f 134/195/1 168/12/1 136/191/1
f 133/196/1 167/9/1 135/193/1
f 134/195/1 164/1/1 166/8/1
f 130/164/1 165/6/1 133/196/1
f 132/194/1 161/64/1 164/1/1
f 164/1/1 161/64/1 57/2/1
f 162/4/1 44/65/1 45/5/1
f 164/1/1 58/3/1 59/7/1
f 167/9/1 165/6/1 45/5/1
f 166/8/1 59/7/1 60/11/1
f 167/9/1 46/10/1 47/13/1
f 170/15/1 163/43/1 33/16/1
f 168/12/1 60/11/1 61/18/1
f 172/20/1 169/197/1 47/21/1
f 170/15/1 34/17/1 35/23/1
f 174/25/1 171/19/1 61/18/1
f 175/27/1 172/20/1 48/22/1
f 176/29/1 173/24/1 35/23/1
f 174/25/1 62/26/1 63/31/1
f 175/27/1 49/28/1 50/33/1
f 176/29/1 36/30/1 37/35/1
f 180/37/1 177/32/1 63/31/1
f 181/39/1 178/34/1 50/33/1
f 179/36/1 37/35/1 38/41/1
f 180/37/1 64/38/1 33/16/1
f 181/39/1 51/40/1 52/44/1
f 182/42/1 38/41/1 39/46/1
f 183/45/1 52/44/1 53/48/1
f 186/50/1 184/47/1 39/46/1
f 187/52/1 185/49/1 53/48/1
f 186/50/1 40/51/1 41/54/1
f 187/52/1 54/53/1 55/56/1
f 188/55/1 41/54/1 42/58/1
f 189/57/1 55/56/1 56/60/1
f 190/59/1 42/58/1 43/62/1
f 161/64/1 191/61/1 56/60/1
f 162/4/1 192/63/1 43/62/1
f 11/66/1 96/73/1 67/67/1
f 25/69/1 24/74/1 95/70/1
f 10/72/1 94/77/1 96/73/1
f 24/74/1 23/78/1 93/75/1
f 9/76/1 92/81/1 94/77/1
f 23/78/1 22/82/1 91/79/1
f 8/80/1 90/85/1 92/81/1
f 22/82/1 21/87/1 89/83/1
f 7/84/1 88/89/1 90/85/1
f 20/86/1 87/91/1 89/83/1
f 6/88/1 86/96/1 88/89/1
f 19/90/1 85/98/1 87/91/1
f 1/92/1 32/99/1 84/93/1
f 5/95/1 83/102/1 86/96/1
f 19/90/1 18/104/1 82/97/1
f 32/99/1 31/106/1 81/100/1
f 4/101/1 80/108/1 83/102/1
f 17/103/1 79/110/1 82/97/1
f 30/105/1 78/112/1 81/100/1
f 3/107/1 77/114/1 80/108/1
f 16/109/1 76/116/1 79/110/1
f 30/105/1 29/118/1 75/111/1
f 2/113/1 74/119/1 77/114/1
f 15/115/1 72/155/1 76/116/1
f 28/117/1 71/124/1 75/111/1
f 2/113/1 1/92/1 73/94/1
f 14/120/1 70/126/1 72/121/1
f 28/117/1 27/127/1 69/123/1
f 13/125/1 68/129/1 70/126/1
f 27/127/1 26/130/1 66/128/1
f 12/68/1 67/67/1 68/129/1
f 26/130/1 25/69/1 65/71/1
f 96/73/1 128/134/1 98/131/1
f 65/71/1 95/70/1 127/132/1
f 94/77/1 126/135/1 128/134/1
f 93/75/1 125/137/1 127/132/1
f 92/81/1 124/139/1 126/135/1
f 93/75/1 91/79/1 123/136/1
f 92/81/1 90/85/1 122/138/1
f 91/79/1 89/83/1 121/140/1
f 88/89/1 120/141/1 122/138/1
f 87/91/1 119/142/1 121/140/1
f 86/96/1 118/144/1 120/141/1
f 85/98/1 117/145/1 119/142/1
f 84/93/1 116/147/1 99/143/1
f 83/102/1 115/149/1 118/144/1
f 82/97/1 114/150/1 117/145/1
f 84/93/1 81/100/1 113/146/1
f 83/102/1 80/108/1 112/148/1
f 79/110/1 111/152/1 114/150/1
f 81/100/1 78/112/1 110/151/1
f 77/114/1 109/154/1 112/148/1
f 76/116/1 108/156/1 111/152/1
f 78/112/1 75/111/1 107/153/1
f 74/119/1 106/158/1 109/154/1
f 72/155/1 105/198/1 108/156/1
f 75/111/1 71/124/1 104/157/1
f 74/119/1 73/94/1 99/143/1
f 70/126/1 103/160/1 105/159/1
f 69/123/1 102/162/1 104/157/1
f 68/129/1 101/163/1 103/160/1
f 69/123/1 66/128/1 100/161/1
f 67/67/1 98/131/1 101/163/1
f 66/128/1 65/71/1 97/133/1
f 128/134/1 160/167/1 130/164/1
f 97/133/1 127/132/1 159/165/1
f 126/135/1 158/169/1 160/167/1
f 127/132/1 125/137/1 157/168/1
f 124/139/1 156/172/1 158/169/1
f 125/137/1 123/136/1 155/170/1
f 124/139/1 122/138/1 154/171/1
f 123/136/1 121/140/1 153/173/1
f 120/141/1 152/174/1 154/171/1
f 119/142/1 151/176/1 153/173/1
f 118/144/1 150/178/1 152/174/1
f 119/142/1 117/145/1 149/175/1
f 116/147/1 148/180/1 131/177/1
f 115/149/1 147/182/1 150/178/1
f 114/150/1 146/183/1 149/175/1
f 116/147/1 113/146/1 145/179/1
f 115/149/1 112/148/1 144/181/1
f 111/152/1 143/185/1 146/183/1
f 110/151/1 142/187/1 145/179/1
f 109/154/1 141/189/1 144/181/1
f 111/152/1 108/156/1 140/184/1
f 110/151/1 107/153/1 139/186/1
f 109/154/1 106/158/1 138/188/1
f 108/156/1 105/198/1 137/190/1
f 107/153/1 104/157/1 136/191/1
f 99/143/1 131/177/1 138/188/1
f 103/160/1 135/193/1 137/192/1
f 102/162/1 134/195/1 136/191/1
f 101/163/1 133/196/1 135/193/1
f 102/162/1 100/161/1 132/194/1
f 98/131/1 130/164/1 133/196/1
f 100/161/1 97/133/1 129/166/1
f 160/167/1 192/63/1 162/4/1
f 159/165/1 191/61/1 161/64/1
f 158/169/1 190/59/1 192/63/1
f 157/168/1 189/57/1 191/61/1
f 156/172/1 188/55/1 190/59/1
f 157/168/1 155/170/1 187/52/1
f 154/171/1 186/50/1 188/55/1
f 155/170/1 153/173/1 185/49/1
f 152/174/1 184/47/1 186/50/1
f 151/176/1 183/45/1 185/49/1
f 150/178/1 182/42/1 184/47/1
f 149/175/1 181/39/1 183/45/1
f 148/180/1 180/37/1 163/43/1
f 147/182/1 179/36/1 182/42/1
f 149/175/1 146/183/1 178/34/1
f 148/180/1 145/179/1 177/32/1
f 144/181/1 176/29/1 179/36/1
f 143/185/1 175/27/1 178/34/1
f 142/187/1 174/25/1 177/32/1
f 144/181/1 141/189/1 173/24/1
f 143/185/1 140/184/1 172/20/1
f 142/187/1 139/186/1 171/19/1
f 138/188/1 170/15/1 173/24/1
f 137/190/1 169/197/1 172/20/1
f 139/186/1 136/191/1 168/12/1
f 131/177/1 163/43/1 170/15/1
f 135/193/1 167/9/1 169/14/1
f 134/195/1 166/8/1 168/12/1
f 133/196/1 165/6/1 167/9/1
f 134/195/1 132/194/1 164/1/1
f 130/164/1 162/4/1 165/6/1
f 132/194/1 129/166/1 161/64/1
