# Blender v2.80 (sub 75) OBJ File: 'Rock Arch.blend'
# www.blender.org
mtllib Rock Arch.mtl
o Cube
v -1.093607 -1.050624 4.040681
v -0.995512 1.058678 3.917509
v -1.034061 -0.971488 -3.957680
v -1.052265 0.876803 -3.986681
v 1.206461 -1.006795 3.931623
v 0.991594 1.063510 4.233049
v 1.096737 -0.992332 -3.898262
v 1.043645 0.999998 -3.928576
v -0.874686 -1.057988 -2.627002
v -0.817378 -0.844987 -1.393316
v -1.022215 -1.144502 0.078685
v -0.867114 -1.072705 1.335737
v -1.089034 -0.941995 2.752197
v -0.877166 1.152200 2.725031
v -0.817987 1.114704 1.379853
v -0.961993 0.820596 0.023917
v -0.848380 0.787813 -1.390669
v -0.670997 0.842510 -2.483044
v 1.055248 -1.132463 2.617274
v 1.213809 -1.194065 1.466804
v 1.173748 -0.904099 -0.001598
v 1.112743 -1.135255 -1.249046
v 1.143735 -0.795644 -2.614679
v 1.323084 0.914164 -2.590549
v 1.506484 0.843560 -1.248040
v 1.360414 0.974900 -0.003635
v 1.187102 1.014856 1.374533
v 1.261778 0.916335 2.576454
v -0.919039 -0.239469 3.973984
v -1.071333 0.290495 4.110370
v -0.972900 0.285755 -3.980432
v -0.776892 -0.290478 -3.827485
v 0.921897 0.392352 -3.887186
v 1.178834 -0.451570 -3.847223
v 1.018712 0.325651 4.146122
v 0.947702 -0.447197 4.067768
v 1.374880 0.528031 -2.660429
v 1.217103 -0.378171 -2.515783
v 1.331991 0.147160 -1.305007
v 1.379195 -0.156326 -1.374090
v 1.365238 0.316387 0.090875
v 1.300916 -0.499721 0.056967
v 1.326918 0.178061 1.414422
v 1.336371 -0.458668 1.447500
v 1.120136 0.153322 2.592635
v 1.108352 -0.280508 2.758392
v -0.960138 0.308448 2.693923
v -1.121273 -0.374906 2.707025
v -0.802272 0.102663 1.462230
v -0.921602 -0.341545 1.339141
v -0.853003 0.383824 0.005850
v -0.740425 0.117794 -0.003828
v -0.787610 0.090640 -1.249348
v -0.733050 -0.553418 -1.346044
v -0.859451 0.094786 -2.693957
v -0.791073 -0.427983 -2.552822
v 0.234306 -0.922179 -3.880484
v -0.009600 -0.889477 -3.795012
v -0.322486 0.934980 -3.951529
v 0.586623 0.946835 -3.817588
v -0.360778 -0.985660 4.126310
v 0.596877 -1.015315 3.901442
v 0.339875 0.949000 4.034343
v 0.021057 1.137010 4.018201
v -0.138072 0.936995 -2.537113
v 0.758309 0.948256 -2.520766
v -0.167944 1.024002 -1.288701
v 0.597185 0.880775 -1.269524
v -0.125495 0.924067 0.095185
v 0.375058 0.897870 0.067073
v -0.358534 0.981775 1.478050
v 0.434995 0.959539 1.501886
v -0.124918 1.010845 2.587636
v 0.338824 1.048641 2.575327
v 0.294178 -1.074738 -2.580110
v -0.178466 -0.947762 -2.553032
v 0.288095 -1.005970 -1.258126
v -0.139855 -0.893525 -1.354000
v 0.529468 -1.148939 0.012112
v -0.374837 -1.047803 -0.029198
v 0.416994 -1.057433 1.283933
v -0.396702 -1.120105 1.386835
v 0.476181 -1.109417 2.811707
v -0.287830 -1.046493 2.894219
v 0.469762 -0.310216 4.108876
v -0.401657 -0.390069 4.257215
v 0.569386 0.294514 4.062082
v 0.012317 0.275824 4.157079
v -0.108347 -0.291534 -3.933993
v 0.726371 -0.314424 -3.940641
v -0.327516 0.381922 -3.840358
v 0.253600 0.173659 -3.857905
vt 0.621552 0.131823
vt 0.537476 0.012694
vt 0.598905 0.011942
vt 0.529179 0.837525
vt 0.587331 0.806790
vt 0.609522 0.869483
vt 0.984474 0.620137
vt 0.919929 0.766673
vt 0.903917 0.621146
vt 0.366134 0.888107
vt 0.283129 0.794122
vt 0.362696 0.786633
vt 0.440644 0.644301
vt 0.517212 0.748690
vt 0.453562 0.746144
vt 0.256041 0.640117
vt 0.163171 0.761707
vt 0.177289 0.627568
vt 0.193064 0.015418
vt 0.230490 0.152475
vt 0.174846 0.147901
vt 0.178937 0.264822
vt 0.262715 0.386844
vt 0.175463 0.394213
vt 0.248847 0.514228
vt 0.200854 0.523541
vt 0.501997 0.015975
vt 0.418997 0.139764
vt 0.411796 0.017959
vt 0.505239 0.264020
vt 0.418842 0.263421
vt 0.444961 0.382316
vt 0.511702 0.380526
vt 0.433623 0.501306
vt 0.501069 0.625868
vt 0.996529 0.011458
vt 0.948860 0.129740
vt 0.932287 0.014931
vt 0.981634 0.262114
vt 0.907828 0.256331
vt 0.924640 0.387078
vt 0.995098 0.507738
vt 0.908934 0.510856
vt 0.537364 0.752589
vt 0.612589 0.636450
vt 0.618257 0.769002
vt 0.524793 0.515177
vt 0.630559 0.520668
vt 0.597876 0.385049
vt 0.552331 0.255267
vt 0.625224 0.266932
vt 0.543385 0.153076
vt 0.722624 0.251439
vt 0.676218 0.143847
vt 0.742073 0.135582
vt 0.692022 0.256448
vt 0.758128 0.388631
vt 0.625234 0.383497
vt 0.677027 0.508253
vt 0.753139 0.506308
vt 0.743668 0.639251
vt 0.684486 0.636281
vt 0.672719 0.754995
vt 0.758128 0.759570
vt 0.842646 0.513503
vt 0.769465 0.622565
vt 0.765107 0.514820
vt 0.858507 0.636357
vt 0.796137 0.377609
vt 0.839167 0.383347
vt 0.772553 0.260716
vt 0.876616 0.249644
vt 0.853168 0.142675
vt 0.809206 0.133142
vt 0.846253 0.018027
vt 0.789345 0.012889
vt 0.497212 0.851118
vt 0.418654 0.799466
vt 0.502842 0.782151
vt 0.434625 0.848780
vt 0.782680 0.745626
vt 0.838946 0.758814
vt 0.660864 0.825840
vt 0.732101 0.791758
vt 0.723910 0.872362
vt 0.675786 0.783483
vt 0.658745 0.024879
vt 0.730378 0.011365
vt 0.656972 0.966297
vt 0.587198 0.923633
vt 0.657621 0.903913
vt 0.720365 0.895016
vt 0.727640 0.991214
vt 0.443592 0.974040
vt 0.365465 0.939816
vt 0.428293 0.929748
vt 0.502669 0.939656
vt 0.502842 0.996781
vt 0.348840 0.511354
vt 0.276808 0.639278
vt 0.299591 0.506739
vt 0.360766 0.652306
vt 0.350292 0.378762
vt 0.282952 0.389233
vt 0.302992 0.251116
vt 0.373865 0.254538
vt 0.369380 0.142394
vt 0.296883 0.135881
vt 0.386297 0.026037
vt 0.279419 0.011344
vt 0.117981 0.526271
vt 0.032395 0.627318
vt 0.039368 0.514931
vt 0.128868 0.626778
vt 0.123148 0.391881
vt 0.020229 0.386028
vt 0.098954 0.266931
vt 0.003979 0.269498
vt 0.081245 0.150044
vt 0.022187 0.143844
vt 0.098220 0.028575
vt 0.050438 0.018567
vt 0.129774 0.763172
vt 0.061921 0.782359
vt 0.277179 0.759959
vt 0.353603 0.767588
vt 0.285538 0.981209
vt 0.362841 0.982220
vt 0.296779 0.919274
vt 0.534560 0.991214
vt 0.596375 0.984338
vt 0.529288 0.922817
vt 0.523941 0.794889
vt 0.996529 0.775331
vt 0.276596 0.889698
vt 0.269224 0.751498
vt 0.269223 0.011562
vt 0.249788 0.254503
vt 0.507090 0.135899
vt 0.517212 0.518188
vt 0.988648 0.136561
vt 0.993279 0.378696
vt 0.524325 0.641152
vt 0.552707 0.387757
vn -0.9889 -0.1321 0.0676
vn -0.0704 0.0822 -0.9941
vn 0.9800 -0.1801 0.0840
vn -0.0384 0.2469 0.9683
vn 0.0097 -0.9963 0.0850
vn 0.1654 0.9808 -0.1034
vn -0.1725 0.9848 0.0211
vn -0.1813 0.9807 -0.0727
vn -0.1287 0.9888 0.0754
vn 0.2766 0.9610 0.0065
vn 0.1733 0.9829 -0.0622
vn -0.0829 -0.9902 -0.1124
vn -0.1552 -0.9866 0.0506
vn -0.1535 -0.9848 -0.0817
vn 0.3553 -0.9296 0.0983
vn -0.0505 -0.9982 -0.0320
vn 0.9250 -0.2070 -0.3187
vn 0.9701 -0.2401 -0.0368
vn 0.9699 -0.2435 0.0064
vn 0.9849 0.1668 0.0459
vn 0.9701 -0.1766 0.1665
vn -0.9939 0.0788 -0.0770
vn -0.9921 -0.0254 -0.1229
vn -0.9994 -0.0129 0.0323
vn -0.9952 -0.0929 -0.0302
vn -0.9717 0.2311 0.0490
vn -0.9914 0.1288 0.0238
vn -0.9952 -0.0901 0.0385
vn -0.9547 0.2882 -0.0742
vn -0.9951 -0.0903 0.0397
vn -0.9892 -0.0743 0.1263
vn -0.9624 0.2690 -0.0378
vn -0.9863 -0.0728 -0.1478
vn -0.9477 0.2910 -0.1312
vn -0.9773 0.2115 0.0144
vn -0.9646 0.2299 0.1294
vn 0.9768 -0.1590 0.1431
vn 0.9854 0.0368 0.1664
vn 0.9844 -0.1656 -0.0596
vn 0.9996 0.0135 -0.0259
vn 0.9535 -0.3012 0.0092
vn 0.9872 0.1339 0.0861
vn 0.9855 -0.1686 -0.0196
vn 0.9662 0.1899 -0.1741
vn 0.9888 -0.1488 -0.0134
vn 0.9845 -0.1744 -0.0187
vn -0.1248 0.1080 0.9863
vn -0.5262 -0.3506 0.7747
vn 0.9930 -0.0437 -0.1101
vn 0.9889 -0.1018 0.1084
vn -0.0268 -0.0770 -0.9967
vn 0.2070 0.0167 -0.9782
vn -0.9353 0.3277 0.1333
vn -0.9903 -0.1365 -0.0257
vn -0.1566 0.0858 -0.9839
vn -0.0034 0.1640 -0.9865
vn 0.1451 0.1327 -0.9805
vn -0.3504 -0.2666 -0.8979
vn 0.1026 0.0599 0.9929
vn 0.1635 0.0466 0.9854
vn -0.0442 -0.2554 0.9658
vn 0.2149 -0.2398 0.9467
vn -0.1080 -0.9914 0.0746
vn -0.0762 -0.9956 0.0541
vn 0.1537 -0.9874 0.0374
vn 0.0704 -0.9963 -0.0498
vn 0.1154 -0.9764 -0.1826
vn -0.2194 -0.9639 -0.1512
vn 0.1375 -0.9771 0.1623
vn -0.2563 -0.9652 0.0519
vn 0.0915 -0.9929 -0.0755
vn -0.2629 -0.9614 -0.0809
vn -0.0587 0.9946 0.0852
vn -0.0833 0.9925 -0.0898
vn -0.0807 0.9960 -0.0390
vn 0.0497 0.9978 -0.0450
vn 0.0430 0.9941 -0.0999
vn 0.1835 0.9829 0.0179
vn 0.0655 0.9969 0.0435
vn -0.0135 0.9985 0.0521
vn -0.0951 0.9920 0.0835
vn -0.0126 0.9999 0.0006
vn -0.1393 0.9841 -0.1102
vn 0.5049 0.8612 0.0585
vn -0.1142 -0.9899 -0.0839
vn -0.0196 -0.9986 0.0481
vn -0.1743 -0.1215 0.9772
vn 0.1640 0.0991 0.9815
vn 0.2095 0.0178 -0.9776
vn -0.0994 -0.1952 -0.9757
vn -0.9541 0.1711 0.2458
vn -0.2338 -0.0194 -0.9721
vn 0.9871 0.0175 0.1594
vn -0.1095 0.1593 0.9811
vn -0.0074 -0.9954 0.0960
vn -0.0835 0.9941 0.0697
vn -0.0815 0.9957 0.0434
vn -0.3271 0.9450 -0.0058
vn -0.3212 0.9458 -0.0477
vn -0.1034 0.9743 -0.2003
vn 0.2807 0.9597 -0.0144
vn 0.3142 -0.9401 0.1325
vn 0.2959 -0.9285 -0.2242
vn 0.3539 -0.9226 0.1537
vn -0.1237 -0.9742 -0.1890
vn -0.1753 -0.9841 0.0285
vn 0.9676 0.1645 -0.1915
vn 0.9800 0.1542 -0.1258
vn 0.9932 0.0236 0.1141
vn 0.9920 0.0251 0.1240
vn 0.9856 0.1624 -0.0479
vn -0.9908 0.1008 -0.0904
vn -0.9940 0.0995 -0.0465
vn -0.9570 -0.2452 0.1548
vn -0.9684 -0.2387 -0.0722
vn -0.9791 -0.1188 -0.1649
vn -0.9611 0.2660 0.0739
vn -0.9920 -0.1165 0.0490
vn -0.9715 0.2097 -0.1102
vn -0.9195 -0.3907 0.0434
vn -0.9751 0.2139 -0.0584
vn -0.9206 -0.3880 -0.0428
vn -0.9870 -0.0677 -0.1457
vn -0.9614 0.2236 -0.1606
vn -0.9859 -0.0431 0.1620
vn -0.9633 -0.2565 -0.0789
vn 0.9789 -0.0913 0.1827
vn 0.9846 0.0236 0.1733
vn 0.9545 -0.2979 -0.0155
vn 0.9966 -0.0794 0.0206
vn 0.9645 -0.2639 -0.0106
vn 0.9969 -0.0780 -0.0143
vn 0.9588 -0.2716 -0.0833
vn 0.9845 -0.1743 -0.0178
vn 0.9855 -0.1687 -0.0190
vn 0.8972 0.2561 -0.3596
vn -0.5166 -0.2175 0.8281
vn -0.0401 0.1729 0.9841
vn 0.9102 0.3819 0.1603
vn 0.9979 -0.0021 0.0654
vn 0.2189 0.0587 -0.9740
vn -0.0748 0.0958 -0.9926
vn -0.9914 0.1312 0.0031
vn -0.9490 -0.3129 0.0372
vn 0.2336 -0.1744 -0.9566
vn 0.0220 0.1447 -0.9892
vn -0.1528 -0.2476 -0.9567
vn -0.0104 -0.0902 -0.9959
vn -0.1776 -0.0831 0.9806
vn 0.1663 0.0488 0.9849
vn 0.0017 -0.2819 0.9594
vn 0.1822 -0.1991 0.9629
vn -0.1393 -0.9885 0.0583
vn 0.0721 -0.9967 -0.0367
vn -0.0945 -0.9942 -0.0522
vn -0.1137 -0.9916 0.0613
vn -0.0636 -0.9899 -0.1266
vn -0.1066 -0.9901 -0.0912
vn -0.0741 -0.9961 0.0474
vn -0.2641 -0.9633 0.0489
vn 0.1589 -0.9870 -0.0247
vn -0.1689 -0.9798 -0.1072
vn 0.1416 0.9875 -0.0693
vn 0.0290 0.9991 -0.0323
vn -0.0799 0.9960 -0.0395
vn 0.0291 0.9989 -0.0368
vn -0.0798 0.9965 -0.0260
vn 0.0561 0.9960 0.0702
vn 0.0394 0.9975 0.0589
vn 0.1852 0.9806 -0.0639
vn 0.0592 0.9982 -0.0089
vn -0.0131 0.9999 0.0003
vn 0.1415 0.9876 0.0673
vn -0.0831 0.9934 -0.0791
vn 0.0819 -0.9952 0.0540
vn -0.0717 -0.9930 0.0937
vn -0.2818 -0.0582 0.9577
vn 0.0436 0.1586 0.9864
vn 0.0628 -0.1972 -0.9783
vn 0.1459 -0.0113 -0.9892
usemtl None
s off
f 55/1/1 4/2/1 31/3/1
f 60/4/2 33/5/2 92/6/2
f 28/7/3 35/8/3 45/9/3
f 88/10/4 2/11/4 30/12/4
f 83/13/5 5/14/5 62/15/5
f 14/16/6 64/17/6 73/18/6
f 59/19/7 18/20/7 65/21/7
f 18/20/8 67/22/8 65/21/8
f 67/22/9 16/23/9 69/24/9
f 69/24/10 15/25/10 71/26/10
f 71/26/11 14/16/11 73/18/11
f 7/27/12 75/28/12 57/29/12
f 75/28/13 22/30/13 77/31/13
f 22/30/14 79/32/14 77/31/14
f 21/33/15 81/34/15 79/32/15
f 81/34/16 19/35/16 83/13/16
f 8/36/17 37/37/17 33/38/17
f 37/37/18 25/39/18 39/40/18
f 25/39/19 41/41/19 39/40/19
f 41/41/20 27/42/20 43/43/20
f 43/43/21 28/7/21 45/9/21
f 2/44/22 47/45/22 30/46/22
f 47/45/23 15/47/23 49/48/23
f 15/47/24 51/49/24 49/48/24
f 51/49/25 17/50/25 53/51/25
f 53/51/26 18/52/26 55/1/26
f 10/53/27 56/54/27 9/55/27
f 53/51/28 56/54/28 54/56/28
f 11/57/29 54/56/29 10/53/29
f 52/58/30 53/51/30 54/56/30
f 50/59/31 11/57/31 12/60/31
f 49/48/32 52/58/32 50/59/32
f 13/61/33 50/59/33 12/60/33
f 48/62/34 49/48/34 50/59/34
f 29/63/35 13/61/35 1/64/35
f 29/63/36 47/45/36 48/62/36
f 44/65/37 19/66/37 20/67/37
f 44/65/38 45/9/38 46/68/38
f 21/69/39 44/65/39 20/67/39
f 42/70/40 43/43/40 44/65/40
f 22/71/41 42/70/41 21/69/41
f 39/40/42 42/70/42 40/72/42
f 38/73/43 22/71/43 23/74/43
f 38/73/44 39/40/44 40/72/44
f 34/75/45 23/74/45 7/76/45
f 34/75/46 37/37/46 38/73/46
f 61/77/47 29/78/47 1/79/47
f 86/80/48 30/12/48 29/78/48
f 46/68/49 5/81/49 19/66/49
f 46/68/50 35/8/50 36/82/50
f 90/83/51 7/84/51 57/85/51
f 90/83/52 33/5/52 34/86/52
f 9/55/53 32/87/53 3/88/53
f 55/1/54 32/87/54 56/54/54
f 32/89/55 91/90/55 89/91/55
f 89/91/56 92/6/56 90/83/56
f 32/89/57 58/92/57 3/93/57
f 89/91/58 57/85/58 58/92/58
f 36/94/59 87/95/59 85/96/59
f 85/96/60 88/10/60 86/80/60
f 36/94/61 62/97/61 5/98/61
f 85/96/62 61/77/62 62/97/62
f 82/99/63 13/100/63 12/101/63
f 82/99/64 83/13/64 84/102/64
f 80/103/65 12/101/65 11/104/65
f 80/103/66 81/34/66 82/99/66
f 10/105/67 80/103/67 11/104/67
f 77/31/68 80/103/68 78/106/68
f 76/107/69 10/105/69 9/108/69
f 75/28/70 78/106/70 76/107/70
f 58/109/71 9/108/71 3/110/71
f 58/109/72 75/28/72 76/107/72
f 72/111/73 28/112/73 27/113/73
f 72/111/74 73/18/74 74/114/74
f 70/115/75 27/113/75 26/116/75
f 69/24/76 72/111/76 70/115/76
f 68/117/77 26/116/77 25/118/77
f 67/22/78 70/115/78 68/117/78
f 66/119/79 25/118/79 24/120/79
f 65/21/80 68/117/80 66/119/80
f 60/121/81 24/120/81 8/122/81
f 60/121/82 65/21/82 66/119/82
f 28/112/83 63/123/83 6/124/83
f 74/114/84 64/17/84 63/123/84
f 84/102/85 1/125/85 13/100/85
f 84/102/86 62/15/86 61/126/86
f 6/127/87 87/95/87 35/128/87
f 63/129/88 88/10/88 87/95/88
f 4/130/89 91/90/89 31/131/89
f 59/132/90 92/6/90 91/90/90
f 55/1/91 18/52/91 4/2/91
f 60/4/92 8/133/92 33/5/92
f 28/7/93 6/134/93 35/8/93
f 88/10/94 64/135/94 2/11/94
f 83/13/95 19/35/95 5/14/95
f 14/16/96 2/136/96 64/17/96
f 59/19/97 4/137/97 18/20/97
f 18/20/98 17/138/98 67/22/98
f 67/22/99 17/138/99 16/23/99
f 69/24/100 16/23/100 15/25/100
f 71/26/101 15/25/101 14/16/101
f 7/27/102 23/139/102 75/28/102
f 75/28/103 23/139/103 22/30/103
f 22/30/104 21/33/104 79/32/104
f 21/33/105 20/140/105 81/34/105
f 81/34/106 20/140/106 19/35/106
f 8/36/107 24/141/107 37/37/107
f 37/37/108 24/141/108 25/39/108
f 25/39/109 26/142/109 41/41/109
f 41/41/110 26/142/110 27/42/110
f 43/43/111 27/42/111 28/7/111
f 2/44/112 14/143/112 47/45/112
f 47/45/113 14/143/113 15/47/113
f 15/47/114 16/144/114 51/49/114
f 51/49/115 16/144/115 17/50/115
f 53/51/116 17/50/116 18/52/116
f 10/53/117 54/56/117 56/54/117
f 53/51/118 55/1/118 56/54/118
f 11/57/119 52/58/119 54/56/119
f 52/58/120 51/49/120 53/51/120
f 50/59/121 52/58/121 11/57/121
f 49/48/122 51/49/122 52/58/122
f 13/61/123 48/62/123 50/59/123
f 48/62/124 47/45/124 49/48/124
f 29/63/125 48/62/125 13/61/125
f 29/63/126 30/46/126 47/45/126
f 44/65/127 46/68/127 19/66/127
f 44/65/128 43/43/128 45/9/128
f 21/69/129 42/70/129 44/65/129
f 42/70/130 41/41/130 43/43/130
f 22/71/131 40/72/131 42/70/131
f 39/40/132 41/41/132 42/70/132
f 38/73/133 40/72/133 22/71/133
f 38/73/134 37/37/134 39/40/134
f 34/75/135 38/73/135 23/74/135
f 34/75/136 33/38/136 37/37/136
f 61/77/137 86/80/137 29/78/137
f 86/80/138 88/10/138 30/12/138
f 46/68/139 36/82/139 5/81/139
f 46/68/140 45/9/140 35/8/140
f 90/83/141 34/86/141 7/84/141
f 90/83/142 92/6/142 33/5/142
f 9/55/143 56/54/143 32/87/143
f 55/1/144 31/3/144 32/87/144
f 32/89/145 31/131/145 91/90/145
f 89/91/146 91/90/146 92/6/146
f 32/89/147 89/91/147 58/92/147
f 89/91/148 90/83/148 57/85/148
f 36/94/149 35/128/149 87/95/149
f 85/96/150 87/95/150 88/10/150
f 36/94/151 85/96/151 62/97/151
f 85/96/152 86/80/152 61/77/152
f 82/99/153 84/102/153 13/100/153
f 82/99/154 81/34/154 83/13/154
f 80/103/155 82/99/155 12/101/155
f 80/103/156 79/32/156 81/34/156
f 10/105/157 78/106/157 80/103/157
f 77/31/158 79/32/158 80/103/158
f 76/107/159 78/106/159 10/105/159
f 75/28/160 77/31/160 78/106/160
f 58/109/161 76/107/161 9/108/161
f 58/109/162 57/29/162 75/28/162
f 72/111/163 74/114/163 28/112/163
f 72/111/164 71/26/164 73/18/164
f 70/115/165 72/111/165 27/113/165
f 69/24/166 71/26/166 72/111/166
f 68/117/167 70/115/167 26/116/167
f 67/22/168 69/24/168 70/115/168
f 66/119/169 68/117/169 25/118/169
f 65/21/170 67/22/170 68/117/170
f 60/121/171 66/119/171 24/120/171
f 60/121/172 59/19/172 65/21/172
f 28/112/173 74/114/173 63/123/173
f 74/114/174 73/18/174 64/17/174
f 84/102/175 61/126/175 1/125/175
f 84/102/176 83/13/176 62/15/176
f 6/127/177 63/129/177 87/95/177
f 63/129/178 64/135/178 88/10/178
f 4/130/179 59/132/179 91/90/179
f 59/132/180 60/4/180 92/6/180
