# Blender v2.80 (sub 75) OBJ File: 'wooden_sign.blend'
# www.blender.org
mtllib Sign.mtl
o Cube.002_Cube.005
v -1.500713 1.552949 0.359217
v -1.746766 3.552949 0.376793
v -1.500713 1.552949 0.144820
v -1.746766 3.552949 0.127245
v 1.500713 1.552949 0.359217
v 1.746766 3.552949 0.376793
v 1.500713 1.552949 0.144820
v 1.746766 3.552949 0.127245
v -1.636890 2.659838 0.368944
v -1.718907 3.326505 0.374803
v -1.718907 3.326505 0.129234
v -1.636889 2.659838 0.135093
v 1.718907 3.326505 0.129234
v 1.636889 2.659838 0.135093
v 1.718907 3.326505 0.374803
v 1.636889 2.659838 0.368944
v -1.690330 3.094218 0.372761
v -1.690330 3.094218 0.131276
v 1.645665 3.041349 0.131276
v 1.645665 3.041349 0.372761
v -1.704529 3.209636 0.373776
v -1.704529 3.209636 0.130262
v 1.524047 3.209636 0.130262
v 1.524047 3.209636 0.373776
v -1.530153 2.541659 0.136132
v 1.622350 2.541659 0.136132
v 1.622350 2.541659 0.367906
v -1.530153 2.541659 0.367906
v -1.609071 2.433724 0.137080
v 1.609071 2.433724 0.137080
v 1.609071 2.433724 0.366957
v -1.609071 2.433724 0.366957
v 0.117772 0.033659 0.110506
v 0.137081 4.037669 0.128082
v 0.117772 0.033659 -0.103890
v 0.137081 4.037669 -0.121466
v -0.117772 0.033659 0.110506
v -0.137081 3.983519 0.128082
v -0.117772 0.033659 -0.103890
v -0.137081 3.983519 -0.121466
v 0.128459 2.219687 0.120233
v 0.134895 3.536308 0.126092
v 0.134895 3.536308 -0.119476
v 0.128459 2.219687 -0.113618
v -0.134895 3.536308 -0.119476
v -0.128459 2.219687 -0.113618
v -0.134895 3.536308 0.126092
v -0.128459 2.219687 0.120233
v 0.132652 3.077557 0.124051
v 0.132652 3.077557 -0.117435
v -0.129147 2.973145 -0.117435
v -0.129147 2.973145 0.124051
v 0.133767 3.305501 0.125065
v 0.133767 3.305501 -0.118449
v -0.086027 3.305501 -0.118449
v -0.086027 3.305501 0.125065
v 0.096350 1.986292 -0.112579
v -0.127318 1.986292 -0.112579
v -0.127318 1.986292 0.119195
v 0.096350 1.986292 0.119195
v 0.126275 1.773128 -0.111631
v -0.126275 1.773128 -0.111631
v -0.126275 1.773128 0.118246
v 0.126275 1.773128 0.118246
vt 0.237552 0.468896
vt 0.211053 0.729436
vt 0.211053 0.470991
vt 0.563434 0.266573
vt 0.589912 0.006037
vt 0.589912 0.264483
vt 0.241459 0.731530
vt 0.267870 0.470991
vt 0.267870 0.729436
vt 0.283471 0.996060
vt 0.309949 0.735517
vt 0.309949 0.993962
vt 0.524303 0.958511
vt 0.755404 0.732872
vt 0.755404 0.958511
vt 0.284040 0.725548
vt 0.555849 0.462913
vt 0.555850 0.725548
vt 0.387901 0.987786
vt 0.401720 0.749695
vt 0.401720 0.986691
vt 0.323614 0.979312
vt 0.323614 0.736596
vt 0.932801 0.008929
vt 0.919017 0.253950
vt 0.919017 0.010022
vt 0.738951 0.532835
vt 0.755914 0.275470
vt 0.755914 0.531754
vt 0.681683 0.250305
vt 0.667864 0.012214
vt 0.681683 0.013309
vt 0.603577 0.020688
vt 0.603577 0.263404
vt 0.133040 0.477156
vt 0.118964 0.722177
vt 0.118964 0.478249
vt 0.197377 0.728355
vt 0.197377 0.472071
vt 0.183871 0.473139
vt 0.133040 0.723270
vt 0.667864 0.258327
vt 0.623245 0.011547
vt 0.977334 0.004912
vt 0.932801 0.255043
vt 0.343282 0.988453
vt 0.387901 0.741672
vt 0.183871 0.727288
vt 0.617073 0.262338
vt 0.997099 0.003844
vt 0.977334 0.259061
vt 0.337110 0.737662
vt 0.106580 0.721179
vt 0.106580 0.479248
vt 0.694304 0.014309
vt 0.694304 0.256240
vt 0.906428 0.252952
vt 0.906428 0.011021
vt 0.414340 0.985691
vt 0.414340 0.743760
vt 0.517328 0.977531
vt 0.517328 0.751892
vt 0.803700 0.244806
vt 0.803700 0.019167
vt 0.797291 0.022469
vt 0.797291 0.248108
vt 0.003511 0.713033
vt 0.003511 0.487394
vt 0.273719 0.401661
vt 0.004077 0.458185
vt 0.275886 0.458185
vt 0.822432 0.665555
vt 0.801119 0.715900
vt 0.822432 0.722065
vt 0.286208 0.401837
vt 0.555849 0.452290
vt 0.553682 0.401837
vt 0.800479 0.333793
vt 0.779167 0.283448
vt 0.779489 0.333849
vt 0.738422 0.273897
vt 0.720096 0.499537
vt 0.738422 0.499537
vt 0.778517 0.274452
vt 0.756499 0.537087
vt 0.778517 0.537087
vt 0.780438 0.482235
vt 0.798008 0.508493
vt 0.780606 0.508540
vt 0.783370 0.359852
vt 0.800470 0.359806
vt 0.293720 0.226971
vt 0.547301 0.253302
vt 0.546169 0.226971
vt 0.287327 0.375754
vt 0.552563 0.375754
vt 0.819960 0.490855
vt 0.802390 0.517113
vt 0.822379 0.517166
vt 0.805322 0.639496
vt 0.822423 0.639542
vt 0.266206 0.226992
vt 0.012626 0.253225
vt 0.267337 0.253225
vt 0.007363 0.375640
vt 0.272600 0.375640
vt 0.271495 0.349941
vt 0.802079 0.602020
vt 0.822413 0.613852
vt 0.292589 0.253302
vt 0.551458 0.338301
vt 0.780127 0.397328
vt 0.800427 0.482182
vt 0.008468 0.349941
vt 0.288431 0.338301
vt 0.800461 0.385496
vt 0.014790 0.202880
vt 0.265173 0.202880
vt 0.802712 0.466784
vt 0.822361 0.466837
vt 0.294753 0.202923
vt 0.545136 0.202923
vt 0.780760 0.532564
vt 0.800409 0.532511
vt 0.800340 0.728557
vt 0.782014 0.728606
vt 0.303184 0.006684
vt 0.536705 0.006684
vt 0.803966 0.270742
vt 0.822292 0.270792
vt 0.256742 0.006771
vt 0.237552 0.731531
vt 0.563434 0.003940
vt 0.241459 0.468896
vt 0.283471 0.733427
vt 0.524303 0.732872
vt 0.284040 0.462913
vt 0.738951 0.274389
vt 0.997099 0.260128
vt 0.006245 0.401661
vt 0.801441 0.665499
vt 0.284040 0.452290
vt 0.800479 0.277283
vt 0.720096 0.273897
vt 0.756499 0.274452
vt 0.802558 0.490808
vt 0.013757 0.226992
vt 0.023221 0.006771
vn -0.9925 -0.1221 0.0000
vn 0.0000 -0.0088 -1.0000
vn 0.9925 -0.1221 0.0000
vn 0.0000 -0.0088 1.0000
vn 0.0000 -1.0000 0.0000
vn 0.0000 1.0000 0.0000
vn 0.5143 -0.8576 0.0000
vn -0.7421 -0.6703 -0.0000
vn 0.0000 -0.0100 -0.9999
vn 0.9997 -0.0230 0.0000
vn 0.0000 -0.0100 0.9999
vn -0.0001 -0.0061 -1.0000
vn 0.8105 0.5857 0.0000
vn -0.0001 -0.0061 1.0000
vn -0.8072 0.5902 0.0000
vn 1.0000 -0.0044 0.0000
vn 0.0008 -0.0040 -1.0000
vn -1.0000 -0.0049 0.0000
vn 0.0000 -0.0044 1.0000
vn -0.1938 0.9810 0.0000
vn -0.0000 0.0044 -1.0000
vn -0.9783 -0.2071 0.0000
vn 0.0000 -0.0044 -1.0000
vn 0.9907 -0.1363 -0.0000
vn 1.0000 -0.0049 0.0000
vn 0.0018 -0.0045 -1.0000
vn -1.0000 -0.0009 0.0000
vn 0.0000 0.0051 -1.0000
vn -0.9917 0.1287 0.0000
vn -0.0013 0.0032 -1.0000
vn 0.9903 0.1390 0.0000
vn -0.0001 -0.0088 -1.0000
vn -0.0001 -0.0088 1.0000
vn 0.0008 -0.0040 1.0000
vn 0.0000 -0.0051 -1.0000
vn -0.0018 0.0045 -1.0000
vn 0.0013 -0.0032 -1.0000
usemtl Material.001
s off
f 2/1/1 11/2/1 10/3/1
f 4/4/2 13/5/2 11/6/2
f 8/7/3 15/8/3 13/9/3
f 6/10/4 10/11/4 15/12/4
f 7/13/5 1/14/5 3/15/5
f 4/16/6 6/17/6 8/18/6
f 16/19/4 28/20/4 27/21/4
f 24/22/4 10/11/4 21/23/4
f 14/24/3 27/25/3 26/26/3
f 13/27/7 24/28/7 23/29/7
f 25/30/2 14/31/2 26/32/2
f 11/6/2 23/33/2 22/34/2
f 9/35/8 25/36/8 28/37/8
f 10/3/1 22/38/1 21/39/1
f 17/40/1 12/41/1 9/35/1
f 12/42/9 19/43/9 14/31/9
f 19/44/10 16/45/10 14/24/10
f 20/46/11 9/47/11 16/19/11
f 21/39/1 18/48/1 17/40/1
f 18/49/12 23/33/12 19/43/12
f 23/50/13 20/51/13 19/44/13
f 24/22/14 17/52/14 20/46/14
f 28/37/15 29/53/15 32/54/15
f 25/30/2 30/55/2 29/56/2
f 26/26/3 31/57/3 30/58/3
f 31/59/4 28/20/4 32/60/4
f 5/61/4 32/60/4 1/62/4
f 30/58/3 5/63/3 7/64/3
f 29/56/2 7/65/2 3/66/2
f 32/54/1 3/67/1 1/68/1
f 42/69/16 36/70/16 34/71/16
f 43/72/17 40/73/17 36/74/17
f 47/75/18 40/76/18 45/77/18
f 42/78/19 38/79/19 47/80/19
f 33/81/5 39/82/5 35/83/5
f 38/84/20 36/85/20 40/86/20
f 48/87/21 60/88/21 59/89/21
f 56/90/21 42/78/21 53/91/21
f 59/92/18 46/93/18 58/94/18
f 56/95/22 45/77/22 55/96/22
f 57/97/23 46/98/23 44/99/23
f 55/100/23 43/72/23 54/101/23
f 60/102/24 44/103/24 41/104/24
f 54/105/25 42/69/25 53/106/25
f 44/103/25 49/107/25 41/104/25
f 44/99/26 51/108/26 50/109/26
f 48/110/27 51/111/27 46/93/27
f 52/112/28 41/113/28 48/87/28
f 50/114/25 53/106/25 49/107/25
f 50/109/23 55/100/23 54/101/23
f 52/115/29 55/96/29 51/111/29
f 56/90/30 49/116/30 52/112/30
f 61/117/31 60/102/31 64/118/31
f 62/119/23 57/97/23 61/120/23
f 63/121/18 58/94/18 62/122/18
f 63/123/21 60/88/21 64/124/21
f 33/125/19 63/123/19 37/126/19
f 37/127/18 62/122/18 39/128/18
f 39/129/23 61/120/23 35/130/23
f 33/131/25 61/117/25 64/118/25
f 2/1/1 4/132/1 11/2/1
f 4/4/2 8/133/2 13/5/2
f 8/7/3 6/134/3 15/8/3
f 6/10/4 2/135/4 10/11/4
f 7/13/5 5/136/5 1/14/5
f 4/16/6 2/137/6 6/17/6
f 16/19/4 9/47/4 28/20/4
f 24/22/4 15/12/4 10/11/4
f 14/24/3 16/45/3 27/25/3
f 13/27/7 15/138/7 24/28/7
f 25/30/2 12/42/2 14/31/2
f 11/6/2 13/5/2 23/33/2
f 9/35/8 12/41/8 25/36/8
f 10/3/1 11/2/1 22/38/1
f 17/40/1 18/48/1 12/41/1
f 12/42/32 18/49/32 19/43/32
f 19/44/10 20/51/10 16/45/10
f 20/46/33 17/52/33 9/47/33
f 21/39/1 22/38/1 18/48/1
f 18/49/2 22/34/2 23/33/2
f 23/50/13 24/139/13 20/51/13
f 24/22/4 21/23/4 17/52/4
f 28/37/15 25/36/15 29/53/15
f 25/30/2 26/32/2 30/55/2
f 26/26/3 27/25/3 31/57/3
f 31/59/4 27/21/4 28/20/4
f 5/61/4 31/59/4 32/60/4
f 30/58/3 31/57/3 5/63/3
f 29/56/2 30/55/2 7/65/2
f 32/54/1 29/53/1 3/67/1
f 42/69/16 43/140/16 36/70/16
f 43/72/23 45/141/23 40/73/23
f 47/75/18 38/142/18 40/76/18
f 42/78/34 34/143/34 38/79/34
f 33/81/5 37/144/5 39/82/5
f 38/84/20 34/145/20 36/85/20
f 48/87/21 41/113/21 60/88/21
f 56/90/21 47/80/21 42/78/21
f 59/92/18 48/110/18 46/93/18
f 56/95/22 47/75/22 45/77/22
f 57/97/23 58/146/23 46/98/23
f 55/100/23 45/141/23 43/72/23
f 60/102/24 57/147/24 44/103/24
f 54/105/25 43/140/25 42/69/25
f 44/103/25 50/114/25 49/107/25
f 44/99/35 46/98/35 51/108/35
f 48/110/27 52/115/27 51/111/27
f 52/112/36 49/116/36 41/113/36
f 50/114/25 54/105/25 53/106/25
f 50/109/37 51/108/37 55/100/37
f 52/115/29 56/95/29 55/96/29
f 56/90/21 53/91/21 49/116/21
f 61/117/31 57/147/31 60/102/31
f 62/119/23 58/146/23 57/97/23
f 63/121/18 59/92/18 58/94/18
f 63/123/21 59/89/21 60/88/21
f 33/125/19 64/124/19 63/123/19
f 37/127/18 63/121/18 62/122/18
f 39/129/23 62/119/23 61/120/23
f 33/131/25 35/148/25 61/117/25
