# Blender v2.80 (sub 75) OBJ File: 'Terrain Part - #2.blend'
# www.blender.org
mtllib Terrain Part - #2.mtl
o rock3_Cylinder.011
v 0.063012 0.676404 -0.195122
v 0.015406 0.030985 -1.115002
v 0.121522 0.624477 -0.840216
v 0.740841 0.037737 -0.773646
v 0.608598 0.575450 -0.486256
v 0.897386 0.063751 0.068204
v 0.707818 0.645517 0.128648
v 0.391339 0.068889 0.651995
v 0.383962 0.686469 0.492847
v -0.430476 -0.011408 0.601154
v -0.352789 0.664980 0.364305
v -0.895058 0.001696 -0.060112
v -0.680526 0.612259 -0.205037
v -0.678089 0.068191 -0.870645
v -0.382317 0.615060 -0.805902
v 0.661171 0.477941 -0.528684
v 0.352557 0.063727 -0.982909
v 0.152041 0.730281 -0.509376
v 0.462599 0.643710 -0.317684
v 0.433143 0.632463 -0.723572
v 0.107902 0.547008 -0.899740
v 0.578778 0.355905 -0.605840
v 0.840014 0.063751 -0.371642
v 0.422352 0.692221 0.035157
v 0.753391 0.630505 -0.145246
v 0.774459 0.412290 0.055656
v 0.666073 0.063366 0.389369
v 0.182589 0.793186 0.259250
v 0.521582 0.717528 0.297827
v 0.430155 0.245909 0.461110
v -0.023218 0.031892 0.653525
v -0.253609 0.730081 0.121391
v 0.050089 0.745175 0.515109
v -0.306540 0.363728 0.409563
v -0.649967 0.041842 0.323119
v -0.356033 0.619271 -0.192328
v -0.508204 0.636145 0.116556
v -0.721561 0.322746 -0.160086
v -0.865441 0.041094 -0.457301
v -0.328761 0.603209 -0.589313
v -0.543325 0.573973 -0.648577
v -0.585030 0.315549 -0.759134
v -0.429274 0.063727 -0.982909
v -0.136825 0.612711 -0.870891
v 0.003466 0.336900 -0.897202
v 0.730675 0.590499 0.128263
v 0.406401 0.589183 0.487317
v -0.364984 0.597879 0.386744
v -0.663681 0.537744 -0.243021
v -0.435754 0.489478 -0.827451
v 0.410339 0.535834 -0.766319
v 0.315930 0.352626 -0.778393
v 0.696112 0.380132 -0.450654
v 0.616993 0.366975 0.355630
v 0.071696 0.340272 0.525861
v -0.561330 0.344529 0.189229
v -0.717603 0.339398 -0.521917
v -0.272547 0.325037 -0.835457
v -0.184601 0.559990 -0.905024
v -0.639817 0.507223 -0.591473
v -0.560343 0.575888 0.083142
v 0.051185 0.687029 0.511709
v 0.569152 0.637411 0.308128
v 0.770001 0.571282 -0.198698
vt 0.356070 0.940916
vt 0.356566 0.941071
vt 0.356721 0.941567
vt 0.356721 0.940916
vt 0.356070 0.941567
vt 0.356070 0.940916
vt 0.356721 0.940916
vt 0.356566 0.941412
vt 0.356721 0.940916
vt 0.356070 0.941567
vt 0.356070 0.940916
vt 0.356721 0.940916
vt 0.356721 0.941567
vt 0.356721 0.940916
vt 0.356070 0.941567
vt 0.356070 0.940916
vt 0.356721 0.940916
vt 0.356721 0.941567
vt 0.356070 0.940916
vt 0.356721 0.941567
vt 0.356070 0.941567
vt 0.356721 0.940916
vt 0.356721 0.941567
vt 0.356070 0.940916
vt 0.356721 0.941567
vt 0.356070 0.941567
vt 0.356721 0.940916
vt 0.356721 0.941567
vt 0.356721 0.940916
vt 0.356070 0.941567
vt 0.356070 0.940916
vt 0.356721 0.940916
vt 0.356721 0.941567
vt 0.356721 0.940916
vt 0.356070 0.941567
vt 0.356070 0.940916
vt 0.348717 0.044826
vt 0.347579 0.045965
vt 0.347579 0.044826
vt 0.348717 0.044826
vt 0.347579 0.045965
vt 0.347579 0.044826
vt 0.348717 0.044826
vt 0.347579 0.045965
vt 0.347579 0.044826
vt 0.347579 0.044826
vt 0.348717 0.045965
vt 0.347579 0.045965
vt 0.348717 0.044826
vt 0.347579 0.045965
vt 0.347579 0.044826
vt 0.348717 0.044826
vt 0.347579 0.045965
vt 0.347579 0.044826
vt 0.348717 0.044826
vt 0.347579 0.045965
vt 0.347579 0.044826
vt 0.348717 0.044826
vt 0.347579 0.045965
vt 0.347579 0.044826
vt 0.348717 0.044826
vt 0.347579 0.045965
vt 0.347579 0.044826
vt 0.347579 0.045965
vt 0.347579 0.044826
vt 0.348717 0.045965
vt 0.347579 0.044826
vt 0.348717 0.045965
vt 0.347579 0.045965
vt 0.347579 0.044826
vt 0.348717 0.045965
vt 0.347579 0.045965
vt 0.347579 0.044826
vt 0.348717 0.044826
vt 0.347579 0.045965
vt 0.347579 0.044826
vt 0.348717 0.045965
vt 0.347579 0.045965
vt 0.348717 0.044826
vt 0.347579 0.045965
vt 0.347579 0.044826
vt 0.347579 0.044826
vt 0.347579 0.044826
vt 0.348717 0.045965
vt 0.347579 0.045965
vt 0.347579 0.044826
vt 0.348717 0.045965
vt 0.347579 0.045965
vt 0.348717 0.044826
vt 0.347579 0.045965
vt 0.347579 0.044826
vt 0.348717 0.044826
vt 0.347579 0.045965
vt 0.347579 0.044826
vt 0.348717 0.044826
vt 0.347579 0.045965
vt 0.347579 0.044826
vt 0.348717 0.044826
vt 0.347579 0.045965
vt 0.347579 0.044826
vt 0.348717 0.044826
vt 0.347579 0.045965
vt 0.347579 0.044826
vt 0.348717 0.044826
vt 0.347579 0.045965
vt 0.347579 0.044826
vt 0.348717 0.044826
vt 0.347579 0.045965
vt 0.347579 0.044826
vt 0.348717 0.044826
vt 0.347579 0.045965
vt 0.347579 0.044826
vt 0.348717 0.044826
vt 0.347579 0.045965
vt 0.347579 0.044826
vt 0.348717 0.044826
vt 0.347579 0.045965
vt 0.347579 0.044826
vt 0.356721 0.940916
vt 0.356070 0.941567
vt 0.356070 0.940916
vt 0.356070 0.940916
vt 0.356721 0.941567
vt 0.356721 0.941567
vt 0.356070 0.940916
vt 0.356721 0.940916
vt 0.356070 0.940916
vt 0.356721 0.941567
vt 0.356070 0.941567
vt 0.356070 0.940916
vt 0.356070 0.940916
vt 0.356721 0.941567
vt 0.356070 0.941567
vt 0.356070 0.940916
vt 0.356721 0.940916
vt 0.356721 0.940916
vt 0.356721 0.940916
vt 0.356070 0.941567
vt 0.356070 0.940916
vt 0.356070 0.940916
vt 0.356721 0.940916
vt 0.356721 0.941567
vt 0.356721 0.941567
vt 0.356721 0.940916
vt 0.356721 0.940916
vt 0.356070 0.941567
vt 0.356070 0.940916
vt 0.356070 0.940916
vt 0.356721 0.941567
vt 0.356721 0.941567
vt 0.356721 0.940916
vt 0.356070 0.941567
vt 0.356070 0.940916
vt 0.356225 0.941071
vt 0.356721 0.941567
vt 0.356721 0.941567
vt 0.356070 0.941567
vt 0.356070 0.940916
vt 0.356721 0.941567
vt 0.356721 0.941567
vt 0.348717 0.044826
vt 0.348717 0.044826
vt 0.347579 0.045965
vt 0.347579 0.044826
vt 0.348717 0.045965
vt 0.348717 0.045965
vt 0.348717 0.045965
vt 0.348717 0.044826
vt 0.348717 0.045965
vt 0.348717 0.045965
vt 0.348717 0.045965
vt 0.348717 0.045965
vt 0.348717 0.045965
vt 0.348717 0.044826
vt 0.348717 0.044826
vt 0.348717 0.044826
vt 0.348717 0.045965
vt 0.348717 0.044826
vt 0.348717 0.044826
vt 0.348717 0.045965
vt 0.348717 0.045965
vt 0.348717 0.045965
vt 0.348717 0.045965
vt 0.348717 0.045965
vt 0.348717 0.045965
vt 0.348717 0.045965
vt 0.348717 0.045965
vt 0.348717 0.045965
vt 0.348717 0.045965
vt 0.348717 0.045965
vn 0.1425 0.9681 0.2063
vn 0.6979 0.1455 -0.7012
vn 0.0407 0.9905 -0.1315
vn 0.9782 0.1776 0.1072
vn 0.1379 0.9499 -0.2804
vn 0.6013 0.4426 0.6653
vn -0.0672 0.9705 -0.2318
vn -0.3376 0.3532 0.8725
vn -0.1311 0.9474 -0.2918
vn -0.8760 -0.3610 0.3198
vn -0.1353 0.9896 -0.0493
vn -0.6628 0.4395 -0.6062
vn -0.2682 0.9593 0.0885
vn 0.0384 0.5183 -0.8543
vn -0.8490 0.1890 -0.4935
vn -0.8972 0.1872 0.3999
vn -0.2926 0.0217 0.9560
vn 0.5064 -0.0307 0.8617
vn 0.9713 -0.1936 -0.1380
vn -0.2282 -0.1799 -0.9568
vn 0.5369 -0.2230 -0.8136
vn 0.4221 0.5588 -0.7138
vn 0.2519 0.5678 -0.7837
vn 0.3581 -0.1235 -0.9255
vn 0.9374 0.3262 -0.1223
vn 0.9040 0.3498 -0.2457
vn 0.7983 -0.1746 -0.5763
vn 0.5928 0.5268 0.6091
vn 0.7755 0.2936 0.5589
vn 0.9409 0.0723 -0.3308
vn -0.1623 0.4908 0.8560
vn -0.0315 0.3906 0.9200
vn 0.8835 0.0265 0.4678
vn -0.7805 0.4295 0.4542
vn -0.6257 0.5087 0.5914
vn 0.1610 -0.0640 0.9849
vn -0.8624 0.3476 -0.3681
vn -0.8821 0.4707 -0.0191
vn -0.6478 -0.0879 0.7567
vn -0.1956 0.5683 -0.7992
vn -0.3509 0.4914 -0.7972
vn -0.9655 0.2605 0.0014
vn -0.3580 0.3038 -0.8829
vn 0.0225 0.9985 0.0491
vn -0.2337 0.9640 -0.1268
vn -0.0073 0.9526 -0.3040
vn -0.6088 0.7856 -0.1105
vn -0.0179 0.9956 -0.0915
vn -0.1217 0.9914 -0.0485
vn -0.1597 0.9828 0.0933
vn -0.7793 0.4128 0.4715
vn -0.3459 0.9320 0.1085
vn -0.3345 0.9176 -0.2149
vn -0.0191 0.9978 -0.0639
vn 0.0565 -0.0437 0.9974
vn 0.1842 0.9443 0.2726
vn -0.1719 0.9805 0.0950
vn -0.2483 0.9562 0.1549
vn 0.7466 0.3061 0.5907
vn 0.2141 0.9613 -0.1735
vn 0.2338 0.9554 -0.1804
vn 0.1792 0.9441 0.2768
vn 0.7239 0.5635 -0.3981
vn 0.1804 0.9561 -0.2309
vn 0.1172 0.9856 -0.1221
vn 0.1696 0.9852 -0.0258
vn 0.3590 0.5282 -0.7695
vn 0.0922 0.9459 -0.3110
vn 0.2955 0.9541 -0.0479
vn 0.3724 0.9266 -0.0527
vn 0.3888 -0.2041 -0.8984
vn -0.2051 -0.2065 -0.9567
vn 0.7232 0.5636 -0.3992
vn 0.9158 0.3795 0.1316
vn 0.7963 0.1504 0.5859
vn -0.3392 -0.0613 0.9387
vn -0.7923 0.4695 0.3897
vn -0.6911 0.3976 -0.6035
vn 0.0673 0.6004 -0.7968
vn -0.6953 0.3502 -0.6276
vn -0.9073 0.3398 0.2477
vn -0.2915 0.0204 0.9563
vn 0.6850 0.2419 0.6872
vn 0.9748 0.1964 0.1057
vn -0.2400 -0.1919 -0.9516
vn 0.6872 -0.0046 -0.7265
vn 0.4404 0.5840 -0.6819
vn 0.2640 0.5794 -0.7711
vn 0.9127 0.3739 -0.1650
vn 0.5967 0.5905 -0.5434
vn 0.4016 0.1650 0.9008
vn 0.8568 0.1917 0.4787
vn -0.2402 0.4335 0.8686
vn 0.2990 0.6686 0.6808
vn 0.7525 0.2408 0.6130
vn -0.7849 0.5261 0.3272
vn -0.5992 0.4640 0.6524
vn 0.0809 0.0454 0.9957
vn -0.7405 0.4872 -0.4628
vn -0.8950 0.4459 0.0107
vn -0.8244 0.2388 0.5132
vn -0.2034 0.5626 -0.8013
vn -0.2108 0.5732 -0.7918
vn -0.9177 0.3853 -0.0966
vn -0.1890 0.6486 -0.7373
vn -0.9548 -0.0683 -0.2894
vn -0.8213 0.3095 0.4792
vn 0.0564 -0.0572 0.9968
vn 0.6848 0.4774 0.5506
vn 0.7243 0.5627 -0.3984
vn 0.3253 0.3173 -0.8908
vn 0.0171 -0.0206 -0.9996
usemtl matLowPoly
s off
f 1/1/1 19/2/1 18/3/1
f 20/4/2 16/5/2 51/6/2
f 1/1/3 24/7/3 19/8/3
f 25/9/4 46/10/4 64/11/4
f 1/1/5 28/12/5 24/13/5
f 29/14/6 47/15/6 63/16/6
f 1/1/7 32/17/7 28/18/7
f 62/19/8 11/20/8 48/21/8
f 1/1/9 36/22/9 32/23/9
f 61/24/10 13/25/10 49/26/10
f 1/1/11 40/27/11 36/28/11
f 41/29/12 50/30/12 60/31/12
f 1/1/13 18/32/13 40/33/13
f 44/34/14 21/35/14 59/36/14
f 60/37/15 42/38/15 57/39/15
f 61/40/16 38/41/16 56/42/16
f 62/43/17 34/44/17 55/45/17
f 54/46/18 47/47/18 30/48/18
f 64/49/19 26/50/19 53/51/19
f 50/52/20 58/53/20 42/54/20
f 51/55/21 22/56/21 52/57/21
f 52/58/22 4/59/22 17/60/22
f 45/61/23 17/62/23 2/63/23
f 52/64/24 45/65/24 51/66/24
f 23/67/25 26/68/25 6/69/25
f 4/70/26 53/71/26 23/72/26
f 22/73/27 16/74/27 53/75/27
f 27/76/28 30/77/28 8/78/28
f 26/79/29 27/80/29 6/81/29
f 16/82/30 64/49/30 53/75/30
f 31/83/31 34/84/31 10/85/31
f 8/86/32 55/87/32 31/88/32
f 46/89/33 54/90/33 26/91/33
f 56/92/34 12/93/34 35/94/34
f 34/95/35 35/96/35 10/97/35
f 47/98/36 55/99/36 30/100/36
f 57/101/37 14/102/37 39/103/37
f 38/104/38 39/105/38 12/106/38
f 48/107/39 56/108/39 34/109/39
f 58/110/40 2/111/40 43/112/40
f 42/113/41 43/114/41 14/115/41
f 49/116/42 57/117/42 38/118/42
f 15/119/43 59/120/43 50/121/43
f 40/122/44 44/34/44 15/123/44
f 40/122/45 18/32/45 44/124/45
f 18/125/46 3/126/46 44/124/46
f 49/127/47 41/128/47 60/129/47
f 36/130/48 41/29/48 13/25/48
f 36/130/49 40/27/49 41/128/49
f 40/122/50 15/119/50 41/128/50
f 48/131/51 37/132/51 61/133/51
f 32/134/52 37/135/52 11/20/52
f 32/134/53 36/22/53 37/132/53
f 36/130/54 13/136/54 37/132/54
f 9/137/55 62/138/55 47/139/55
f 28/140/56 33/141/56 9/142/56
f 28/140/57 32/17/57 33/143/57
f 32/134/58 11/144/58 33/143/58
f 7/145/59 63/146/59 46/147/59
f 24/148/60 29/14/60 7/149/60
f 24/148/61 28/12/61 29/150/61
f 28/140/62 9/137/62 29/150/62
f 5/151/63 64/152/63 16/153/63
f 19/154/64 25/9/64 5/155/64
f 19/154/65 24/7/65 25/156/65
f 24/148/66 7/145/66 25/156/66
f 3/126/67 51/157/67 21/158/67
f 18/125/68 20/4/68 3/159/68
f 18/125/69 19/2/69 20/160/69
f 19/154/70 5/151/70 20/160/70
f 45/65/71 21/161/71 51/66/71
f 59/162/72 45/163/72 58/164/72
f 20/4/73 5/155/73 16/5/73
f 25/9/74 7/149/74 46/10/74
f 29/14/75 9/142/75 47/15/75
f 62/19/76 33/141/76 11/20/76
f 61/24/77 37/135/77 13/25/77
f 41/29/78 15/123/78 50/30/78
f 44/34/79 3/159/79 21/35/79
f 60/37/80 50/165/80 42/38/80
f 61/40/81 49/166/81 38/41/81
f 62/43/82 48/167/82 34/44/82
f 54/46/83 63/168/83 47/47/83
f 64/49/84 46/169/84 26/50/84
f 50/52/85 59/170/85 58/53/85
f 51/55/86 16/171/86 22/56/86
f 52/58/87 22/172/87 4/59/87
f 45/61/88 52/173/88 17/62/88
f 23/67/89 53/174/89 26/68/89
f 4/70/90 22/175/90 53/71/90
f 27/76/91 54/176/91 30/77/91
f 26/79/92 54/177/92 27/80/92
f 31/83/93 55/178/93 34/84/93
f 8/86/94 30/179/94 55/87/94
f 46/89/95 63/180/95 54/90/95
f 56/92/96 38/181/96 12/93/96
f 34/95/97 56/182/97 35/96/97
f 47/98/98 62/183/98 55/99/98
f 57/101/99 42/184/99 14/102/99
f 38/104/100 57/185/100 39/105/100
f 48/107/101 61/186/101 56/108/101
f 58/110/102 45/187/102 2/111/102
f 42/113/103 58/188/103 43/114/103
f 49/116/104 60/189/104 57/117/104
f 15/119/105 44/124/105 59/120/105
f 49/127/106 13/136/106 41/128/106
f 48/131/107 11/144/107 37/132/107
f 9/137/108 33/143/108 62/138/108
f 7/145/109 29/150/109 63/146/109
f 5/151/110 25/156/110 64/152/110
f 3/126/111 20/160/111 51/157/111
f 59/162/112 21/190/112 45/163/112
