# Blender v2.81 (sub 16) OBJ File: 'log_3.blend'
# www.blender.org
mtllib log_3.mtl
o Log_2_Cylinder.003
v 0.613757 -0.606932 4.674925
v -0.155094 -0.809394 -4.931919
v 1.232159 -0.274407 4.812943
v 0.455193 -0.418398 -4.855977
v 1.211706 0.418983 4.967622
v 0.407992 0.297255 -4.754516
v 0.572851 0.779848 4.984284
v -0.249495 0.621912 -4.728996
v -0.045551 0.447322 4.846267
v -0.859782 0.230917 -4.804938
v -0.025098 -0.246067 4.691587
v -0.812582 -0.484736 -4.906400
v 0.354402 -0.776021 1.428576
v 0.000000 -0.749926 0.006775
v -0.204693 -0.919824 -1.330740
v 0.546364 -0.486245 -1.334657
v 0.649519 -0.374963 0.003388
v 1.053401 -0.372494 1.424930
v 0.546364 0.380916 -1.342492
v 0.649519 0.374963 -0.003388
v 1.053401 0.434560 1.417639
v -0.204693 0.814496 -1.346409
v -0.000000 0.749926 -0.006775
v 0.354402 0.838087 1.413993
v -0.955749 0.380916 -1.342492
v -0.649519 0.374963 -0.003388
v -0.344596 0.434560 1.417639
v -0.955749 -0.486245 -1.334657
v -0.649519 -0.374963 0.003388
v -0.344596 -0.372494 1.424930
v 0.620448 -0.833776 4.624322
v 1.441161 -0.392465 4.807492
v 0.670290 -0.524610 -4.864326
v -0.139653 -1.043520 -4.965113
v 1.414017 0.527769 5.012774
v 0.607649 0.425170 -4.729671
v 0.566160 1.006691 5.034888
v -0.264937 0.856039 -4.695802
v -0.254553 0.565380 4.851717
v -1.074879 0.337128 -4.796590
v -0.227409 -0.354853 4.646435
v -1.012238 -0.612651 -4.931244
v 0.638151 -0.550318 4.575824
v 1.256553 -0.217793 4.713841
v 1.236100 0.475597 4.868521
v 0.597245 0.836462 4.885182
v -0.021157 0.503937 4.747165
v -0.000704 -0.189453 4.592486
v 0.447999 -0.453163 -4.762207
v -0.162288 -0.844159 -4.838150
v 0.400798 0.262490 -4.660746
v -0.256689 0.587147 -4.635226
v -0.866976 0.196151 -4.711168
v -0.819776 -0.519501 -4.812630
v 0.565567 0.517504 -0.442845
v 0.585388 0.365685 -0.509397
v -0.003557 0.359504 -0.824077
v 1.171066 0.271547 -0.096116
v -0.046664 0.511641 -0.770530
v 1.148997 0.343330 -0.053031
v 0.024933 0.600577 -0.912326
v 1.221303 0.384082 -0.107143
v 0.097095 0.479146 -1.079287
v 1.275026 0.320804 -0.215855
v 0.065535 0.327180 -0.972279
v 1.216498 0.246683 -0.162346
v 0.690031 0.598649 -0.548042
v 0.773740 0.480298 -0.711794
v 0.681587 0.331748 -0.641216
v 0.439820 0.578907 -0.572793
v 0.524925 0.667464 -0.706851
v 0.599842 0.547037 -0.873315
v 0.477104 0.426229 -0.628972
v 0.553026 0.394252 -0.773800
vt 0.459232 0.367837
vt 0.458869 0.368109
vt 0.458869 0.367837
vt 0.458507 0.368109
vt 0.458507 0.367837
vt 0.458145 0.368109
vt 0.458145 0.367837
vt 0.457782 0.367837
vt 0.457601 0.366871
vt 0.457260 0.366675
vt 0.457601 0.366871
vt 0.457782 0.368109
vt 0.457420 0.367837
vt 0.457420 0.368109
vt 0.457057 0.367837
vt 0.458348 0.366675
vt 0.458688 0.366871
vt 0.458348 0.366675
vt 0.457420 0.367022
vt 0.457057 0.367405
vt 0.457057 0.367022
vt 0.457420 0.367405
vt 0.457057 0.367565
vt 0.457420 0.367565
vt 0.457782 0.367405
vt 0.457782 0.367022
vt 0.457782 0.367565
vt 0.458145 0.367405
vt 0.458145 0.367022
vt 0.458145 0.367565
vt 0.458507 0.367405
vt 0.458507 0.367022
vt 0.458507 0.367565
vt 0.458869 0.367022
vt 0.458869 0.367565
vt 0.458869 0.367405
vt 0.459232 0.367022
vt 0.459232 0.367405
vt 0.459232 0.367565
vt 0.458688 0.366871
vt 0.459140 0.366739
vt 0.459029 0.366675
vt 0.458053 0.366739
vt 0.457601 0.367000
vt 0.459140 0.366217
vt 0.459029 0.366281
vt 0.457942 0.366281
vt 0.457942 0.366675
vt 0.458688 0.366085
vt 0.458688 0.365956
vt 0.457601 0.365956
vt 0.458053 0.366217
vt 0.458236 0.366217
vt 0.458348 0.366281
vt 0.457601 0.366085
vt 0.457149 0.366217
vt 0.458236 0.366739
vt 0.457260 0.366675
vt 0.457260 0.366281
vt 0.458688 0.367000
vt 0.457149 0.366739
vt 0.446044 0.860899
vt 0.446044 0.861292
vt 0.446725 0.861292
vt 0.458348 0.366281
vt 0.458688 0.366085
vt 0.459029 0.366281
vt 0.459029 0.366675
vt 0.462182 0.853516
vt 0.462523 0.853320
vt 0.462863 0.853516
vt 0.457260 0.366281
vt 0.457601 0.366085
vt 0.457942 0.366281
vt 0.457942 0.366675
vt 0.457927 0.367424
vt 0.457492 0.367022
vt 0.457927 0.367022
vt 0.458797 0.367424
vt 0.458362 0.367565
vt 0.458362 0.367424
vt 0.459232 0.368109
vt 0.458797 0.367565
vt 0.459232 0.367565
vt 0.458362 0.367022
vt 0.457927 0.367565
vt 0.458362 0.368109
vt 0.459232 0.367424
vt 0.458797 0.367022
vt 0.459232 0.367022
vt 0.457492 0.367424
vt 0.457927 0.368109
vt 0.457105 0.366639
vt 0.457294 0.366056
vt 0.457908 0.366056
vt 0.457492 0.367565
vt 0.457057 0.367424
vt 0.457057 0.367022
vt 0.457492 0.368109
vt 0.457057 0.367565
vt 0.458995 0.366056
vt 0.458382 0.366056
vt 0.458192 0.366639
vt 0.459232 0.368109
vt 0.457057 0.368109
vt 0.446384 0.861489
vt 0.446725 0.860899
vt 0.446384 0.860702
vt 0.462863 0.853910
vt 0.462523 0.854106
vt 0.462182 0.853910
vt 0.458797 0.368109
vt 0.458097 0.366639
vt 0.457601 0.367000
vt 0.457057 0.368109
vt 0.458688 0.367000
vt 0.459185 0.366639
vn 0.4999 -0.8657 0.0270
vn 0.9998 0.0002 0.0181
vn 0.5000 0.8660 0.0017
vn -0.4998 0.8659 0.0197
vn 0.4266 0.8369 0.3430
vn -0.9994 0.0003 0.0345
vn -0.4997 -0.8653 0.0383
vn 0.4288 0.7349 0.5254
vn -0.4912 -0.8707 0.0252
vn -0.4975 -0.8607 0.1082
vn -0.4922 -0.8509 0.1834
vn -0.9990 -0.0356 0.0276
vn -0.9778 0.0019 0.2097
vn -0.9748 0.0020 0.2229
vn -0.4712 0.8819 -0.0135
vn -0.4984 0.8640 0.0707
vn -0.4961 0.8603 0.1173
vn 0.4891 0.8693 -0.0716
vn 0.4929 0.8522 -0.1758
vn 0.4998 0.8654 -0.0347
vn 0.9935 0.0518 -0.1010
vn 0.9619 -0.0025 -0.2733
vn 0.9970 -0.0007 -0.0768
vn 0.4832 -0.8734 -0.0605
vn 0.4946 -0.8580 -0.1390
vn 0.4998 -0.8655 0.0334
vn -0.0986 -0.2194 0.9706
vn 0.0319 0.1424 -0.9893
vn 0.9736 -0.0219 0.2271
vn 0.5031 -0.7979 -0.3320
vn -0.4288 -0.7349 -0.5254
vn -0.9736 0.0219 -0.2271
vn -0.5031 0.7979 0.3320
vn 0.9941 0.0520 0.0955
vn 0.5439 -0.7995 -0.2547
vn -0.4266 -0.8369 -0.3430
vn -0.9941 -0.0520 -0.0956
vn -0.5439 0.7995 0.2547
vn 0.3739 -0.5846 -0.7200
vn -0.1169 0.8612 0.4947
vn -0.5718 -0.3908 0.7213
vn 0.1144 0.8263 -0.5515
vn 0.5702 0.7658 -0.2974
vn -0.1003 0.8417 0.5305
vn -0.2990 -0.3911 0.8704
vn 0.4222 -0.5820 -0.6950
vn 0.5409 0.7883 -0.2932
vn 0.8048 -0.2453 0.5405
vn -0.4203 -0.9071 -0.0201
vn 0.4599 -0.5974 -0.6570
vn 0.0399 -0.9722 0.2306
vn -0.7735 -0.3765 0.5098
vn -0.2285 -0.9700 0.0830
vn -0.9313 -0.0595 -0.3592
vn -0.2822 0.8704 0.4034
vn 0.5357 -0.8436 0.0383
vn 0.9976 0.0609 0.0344
vn 0.4433 0.8962 0.0197
vn -0.5401 0.8415 0.0080
vn -0.9975 -0.0684 0.0181
vn -0.4419 -0.8968 0.0226
vn -0.4999 -0.8658 0.0229
vn -0.9993 0.0003 0.0364
vn -0.4999 0.8658 -0.0199
vn 0.4990 0.8638 -0.0694
vn 0.9935 -0.0010 -0.1139
vn 0.4989 -0.8648 -0.0572
vn -0.9941 -0.0520 -0.0955
vn 0.3738 -0.5839 -0.7207
vn -0.1179 0.8489 0.5152
vn -0.5723 -0.5442 0.6135
vn 0.1144 0.8286 -0.5480
vn 0.5764 0.7733 -0.2642
vn -0.0920 0.8506 0.5177
vn -0.2991 -0.3930 0.8695
vn 0.4231 -0.5894 -0.6882
vn 0.5189 0.8250 -0.2238
vn 0.6620 -0.2255 0.7148
vn 0.7430 -0.2717 0.6117
vn -0.4220 -0.9035 -0.0753
vn 0.3943 -0.7219 -0.5687
vn 0.0394 -0.9712 0.2351
vn -0.7507 -0.3450 0.5634
vn -0.2717 -0.9474 0.1693
vn -0.9091 -0.0442 -0.4142
vn -0.8703 -0.0753 -0.4867
vn -0.2823 0.8731 0.3975
usemtl Material
s off
f 15/1/1 33/2/1 16/3/1
f 16/3/2 36/4/2 19/5/2
f 19/5/3 38/6/3 22/7/3
f 38/6/4 25/8/4 22/7/4
f 2/9/5 54/10/5 50/11/5
f 40/12/6 28/13/6 25/8/6
f 42/14/7 15/15/7 28/13/7
f 11/16/8 43/17/8 48/18/8
f 41/19/9 13/20/9 31/21/9
f 30/22/10 14/23/10 13/20/10
f 29/24/11 15/15/11 14/23/11
f 27/25/12 41/19/12 39/26/12
f 26/27/13 30/22/13 27/25/13
f 25/8/14 29/24/14 26/27/14
f 24/28/15 39/26/15 37/29/15
f 23/30/16 27/25/16 24/28/16
f 22/7/17 26/27/17 23/30/17
f 21/31/18 37/29/18 35/32/18
f 20/33/19 24/28/19 21/31/19
f 19/5/20 23/30/20 20/33/20
f 32/34/21 21/31/21 35/32/21
f 17/35/22 21/31/22 18/36/22
f 17/35/23 19/5/23 20/33/23
f 31/37/24 18/36/24 32/34/24
f 13/38/25 17/35/25 18/36/25
f 14/39/26 16/3/26 17/35/26
f 1/40/27 32/41/27 3/42/27
f 2/9/28 33/43/28 34/44/28
f 3/42/27 35/45/27 5/46/27
f 6/47/28 33/43/28 4/48/28
f 7/49/27 35/45/27 37/50/27
f 6/47/28 38/51/28 36/52/28
f 7/49/27 39/53/27 9/54/27
f 8/55/28 40/56/28 38/51/28
f 9/54/27 41/57/27 11/16/27
f 12/58/28 40/56/28 10/59/28
f 1/40/27 41/57/27 31/60/27
f 2/9/28 42/61/28 12/58/28
f 47/62/27 48/63/27 44/64/27
f 9/54/29 48/18/29 47/65/29
f 7/49/30 47/65/30 46/66/30
f 7/49/31 45/67/31 5/46/31
f 5/46/32 44/68/32 3/42/32
f 3/42/33 43/17/33 1/40/33
f 53/69/28 52/70/28 51/71/28
f 12/58/34 53/72/34 54/10/34
f 10/59/35 52/73/35 53/72/35
f 6/47/36 52/73/36 8/55/36
f 4/48/37 51/74/37 6/47/37
f 2/9/38 49/75/38 4/48/38
f 72/76/39 65/77/39 63/78/39
f 70/79/40 67/80/40 71/81/40
f 58/82/41 55/83/41 56/84/41
f 61/85/42 72/76/42 63/78/42
f 71/81/43 68/86/43 72/76/43
f 55/83/44 62/87/44 67/80/44
f 73/88/45 59/89/45 57/90/45
f 68/86/46 74/91/46 72/76/46
f 67/80/47 64/92/47 68/86/47
f 66/93/48 64/94/48 62/95/48
f 69/96/49 73/97/49 74/91/49
f 64/92/50 69/96/50 68/86/50
f 74/91/51 57/98/51 65/77/51
f 56/84/52 70/79/52 73/88/52
f 66/99/53 56/100/53 69/96/53
f 61/101/54 63/102/54 65/103/54
f 59/89/55 71/81/55 61/85/55
f 15/1/56 34/104/56 33/2/56
f 16/3/57 33/2/57 36/4/57
f 19/5/58 36/4/58 38/6/58
f 38/6/59 40/12/59 25/8/59
f 2/9/5 12/58/5 54/10/5
f 40/12/60 42/14/60 28/13/60
f 42/14/61 34/105/61 15/15/61
f 11/16/8 1/40/8 43/17/8
f 41/19/62 30/22/62 13/20/62
f 30/22/10 29/24/10 14/23/10
f 29/24/11 28/13/11 15/15/11
f 27/25/63 30/22/63 41/19/63
f 26/27/13 29/24/13 30/22/13
f 25/8/14 28/13/14 29/24/14
f 24/28/64 27/25/64 39/26/64
f 23/30/16 26/27/16 27/25/16
f 22/7/17 25/8/17 26/27/17
f 21/31/65 24/28/65 37/29/65
f 20/33/19 23/30/19 24/28/19
f 19/5/20 22/7/20 23/30/20
f 32/34/66 18/36/66 21/31/66
f 17/35/22 20/33/22 21/31/22
f 17/35/23 16/3/23 19/5/23
f 31/37/67 13/38/67 18/36/67
f 13/38/25 14/39/25 17/35/25
f 14/39/26 15/1/26 16/3/26
f 1/40/27 31/60/27 32/41/27
f 2/9/28 4/48/28 33/43/28
f 3/42/27 32/41/27 35/45/27
f 6/47/28 36/52/28 33/43/28
f 7/49/27 5/46/27 35/45/27
f 6/47/28 8/55/28 38/51/28
f 7/49/27 37/50/27 39/53/27
f 8/55/28 10/59/28 40/56/28
f 9/54/27 39/53/27 41/57/27
f 12/58/28 42/61/28 40/56/28
f 1/40/27 11/16/27 41/57/27
f 2/9/28 34/44/28 42/61/28
f 48/63/27 43/106/27 44/64/27
f 44/64/27 45/107/27 46/108/27
f 46/108/27 47/62/27 44/64/27
f 9/54/29 11/16/29 48/18/29
f 7/49/30 9/54/30 47/65/30
f 7/49/31 46/66/31 45/67/31
f 5/46/32 45/67/32 44/68/32
f 3/42/33 44/68/33 43/17/33
f 51/71/28 49/109/28 53/69/28
f 49/109/28 50/110/28 53/69/28
f 50/110/28 54/111/28 53/69/28
f 12/58/34 10/59/34 53/72/34
f 10/59/35 8/55/35 52/73/35
f 6/47/36 51/74/36 52/73/36
f 4/48/68 49/75/68 51/74/68
f 2/9/38 50/11/38 49/75/38
f 72/76/69 74/91/69 65/77/69
f 70/79/70 55/83/70 67/80/70
f 58/82/71 60/112/71 55/83/71
f 61/85/72 71/81/72 72/76/72
f 71/81/73 67/80/73 68/86/73
f 55/83/74 60/112/74 62/87/74
f 73/88/75 70/79/75 59/89/75
f 68/86/76 69/96/76 74/91/76
f 67/80/77 62/87/77 64/92/77
f 62/95/78 60/113/78 58/114/78
f 58/114/79 66/93/79 62/95/79
f 69/96/80 56/100/80 73/97/80
f 64/92/81 66/99/81 69/96/81
f 74/91/82 73/97/82 57/98/82
f 56/84/83 55/83/83 70/79/83
f 66/99/84 58/115/84 56/100/84
f 65/103/85 57/116/85 61/101/85
f 57/116/86 59/117/86 61/101/86
f 59/89/87 70/79/87 71/81/87
