# Blender v2.80 (sub 75) OBJ File: 'Terrain_Part.blend'
# www.blender.org
mtllib Terrain_Part.mtl
o Plane
v -1.014411 0.838277 1.038334
v 0.933936 0.536078 1.139386
v -0.830650 0.767115 -0.695349
v 0.805587 0.538433 -0.801275
v -1.139457 0.771780 -0.678048
v -1.368863 0.902540 0.124114
v -1.271777 0.895299 0.753160
v 1.218687 0.597783 0.900012
v 1.384654 0.512349 0.052371
v 1.109538 0.514249 -0.790881
v -0.484115 0.689255 0.733248
v 0.453259 0.570495 0.770046
v 0.278378 0.663445 -0.664739
v -0.299625 0.732546 -0.636485
v 0.588442 0.562469 0.625906
v -0.612870 0.717080 0.562285
v 0.332122 0.589137 -0.007073
v -0.331084 0.659628 -0.008436
v 0.313640 0.649255 -0.501271
v -0.334457 0.727943 -0.475280
v -0.071738 0.574128 0.712883
v -0.065631 0.688669 -0.655664
v -0.094427 0.566294 0.532629
v -0.059714 0.603241 -0.014372
v -0.071486 0.669809 -0.493582
v -0.609717 0.778874 -0.662592
v -1.004384 0.865161 0.677409
v -0.935342 0.865725 0.067570
v -0.783059 0.816960 -0.574010
v -0.797533 0.808838 0.913460
v -1.004210 0.698399 1.041394
v 0.920500 0.468572 1.163932
v -0.849793 0.640334 -0.694696
v 0.821785 0.432791 -0.798313
v -1.141342 0.632661 -0.678850
v -1.361552 0.757177 0.126398
v -1.262375 0.756255 0.755982
v 1.209618 0.496078 0.928319
v 1.386502 0.398618 0.055793
v 1.111562 0.399627 -0.787228
v -0.478452 0.542893 0.735352
v 0.480985 0.467541 0.736941
v 0.278405 0.543939 -0.662954
v -0.300140 0.610576 -0.636382
v 0.371429 0.227697 0.680563
v -0.426010 0.252252 0.646178
v 0.956705 0.191851 -0.660898
v 1.195424 0.191196 0.071181
v 1.015543 0.264303 0.837866
v -1.110292 0.399307 0.661708
v -0.042309 0.468653 0.680292
v -0.065812 0.566057 -0.654640
v -1.212355 0.400182 0.110738
v -1.022499 0.340771 -0.589985
v 0.712483 0.219963 -0.663525
v -0.610848 0.648324 -0.662521
v -0.765003 0.356957 -0.602182
v 0.769248 0.242087 1.030962
v -0.879687 0.376620 0.911413
v -0.788283 0.670002 0.916433
v -0.958947 0.609725 0.998779
v 0.861393 0.409003 1.126002
v -0.820276 0.565775 -0.661582
v 0.783382 0.371380 -0.752466
v -1.101460 0.552924 -0.646478
v -1.303199 0.662297 0.124447
v -1.213916 0.652910 0.723923
v 1.132831 0.432955 0.912700
v 1.318124 0.341168 0.058576
v 1.055092 0.344849 -0.746931
v -0.459621 0.460474 0.705168
v 0.424798 0.392953 0.739906
v 0.259590 0.477622 -0.628225
v -0.293456 0.534952 -0.603657
v -0.931793 0.081561 0.960673
v 0.826906 0.081561 1.112037
v -0.817046 0.081561 -0.665743
v 0.786064 0.081561 -0.701917
v -1.095386 0.081561 -0.654205
v -1.334974 0.081561 0.089100
v -0.074315 0.393394 0.685956
v -0.069795 0.496877 -0.621620
v -1.186325 0.081561 0.690986
v 1.099323 0.081561 0.895757
v 1.314075 0.081561 0.093052
v -0.592714 0.571685 -0.632745
v 1.058275 0.081561 -0.691379
v -0.447475 0.081561 0.686116
v 0.408811 0.081561 0.727124
v -0.754485 0.575825 0.877278
v 0.224239 0.291450 -0.561316
v -0.282742 0.323126 -0.545825
v -0.082548 0.228098 0.631492
v -0.076801 0.301715 -0.557908
v -0.558327 0.344171 -0.577905
v -0.689579 0.329054 0.800186
v 0.256312 0.081561 -0.599175
v -0.290969 0.081561 -0.591368
v 0.534641 0.039470 0.592957
v -0.579392 0.039900 0.523567
v 0.299688 0.040572 0.008700
v -0.319046 0.040597 0.004026
v 0.290880 0.058503 -0.443648
v -0.321419 0.051352 -0.440938
v -0.077867 0.081561 0.674518
v -0.066699 0.081561 -0.598030
v -0.098918 0.039978 0.506757
v -0.061368 0.040608 0.002021
v -0.068641 0.058902 -0.443380
v -0.589317 0.081561 -0.630227
v -0.933369 0.075075 0.616999
v -0.918700 0.041040 0.043941
v -0.762272 0.080741 -0.560972
v -0.723621 0.081561 0.849545
vt 0.356614 0.928579
vt 0.356185 0.927925
vt 0.356178 0.927516
vt 0.358082 0.928120
vt 0.358736 0.927620
vt 0.358282 0.928291
vt 0.357272 0.927092
vt 0.358402 0.927270
vt 0.357265 0.928509
vt 0.356594 0.930073
vt 0.357308 0.929405
vt 0.357450 0.930241
vt 0.357282 0.929034
vt 0.358080 0.929751
vt 0.358260 0.930291
vt 0.358005 0.929035
vt 0.358557 0.929989
vt 0.358297 0.929562
vt 0.358242 0.928994
vt 0.356465 0.929842
vt 0.356693 0.929454
vt 0.356651 0.929095
vt 0.356401 0.928640
vt 0.356478 0.929419
vt 0.356436 0.930136
vt 0.356480 0.930546
vt 0.358736 0.930274
vt 0.357555 0.930820
vt 0.358378 0.930646
vt 0.375143 0.041465
vt 0.375226 0.041779
vt 0.375160 0.041797
vt 0.375243 0.042325
vt 0.375330 0.042549
vt 0.375273 0.042604
vt 0.375279 0.043427
vt 0.375556 0.042640
vt 0.375343 0.043427
vt 0.373723 0.044016
vt 0.373645 0.043639
vt 0.373721 0.043601
vt 0.375181 0.041245
vt 0.375212 0.041461
vt 0.371769 0.043201
vt 0.371742 0.043727
vt 0.371696 0.043169
vt 0.375485 0.044259
vt 0.375556 0.044241
vt 0.375307 0.042288
vt 0.374118 0.042982
vt 0.374163 0.043340
vt 0.374066 0.043352
vt 0.371903 0.043278
vt 0.372180 0.043274
vt 0.371877 0.043350
vt 0.373800 0.043245
vt 0.373721 0.043073
vt 0.373799 0.043006
vt 0.373739 0.044419
vt 0.373648 0.043996
vt 0.374064 0.043846
vt 0.374153 0.043806
vt 0.373715 0.043301
vt 0.372394 0.043101
vt 0.372341 0.043888
vt 0.372349 0.043121
vt 0.375076 0.040710
vt 0.375166 0.040468
vt 0.375150 0.040739
vt 0.375070 0.040939
vt 0.375145 0.040957
vt 0.375106 0.041238
vt 0.359787 0.930668
vt 0.359898 0.931171
vt 0.359715 0.931184
vt 0.361403 0.929714
vt 0.361425 0.929000
vt 0.361541 0.929737
vt 0.360997 0.930681
vt 0.360788 0.931812
vt 0.360861 0.930650
vt 0.356827 0.931767
vt 0.356692 0.930960
vt 0.356827 0.930957
vt 0.361241 0.928535
vt 0.361349 0.928221
vt 0.361402 0.928537
vt 0.359553 0.932026
vt 0.359417 0.931518
vt 0.359604 0.931484
vt 0.360938 0.931809
vt 0.360845 0.932964
vt 0.361432 0.930122
vt 0.361583 0.930127
vt 0.361268 0.928998
vt 0.361190 0.928219
vt 0.361300 0.927803
vt 0.361141 0.927507
vt 0.361128 0.927803
vt 0.361142 0.927092
vt 0.361308 0.927484
vt 0.359870 0.932405
vt 0.359896 0.931860
vt 0.360053 0.932407
vt 0.359527 0.931021
vt 0.359704 0.930985
vt 0.359704 0.931870
vt 0.359681 0.932647
vt 0.359420 0.932098
vt 0.359526 0.930687
vt 0.359704 0.930650
vt 0.356888 0.930977
vt 0.357333 0.930953
vt 0.356879 0.931067
vt 0.367885 0.061805
vt 0.368477 0.060751
vt 0.368214 0.061893
vt 0.364607 0.060510
vt 0.365692 0.061188
vt 0.365395 0.061450
vt 0.375484 0.042454
vt 0.375234 0.043418
vt 0.375130 0.044137
vt 0.375092 0.043421
vt 0.373453 0.043718
vt 0.375386 0.041256
vt 0.375403 0.041455
vt 0.371577 0.043609
vt 0.371535 0.043101
vt 0.375123 0.042691
vt 0.375279 0.042604
vt 0.375460 0.042219
vt 0.374202 0.042979
vt 0.374402 0.043309
vt 0.372140 0.043464
vt 0.371866 0.043533
vt 0.373512 0.043205
vt 0.373571 0.044415
vt 0.373489 0.044030
vt 0.374400 0.043751
vt 0.373492 0.043419
vt 0.374252 0.044188
vt 0.374452 0.044094
vt 0.375371 0.040545
vt 0.375352 0.040793
vt 0.375365 0.040991
vt 0.375409 0.041745
vt 0.375608 0.041253
vt 0.372228 0.043842
vt 0.372341 0.043107
vt 0.372341 0.043901
vt 0.375585 0.042292
vt 0.375584 0.042554
vt 0.375605 0.041469
vt 0.375602 0.041780
vt 0.375606 0.040966
vt 0.373358 0.044039
vt 0.373295 0.043707
vt 0.375604 0.040748
vt 0.373260 0.043405
vt 0.373233 0.043181
vt 0.374703 0.043848
vt 0.374698 0.044186
vt 0.374703 0.043339
vt 0.371918 0.043664
vt 0.374701 0.042983
vt 0.374987 0.043399
vt 0.374947 0.042640
vt 0.371400 0.043166
vt 0.366823 0.059537
vt 0.366920 0.061747
vt 0.368477 0.060158
vt 0.366879 0.063092
vt 0.368048 0.064103
vt 0.366744 0.064392
vt 0.366904 0.062532
vt 0.367855 0.062586
vt 0.365748 0.063614
vt 0.365519 0.064376
vt 0.365823 0.062572
vt 0.365040 0.063901
vt 0.365467 0.062512
vt 0.367829 0.063135
vt 0.368211 0.063733
vt 0.368185 0.062595
vt 0.368152 0.063082
vt 0.365412 0.063315
vt 0.368268 0.064231
vt 0.368220 0.064835
vt 0.364785 0.064344
vt 0.365340 0.064920
vt 0.366613 0.065293
vt 0.356437 0.929101
vt 0.375502 0.042604
vt 0.371802 0.043790
vt 0.372228 0.043196
vt 0.373817 0.044460
vt 0.372394 0.043905
vt 0.375088 0.040429
vt 0.359971 0.930654
vt 0.356738 0.931782
vt 0.360997 0.932961
vt 0.361324 0.927092
vt 0.359551 0.932717
vt 0.357329 0.930820
vt 0.365092 0.059936
vt 0.375279 0.044207
vt 0.374421 0.042982
vt 0.372228 0.043101
vt 0.375608 0.040480
vt 0.373446 0.044451
vt 0.372228 0.043610
vt 0.371430 0.043712
vn -0.0848 -0.9718 0.2199
vn -0.0663 -0.9978 -0.0067
vn 0.0112 -0.9947 0.1024
vn -0.0740 -0.9970 0.0219
vn -0.3234 -0.9463 -0.0048
vn -0.0335 -0.9923 -0.1195
vn -0.3643 -0.9303 -0.0421
vn 0.0002 -0.9991 -0.0422
vn -0.3136 -0.9460 0.0822
vn -0.0118 -0.9989 0.0449
vn -0.2006 -0.9793 0.0285
vn -0.0546 -0.9957 -0.0746
vn -0.2202 -0.9725 -0.0754
vn -0.2647 -0.9614 0.0751
vn -0.2813 -0.9587 -0.0424
vn -0.2044 -0.9702 -0.1298
vn 0.0072 -0.9260 0.3776
vn -0.1781 -0.9809 -0.0780
vn -0.1104 -0.9939 0.0056
vn -0.0653 -0.9877 0.1423
vn 0.0506 0.4520 0.8906
vn 0.0337 0.5694 0.8213
vn -0.6243 0.7531 0.2073
vn -0.0626 0.3306 -0.9417
vn 0.1434 0.4196 0.8963
vn 0.5934 -0.4729 -0.6513
vn -0.5944 0.7756 -0.2123
vn 0.3009 0.4425 0.8448
vn 0.6938 0.4893 -0.5284
vn -0.4470 0.7520 -0.4844
vn -0.4765 0.1712 -0.8623
vn 0.1066 -0.1196 -0.9871
vn 0.8448 0.5220 -0.1176
vn -0.4267 0.2124 -0.8791
vn 0.8571 0.4914 0.1546
vn 0.0298 0.4156 0.9091
vn -0.1270 0.3330 0.9343
vn -0.0409 0.3938 0.9183
vn 0.7455 0.0369 -0.6655
vn 0.2539 0.0660 0.9650
vn -0.9789 0.0311 -0.2019
vn 0.5791 0.3867 -0.7177
vn 0.0792 0.0082 0.9968
vn -0.0539 -0.0164 -0.9984
vn -0.9507 -0.0061 0.3101
vn -0.0346 0.0312 0.9989
vn 0.0251 0.0149 0.9996
vn -0.0837 0.0012 0.9965
vn -0.1468 0.0018 0.9892
vn 0.0559 -0.0033 0.9984
vn 0.9639 -0.0146 0.2659
vn -0.5128 -0.0525 -0.8569
vn 0.9873 0.0473 -0.1518
vn 0.1047 0.3202 -0.9416
vn -0.5039 -0.0556 -0.8620
vn -0.6146 -0.1586 -0.7727
vn 0.0273 0.9897 0.1407
vn 0.1511 0.9748 -0.1641
vn 0.0286 0.4759 0.8790
vn -0.7409 0.6265 0.2421
vn -0.0005 0.2725 -0.9622
vn 0.0875 0.3063 0.9479
vn 0.6587 0.0567 -0.7502
vn -0.7485 0.6223 -0.2292
vn 0.2860 0.3822 0.8787
vn 0.6956 0.4261 -0.5784
vn -0.5176 0.6209 -0.5887
vn -0.4851 0.1575 -0.8602
vn 0.1026 0.3067 -0.9463
vn 0.9281 0.3306 -0.1714
vn -0.4519 0.1556 -0.8784
vn 0.8967 0.3896 0.2099
vn 0.0278 0.2803 0.9595
vn -0.1005 0.2188 0.9706
vn -0.0923 0.2579 0.9618
vn 0.0383 0.3315 0.9427
vn -0.1273 -0.1796 0.9755
vn -0.6834 -0.6952 0.2229
vn -0.0369 -0.2977 0.9540
vn 0.0035 -0.1770 0.9842
vn -0.1257 -0.1796 0.9757
vn -0.0306 -0.2241 -0.9741
vn 0.0292 -0.1779 0.9836
vn 0.0607 -0.2354 0.9700
vn 0.1877 -0.1686 0.9676
vn -0.4700 -0.0640 -0.8804
vn 0.9001 -0.3250 0.2901
vn 0.1030 -0.2772 -0.9553
vn 0.9142 -0.3365 -0.2258
vn -0.5067 -0.1011 -0.8562
vn -0.4945 -0.5268 -0.6913
vn 0.7076 -0.2309 -0.6678
vn -0.8554 -0.4647 -0.2289
vn 0.6608 -0.0691 -0.7474
vn -0.0419 0.9989 0.0187
vn -0.0171 0.9991 0.0399
vn 0.0052 0.9978 0.0668
vn 0.0011 0.9992 0.0410
vn 0.0838 0.9949 -0.0569
vn 0.0001 1.0000 0.0013
vn 0.0738 0.9928 -0.0942
vn 0.0263 0.9695 -0.2436
vn 0.0375 0.9937 0.1055
vn 0.0005 0.9894 0.1450
vn -0.0275 0.9811 0.1915
vn -0.0086 0.9703 -0.2417
vn -0.0001 1.0000 0.0013
vn -0.0296 0.9993 0.0243
vn 0.0003 1.0000 0.0077
vn 0.0201 0.9996 -0.0190
vn 0.0239 0.9997 -0.0059
vn 0.1003 0.9944 0.0323
vn -0.2386 -0.9706 -0.0328
vn 0.1093 -0.9862 -0.1242
vn -0.0720 -0.9973 -0.0128
vn -0.2052 -0.9724 -0.1106
vn -0.1626 -0.9765 -0.1417
vn -0.0555 -0.9891 -0.1360
vn -0.3297 -0.9416 -0.0680
vn -0.0346 -0.9970 -0.0695
vn -0.3350 -0.9397 0.0694
vn -0.0117 -0.9989 0.0447
vn -0.1426 -0.9880 -0.0590
vn -0.0757 -0.9901 -0.1179
vn -0.1925 -0.9739 -0.1203
vn -0.2762 -0.9597 0.0518
vn -0.2045 -0.9757 -0.0789
vn -0.2230 -0.9648 -0.1396
vn -0.0075 -0.9239 0.3825
vn -0.1333 -0.9881 -0.0773
vn -0.0860 -0.9962 -0.0107
vn 0.0969 -0.9904 0.0983
vn 0.0431 0.4283 0.9026
vn 0.0402 0.5815 0.8126
vn -0.6058 0.7705 0.1985
vn -0.0584 -0.0502 -0.9970
vn 0.1471 0.4037 0.9030
vn 0.6786 -0.2289 -0.6979
vn -0.6337 0.7440 -0.2116
vn 0.2857 0.3797 0.8799
vn 0.6440 0.5726 -0.5074
vn -0.4825 0.7129 -0.5089
vn -0.4792 0.1847 -0.8580
vn 0.1066 -0.1195 -0.9871
vn 0.8796 0.4552 -0.1379
vn -0.4243 0.2243 -0.8773
vn 0.8434 0.5156 0.1509
vn 0.0396 0.3928 0.9188
vn -0.1364 0.3565 0.9243
vn -0.0355 0.3546 0.9343
vn 0.7450 0.0398 -0.6658
vn 0.2539 0.0145 0.9671
vn -0.9815 -0.0217 -0.1900
vn 0.6476 -0.3709 -0.6656
vn 0.0818 0.0005 0.9967
vn -0.0741 0.2755 -0.9584
vn -0.9507 -0.0069 0.3101
vn -0.0323 0.0231 0.9992
vn 0.0270 0.0083 0.9996
vn -0.0837 0.0013 0.9965
vn -0.1342 0.0254 0.9906
vn 0.0544 -0.0065 0.9985
vn 0.9624 0.0526 0.2666
vn -0.5141 -0.0322 -0.8571
vn 0.9858 0.0635 -0.1552
vn 0.1023 0.3294 -0.9386
vn -0.5053 -0.0521 -0.8614
vn -0.6146 -0.1602 -0.7724
vn -0.0032 0.9966 0.0828
vn -0.0444 0.9974 -0.0559
vn 0.0470 0.4895 0.8708
vn -0.7462 0.6184 0.2465
vn -0.0185 0.3137 -0.9493
vn 0.1222 0.2672 0.9559
vn 0.6599 0.0621 -0.7488
vn -0.7617 0.6033 -0.2362
vn 0.2365 0.2885 0.9278
vn 0.6764 0.4488 -0.5839
vn -0.5174 0.6211 -0.5887
vn -0.4717 0.1475 -0.8693
vn 0.9065 0.4020 -0.1287
vn -0.4589 0.1728 -0.8715
vn 0.9291 0.3116 0.1989
vn 0.0393 0.2707 0.9618
vn -0.1282 0.2398 0.9623
vn -0.0670 0.2242 0.9722
vn 0.0213 0.3096 0.9506
vn -0.1271 -0.1794 0.9755
vn -0.6856 -0.6930 0.2229
vn -0.0435 -0.2884 0.9565
vn 0.0050 -0.1791 0.9838
vn -0.1511 -0.1951 0.9691
vn -0.0608 -0.2830 -0.9572
vn 0.0382 -0.1864 0.9817
vn 0.0401 -0.2509 0.9672
vn 0.1819 -0.1476 0.9722
vn -0.5207 -0.0975 -0.8482
vn 0.8917 -0.3616 0.2723
vn 0.1032 -0.2779 -0.9551
vn 0.9534 -0.2444 -0.1770
vn -0.5282 -0.1299 -0.8391
vn -0.5487 -0.4705 -0.6911
vn 0.7031 -0.2361 -0.6708
vn -0.6675 -0.7396 -0.0861
vn 0.6718 -0.1273 -0.7297
vn -0.0650 0.9977 -0.0174
vn -0.0415 0.9990 0.0135
vn 0.0600 0.9979 0.0238
vn -0.0006 0.9992 0.0396
vn 0.0009 1.0000 0.0018
vn 0.0006 1.0000 0.0017
vn -0.1005 0.9804 -0.1697
vn 0.0371 0.9629 -0.2673
vn -0.0250 0.9811 0.1920
vn 0.0012 0.9892 0.1464
vn 0.0043 0.9894 0.1450
vn -0.0075 0.9708 -0.2397
vn -0.0000 1.0000 0.0012
vn 0.0003 0.9992 0.0410
vn -0.0013 1.0000 0.0085
vn -0.0100 0.9998 -0.0188
vn 0.0906 0.9943 -0.0567
vn -0.0148 0.9980 0.0617
usemtl Material.001
s off
f 19/1/1 4/2/1 10/3/1
f 15/4/2 2/5/2 12/6/2
f 15/4/3 9/7/3 8/8/3
f 17/9/4 10/3/4 9/7/4
f 29/10/5 18/11/5 28/12/5
f 24/13/6 19/1/6 17/9/6
f 28/12/7 16/14/7 27/15/7
f 23/16/8 17/9/8 15/4/8
f 30/17/9 16/14/9 11/18/9
f 23/16/10 12/6/10 21/19/10
f 26/20/11 20/21/11 29/10/11
f 25/22/12 13/23/12 19/1/12
f 14/24/13 25/22/13 20/21/13
f 11/18/14 23/16/14 21/19/14
f 18/11/15 23/16/15 16/14/15
f 18/11/16 25/22/16 24/13/16
f 3/25/17 29/10/17 5/26/17
f 1/27/18 27/15/18 30/17/18
f 6/28/19 27/15/19 7/29/19
f 5/26/20 28/12/20 6/28/20
f 52/30/21 73/31/21 43/32/21
f 34/33/22 70/34/22 40/35/22
f 39/36/23 70/37/23 69/38/23
f 51/39/24 71/40/24 41/41/24
f 52/30/25 74/42/25 82/43/25
f 42/44/26 62/45/26 72/46/26
f 38/47/27 69/38/27 68/48/27
f 43/32/28 64/49/28 34/33/28
f 31/50/29 67/51/29 37/52/29
f 32/53/30 68/54/30 62/55/30
f 60/56/31 61/57/31 31/58/31
f 51/39/32 72/59/32 81/60/32
f 36/61/33 67/51/33 66/62/33
f 41/41/34 90/63/34 60/56/34
f 35/64/35 66/65/35 65/66/35
f 33/67/36 65/68/36 63/69/36
f 56/70/37 63/69/37 86/71/37
f 44/72/38 86/71/38 74/42/38
f 1/73/39 37/74/39 7/75/39
f 4/76/40 43/77/40 34/78/40
f 8/79/41 39/80/41 38/81/41
f 2/82/42 42/83/42 12/84/42
f 22/85/43 44/86/43 52/87/43
f 21/88/44 41/89/44 11/90/44
f 9/91/45 40/92/45 39/80/45
f 10/93/46 34/78/46 40/94/46
f 13/95/47 52/87/47 43/77/47
f 14/96/48 56/97/48 44/86/48
f 3/98/49 56/97/49 26/99/49
f 5/100/50 33/101/50 3/98/50
f 5/102/51 36/103/51 35/104/51
f 11/90/52 60/105/52 30/106/52
f 7/75/53 36/103/53 6/107/53
f 12/108/54 51/109/54 21/88/54
f 30/106/55 31/110/55 1/111/55
f 2/112/56 38/113/56 32/114/56
f 103/115/57 78/116/57 97/117/57
f 76/118/58 99/119/58 89/120/58
f 64/49/59 47/121/59 70/34/59
f 69/122/60 47/123/60 48/124/60
f 81/60/61 46/125/61 71/40/61
f 82/43/62 92/126/62 94/127/62
f 72/46/63 58/128/63 45/129/63
f 69/122/64 49/130/64 68/131/64
f 73/31/65 55/132/65 64/49/65
f 61/133/66 50/134/66 67/51/66
f 62/55/67 49/135/67 58/136/67
f 90/63/68 59/137/68 61/57/68
f 81/60/69 45/138/69 93/139/69
f 66/62/70 50/134/70 53/140/70
f 71/40/71 96/141/71 90/63/71
f 65/142/72 53/140/72 54/143/72
f 63/69/73 54/144/73 57/145/73
f 86/71/74 57/145/74 95/146/74
f 74/42/75 95/146/75 92/126/75
f 82/43/76 91/147/76 73/31/76
f 95/146/77 98/148/77 92/126/77
f 48/149/78 87/150/78 85/151/78
f 47/121/79 78/152/79 87/153/79
f 91/147/80 106/154/80 97/155/80
f 57/145/81 110/156/81 95/146/81
f 46/125/82 105/157/82 88/158/82
f 94/127/83 98/148/83 106/154/83
f 54/144/84 77/159/84 57/145/84
f 55/132/85 97/155/85 78/152/85
f 59/137/86 114/160/86 75/161/86
f 54/143/87 80/162/87 79/163/87
f 45/138/88 105/157/88 93/139/88
f 53/140/89 83/164/89 80/162/89
f 96/141/90 88/158/90 114/160/90
f 49/135/91 76/165/91 58/136/91
f 50/134/92 75/166/92 83/164/92
f 49/130/93 85/167/93 84/168/93
f 58/128/94 89/169/94 45/129/94
f 99/119/95 85/170/95 101/171/95
f 101/171/96 87/172/96 103/115/96
f 102/173/97 113/174/97 112/175/97
f 108/176/98 103/115/98 109/177/98
f 100/178/99 112/175/99 111/179/99
f 107/180/100 101/171/100 108/176/100
f 114/181/101 100/178/101 111/179/101
f 89/120/102 107/180/102 105/182/102
f 104/183/103 110/184/103 113/174/103
f 109/177/104 97/117/104 106/185/104
f 109/177/105 98/186/105 104/183/105
f 88/187/106 107/180/106 100/178/106
f 107/180/107 102/173/107 100/178/107
f 102/173/108 109/177/108 104/183/108
f 113/174/109 77/188/109 79/189/109
f 75/190/110 111/179/110 83/191/110
f 111/179/111 80/192/111 83/191/111
f 112/175/112 79/189/112 80/192/112
f 19/1/113 13/23/113 4/2/113
f 15/4/114 8/8/114 2/5/114
f 15/4/115 17/9/115 9/7/115
f 17/9/116 19/1/116 10/3/116
f 29/10/117 20/21/117 18/11/117
f 24/13/118 25/22/118 19/1/118
f 28/12/119 18/11/119 16/14/119
f 23/16/120 24/13/120 17/9/120
f 30/17/121 27/15/121 16/14/121
f 23/16/122 15/4/122 12/6/122
f 26/20/123 14/24/123 20/21/123
f 25/22/124 22/193/124 13/23/124
f 14/24/125 22/193/125 25/22/125
f 11/18/126 16/14/126 23/16/126
f 18/11/127 24/13/127 23/16/127
f 18/11/128 20/21/128 25/22/128
f 3/25/129 26/20/129 29/10/129
f 1/27/130 7/29/130 27/15/130
f 6/28/131 28/12/131 27/15/131
f 5/26/132 29/10/132 28/12/132
f 52/30/133 82/43/133 73/31/133
f 34/33/134 64/49/134 70/34/134
f 39/36/135 40/194/135 70/37/135
f 51/39/136 81/60/136 71/40/136
f 52/30/137 44/72/137 74/42/137
f 42/44/138 32/195/138 62/45/138
f 38/47/139 39/36/139 69/38/139
f 43/32/140 73/31/140 64/49/140
f 31/50/141 61/133/141 67/51/141
f 32/53/142 38/196/142 68/54/142
f 60/56/143 90/63/143 61/57/143
f 51/39/144 42/197/144 72/59/144
f 36/61/145 37/52/145 67/51/145
f 41/41/146 71/40/146 90/63/146
f 35/64/147 36/198/147 66/65/147
f 33/67/148 35/199/148 65/68/148
f 56/70/149 33/67/149 63/69/149
f 44/72/150 56/70/150 86/71/150
f 1/73/151 31/200/151 37/74/151
f 4/76/152 13/95/152 43/77/152
f 8/79/153 9/91/153 39/80/153
f 2/82/154 32/201/154 42/83/154
f 22/85/155 14/96/155 44/86/155
f 21/88/156 51/109/156 41/89/156
f 9/91/157 10/202/157 40/92/157
f 10/93/158 4/76/158 34/78/158
f 13/95/159 22/85/159 52/87/159
f 14/96/160 26/99/160 56/97/160
f 3/98/161 33/101/161 56/97/161
f 5/100/162 35/203/162 33/101/162
f 5/102/163 6/107/163 36/103/163
f 11/90/164 41/89/164 60/105/164
f 7/75/165 37/74/165 36/103/165
f 12/108/166 42/204/166 51/109/166
f 30/106/167 60/105/167 31/110/167
f 2/112/168 8/205/168 38/113/168
f 103/115/169 87/172/169 78/116/169
f 76/118/170 84/206/170 99/119/170
f 64/49/171 55/132/171 47/121/171
f 69/122/172 70/207/172 47/123/172
f 81/60/173 93/139/173 46/125/173
f 82/43/174 74/42/174 92/126/174
f 72/46/175 62/45/175 58/128/175
f 69/122/176 48/124/176 49/130/176
f 73/31/177 91/147/177 55/132/177
f 61/133/178 59/208/178 50/134/178
f 62/55/179 68/54/179 49/135/179
f 90/63/180 96/141/180 59/137/180
f 81/60/69 72/59/69 45/138/69
f 66/62/181 67/51/181 50/134/181
f 71/40/182 46/125/182 96/141/182
f 65/142/183 66/62/183 53/140/183
f 63/69/184 65/68/184 54/144/184
f 86/71/185 63/69/185 57/145/185
f 74/42/186 86/71/186 95/146/186
f 82/43/187 94/127/187 91/147/187
f 95/146/188 110/156/188 98/148/188
f 48/149/189 47/209/189 87/150/189
f 47/121/190 55/132/190 78/152/190
f 91/147/191 94/127/191 106/154/191
f 57/145/192 77/159/192 110/156/192
f 46/125/193 93/139/193 105/157/193
f 94/127/194 92/126/194 98/148/194
f 54/144/195 79/210/195 77/159/195
f 55/132/196 91/147/196 97/155/196
f 59/137/197 96/141/197 114/160/197
f 54/143/198 53/140/198 80/162/198
f 45/138/199 89/211/199 105/157/199
f 53/140/200 50/134/200 83/164/200
f 96/141/201 46/125/201 88/158/201
f 49/135/202 84/212/202 76/165/202
f 50/134/203 59/208/203 75/166/203
f 49/130/204 48/124/204 85/167/204
f 58/128/205 76/213/205 89/169/205
f 99/119/206 84/206/206 85/170/206
f 101/171/207 85/170/207 87/172/207
f 102/173/208 104/183/208 113/174/208
f 108/176/209 101/171/209 103/115/209
f 100/178/210 102/173/210 112/175/210
f 107/180/211 99/119/211 101/171/211
f 114/181/212 88/187/212 100/178/212
f 89/120/213 99/119/213 107/180/213
f 104/183/214 98/186/214 110/184/214
f 109/177/215 103/115/215 97/117/215
f 109/177/216 106/185/216 98/186/216
f 88/187/217 105/182/217 107/180/217
f 107/180/218 108/176/218 102/173/218
f 102/173/219 108/176/219 109/177/219
f 113/174/220 110/184/220 77/188/220
f 75/190/221 114/181/221 111/179/221
f 111/179/222 112/175/222 80/192/222
f 112/175/223 113/174/223 79/189/223
